<svg xmlns="http://www.w3.org/2000/svg" width="64" height="60" viewBox="0 0 64 60" fill="none"><g clip-path="url(#clip0_45_387)"><path d="M31.0557 5.91231C30.7779 5.25183 30.3164 4.33418 29.6378 3.34204C28.8923 2.25213 27.8759 1.05903 26.5371 0.0109927C27.1811 -0.0171333 27.7978 0.0104346 28.3681 0.0740381C28.7892 0.488781 29.163 0.940054 29.4893 1.40335C30.3982 2.69343 30.911 4.03765 31.0458 4.85067C31.0524 4.88985 31.0665 4.92639 31.0869 4.95926C31.1075 4.92639 31.1216 4.88985 31.1281 4.85067C31.2628 4.03765 31.7757 2.69343 32.6845 1.40335C33.0109 0.940054 33.3848 0.488781 33.8059 0.0740381C34.3762 0.0104346 34.9928 -0.0171333 35.6367 0.0109927C34.2981 1.05903 33.2817 2.25213 32.5361 3.34204C31.8576 4.33418 31.396 5.25183 31.1183 5.91231V6.0648C31.1082 6.03956 31.0978 6.01384 31.0869 5.98772C31.0762 6.01384 31.0658 6.03956 31.0557 6.0648V5.91231Z" fill="#6F4E37"></path><path d="M31.087 0.732355C30.6851 0.564445 30.1408 0.390868 29.4956 0.254883C29.7223 0.51919 29.9313 0.790041 30.1231 1.06223C30.4949 1.58994 30.8057 2.12857 31.0557 2.64346V2.77491C31.066 2.75287 31.0764 2.73078 31.087 2.70864C31.0975 2.73078 31.1081 2.75287 31.1184 2.77491V2.64346C31.3684 2.12857 31.6792 1.58994 32.051 1.06223C32.2427 0.790041 32.4518 0.51919 32.6783 0.254883C32.0333 0.390868 31.4888 0.564445 31.087 0.732355Z" fill="#6F4E37"></path><path d="M28.9993 3.67561C28.1842 2.48398 27.0435 1.18096 25.5122 0.102539C25.178 0.148334 24.8396 0.210663 24.499 0.291999C25.6668 0.892728 26.6238 1.79976 27.4488 2.72749C27.8961 3.23053 28.3163 3.75385 28.7119 4.24648C28.8796 4.45537 29.043 4.65888 29.202 4.85284C29.6058 5.34522 29.9817 5.77653 30.3482 6.11445C30.0888 5.50189 29.6521 4.62993 28.9993 3.67561Z" fill="#6F4E37"></path><path d="M26.8611 3.12736C25.894 2.03976 24.8203 1.07717 23.5129 0.582031C23.0801 0.734056 22.6477 0.920295 22.2207 1.14575C23.3859 1.36687 24.3945 1.99828 25.2675 2.71396C25.8979 3.23052 26.4843 3.81502 27.0156 4.34457C27.2187 4.54684 27.4136 4.74123 27.6 4.9206C27.9435 5.25147 28.2572 5.53231 28.5496 5.74065C28.565 5.75167 28.5804 5.76244 28.5955 5.77294C28.7761 5.80008 28.9641 5.84136 29.1616 5.8971C28.9729 5.68539 28.785 5.46184 28.597 5.23248C28.4291 5.02783 28.261 4.81827 28.0905 4.60596C27.6995 4.11895 27.2968 3.61741 26.8611 3.12736Z" fill="#6F4E37"></path><path d="M31.087 38.9195C31.0977 38.9577 31.1081 38.9963 31.1184 39.0347C31.1184 38.9613 31.1184 38.8859 31.1184 38.8088C31.273 38.2737 31.4665 37.7483 31.6803 37.2317C31.9449 36.5922 32.2427 35.9616 32.5391 35.3415L32.6322 35.1465C32.8979 34.5915 33.1593 34.0451 33.3965 33.4994C34.4224 31.1408 34.9589 28.8855 33.3149 26.4609C32.6474 26.6687 31.8566 26.7605 31.087 26.7672C30.3175 26.7605 29.5267 26.6687 28.8591 26.4609C27.2153 28.8855 27.7517 31.1408 28.7775 33.4994C29.0149 34.0451 29.2762 34.5915 29.5419 35.1465L29.6351 35.3415C29.9313 35.9616 30.2293 36.5922 30.4939 37.2317C30.7076 37.7483 30.9011 38.2737 31.0557 38.8088C31.0557 38.8859 31.0557 38.9613 31.0557 39.0347C31.066 38.9963 31.0764 38.9577 31.087 38.9195Z" fill="#6F4E37"></path><path d="M28.175 26.1941C26.4095 28.8529 27.039 31.3316 28.0822 33.73C28.324 34.2863 28.5904 34.8428 28.8552 35.3966L28.9485 35.5916C29.2449 36.2117 29.5365 36.8293 29.7942 37.4524C30.0822 38.1482 30.3257 38.8454 30.4846 39.5503C30.0392 38.7895 29.5421 38.1337 29.005 37.5539C28.7941 37.1393 28.5538 36.7208 28.301 36.3014C28.0478 35.8816 27.7818 35.4605 27.5145 35.0375C26.9577 34.1563 26.3951 33.2657 25.9304 32.3572C25.2465 31.0196 24.8106 29.7043 24.9468 28.4354C25.0663 27.3209 25.6313 26.2085 26.9404 25.126C27.186 25.5734 27.623 25.9291 28.175 26.1941Z" fill="#6F4E37"></path><path d="M24.2054 28.375C24.3533 26.9971 25.0962 25.6628 26.7273 24.4165C26.7198 24.3247 26.7191 24.2302 26.7254 24.1331C26.7776 24.0743 26.8955 24.0025 27.1601 23.9287C27.4231 23.8555 27.7406 23.8036 28.1076 23.7436C28.2286 23.7238 28.3548 23.7031 28.4864 23.6806C28.9959 23.593 29.5608 23.479 30.0642 23.2709C30.4496 23.1116 30.8108 22.8923 31.0869 22.5796C31.3631 22.8923 31.7242 23.1116 32.1095 23.2709C32.6131 23.479 33.178 23.593 33.6875 23.6806C33.8191 23.7031 33.9453 23.7238 34.0663 23.7436C34.4333 23.8036 34.7507 23.8555 35.0138 23.9287C35.2784 24.0025 35.3963 24.0743 35.4486 24.1331C35.4548 24.2302 35.4541 24.3247 35.4466 24.4165C37.0777 25.6628 37.8206 26.9971 37.9684 28.375C38.1224 29.809 37.6266 31.2473 36.9232 32.623C36.4459 33.5564 35.8564 34.4897 35.2914 35.3843C35.16 35.5924 35.0294 35.7991 34.9023 36.0023C35.9542 35.2093 37.0902 34.5563 38.2482 33.8909L38.3884 33.8102C39.5702 31.138 39.6679 29.0306 39.2347 27.3496C38.7188 25.3483 37.4391 23.9044 36.2171 22.7968C36.2145 22.7996 36.2118 22.8025 36.2093 22.8052C36.2035 22.8112 36.1979 22.817 36.1924 22.8227C36.0932 22.925 36.003 23.0075 35.929 23.0683C35.8884 23.1016 35.8471 23.1328 35.8089 23.1589C35.7821 23.1767 35.7553 23.1935 35.7255 23.21C35.6641 23.2453 35.5926 23.2735 35.5201 23.2916C35.4552 23.3081 35.3865 23.3209 35.3131 23.33C35.2886 23.3225 35.264 23.3155 35.2397 23.3087C34.9285 23.222 34.5456 23.1595 34.1665 23.0977C34.0538 23.0792 33.941 23.0609 33.831 23.042C33.3293 22.9558 32.842 22.8538 32.4276 22.6826C32.029 22.5178 31.7184 22.2973 31.5285 21.9805L31.7626 20.6284C31.8355 20.2079 32.0817 19.8244 32.4736 19.5724C32.5129 19.547 32.5525 19.5218 32.5921 19.4963L32.5988 19.4921C33.1356 19.148 33.6941 18.7903 34.2445 18.2294C34.4999 17.9692 34.6171 17.63 34.6171 17.2871C34.2138 17.6255 33.6763 17.8145 33.1173 17.8145H29.0566C28.4976 17.8145 27.9601 17.6255 27.5568 17.2871C27.5568 17.63 27.674 17.9692 27.9294 18.2294C28.4798 18.7903 29.0383 19.148 29.5751 19.4921L29.5772 19.4935C29.6183 19.5197 29.6594 19.5461 29.7003 19.5724C30.0922 19.8244 30.3384 20.2079 30.4113 20.6284L30.6454 21.9805C30.4555 22.2973 30.1449 22.5178 29.7462 22.6826C29.3319 22.8538 28.8446 22.9558 28.3429 23.042C28.2328 23.0609 28.1204 23.0792 28.0077 23.0977C27.6286 23.1595 27.2454 23.222 26.9342 23.3087C26.9099 23.3155 26.8854 23.3225 26.8608 23.33C26.7874 23.3209 26.7187 23.3081 26.6538 23.2916C26.5813 23.2735 26.5098 23.2453 26.4484 23.21C26.4186 23.1935 26.3918 23.1767 26.365 23.1589C26.3268 23.1328 26.2855 23.1016 26.2449 23.0683C26.1709 23.0075 26.0807 22.925 25.9815 22.8227C25.9734 22.8143 25.9651 22.8058 25.9566 22.7968C24.7348 23.9044 23.4551 25.3483 22.9392 27.3496C22.506 29.0306 22.6038 31.138 23.7854 33.8102L23.9257 33.8909C25.0837 34.5563 26.2198 35.2093 27.2714 36.0023C27.1445 35.7991 27.0144 35.5931 26.883 35.3851C26.318 34.4905 25.728 33.5564 25.2507 32.623C24.5473 31.2473 24.0515 29.809 24.2054 28.375Z" fill="#6F4E37"></path><path d="M25.5171 22.2586C24.2273 23.4131 22.7864 24.9842 22.2135 27.2063C21.7904 28.8481 21.8475 30.8183 22.748 33.2065C21.8338 32.6642 20.9189 32.0824 20.0336 31.3873C19.7796 30.6926 19.6572 30.0446 19.6365 29.4388C19.5841 27.9113 20.1749 26.6096 21.0081 25.4549C21.6658 24.5434 22.4594 23.7416 23.2019 22.9915C23.4081 22.7833 23.6106 22.5787 23.8049 22.3772C24.2145 21.9521 24.591 21.5363 24.8766 21.1289L24.9205 21.1298C25.0337 21.4334 25.1751 21.7228 25.3418 21.9935C25.4002 22.0883 25.4592 22.1767 25.5171 22.2586Z" fill="#6F4E37"></path><path d="M24.2973 20.7077C24.4732 20.4448 24.5902 20.2052 24.6471 19.9829C24.6126 19.6643 24.6111 19.3427 24.6429 19.0202C24.6697 18.7508 24.7109 18.4042 24.7358 18.2008L24.5189 18.0359C24.4671 17.9963 24.4162 17.9567 24.3662 17.917C24.3476 17.9749 24.3266 18.0343 24.3031 18.0949C24.1666 18.4484 23.9407 18.8683 23.6033 19.3462C22.9283 20.3021 21.7969 21.5054 20.0035 22.8955C17.8549 24.5611 17.1445 26.2199 17.1701 27.6905C17.1756 28.0055 17.2149 28.3142 17.2823 28.615C17.8347 29.339 18.4177 29.9672 19.021 30.5254C18.946 30.1598 18.9043 29.8042 18.8924 29.458C18.8342 27.7613 19.4945 26.3323 20.3784 25.1074C21.0693 24.1498 21.9121 23.299 22.6589 22.5448C22.8597 22.3421 23.0535 22.1464 23.2355 21.9575C23.6718 21.505 24.0391 21.0938 24.2973 20.7077Z" fill="#6F4E37"></path><path d="M23.7272 17.3546C23.7234 17.4721 23.6899 17.6486 23.598 17.887C23.4831 18.1846 23.2842 18.5596 22.9699 19.0046C22.3415 19.8947 21.2621 21.0505 19.5097 22.4089C17.3644 24.0719 16.5022 25.7894 16.4301 27.3928C16.1647 26.9783 15.9212 26.5627 15.6987 26.1467C15.7097 25.8742 15.7406 25.6031 15.7919 25.334C16.101 23.7146 17.1636 22.1245 19.2632 20.6819C21.0597 19.4479 22.0825 18.2918 22.675 17.413C22.8617 17.1361 23.005 16.8878 23.1159 16.6748C23.2948 16.9027 23.4977 17.1298 23.7272 17.3546Z" fill="#6F4E37"></path><path d="M22.5878 16.0985C22.6074 16.0552 22.6252 16.0147 22.6412 15.9772C22.4282 15.6107 22.2705 15.2459 22.1569 14.8887C21.9194 15.1919 21.6022 15.5524 21.1968 15.9589C20.3694 16.7881 19.1601 17.8237 17.4709 18.9785C15.5433 20.2964 14.7658 22.0076 14.5352 23.4521C14.7014 23.9506 14.8946 24.4517 15.1165 24.9539C15.5247 23.2466 16.6967 21.6178 18.8035 20.1704C20.5277 18.9859 21.4888 17.8912 22.034 17.0825C22.3068 16.678 22.4774 16.3423 22.5878 16.0985Z" fill="#6F4E37"></path><path d="M21.9472 13.9213C21.8103 14.1916 21.4115 14.7534 20.6361 15.5306C19.8425 16.3262 18.6682 17.3336 17.0128 18.4655C15.461 19.5263 14.5898 20.8179 14.1372 22.0574C13.8661 20.9219 13.7287 19.8092 13.7007 18.7406C14.1106 17.8232 15.2849 16.4091 17.8402 15.3608C19.5137 14.6741 20.7395 13.8608 21.5788 13.1355C21.7019 13.0291 21.8173 12.9241 21.9249 12.8213C21.8984 13.1647 21.9003 13.5343 21.9472 13.9213Z" fill="#6F4E37"></path><path d="M21.0557 12.6729C21.664 12.1472 22.0292 11.693 22.2038 11.4068C22.279 11.1686 22.3681 10.9315 22.4707 10.696C22.2723 10.6209 22.083 10.5404 21.9023 10.4551C21.2315 10.9538 20.0113 11.7211 17.5053 12.5929C16.1202 13.0747 15.2708 13.8008 14.7803 14.6017C14.3435 15.3151 14.1813 16.105 14.2013 16.8637C14.9492 16.1314 16.0286 15.3855 17.5238 14.772C19.1193 14.1174 20.2753 13.3471 21.0557 12.6729Z" fill="#6F4E37"></path><path d="M22.7625 10.0979C20.5002 9.23936 19.6017 7.6358 19.5786 6.20741C19.5542 4.69016 20.4872 3.4874 21.7159 3.35093C22.2654 3.28988 22.8216 3.53299 23.6332 4.13543C24.0172 4.42051 24.4369 4.76881 24.9244 5.17321L24.98 5.21941C25.381 5.55217 25.8241 5.91877 26.3199 6.30905C26.1053 6.44983 25.8964 6.60863 25.6869 6.77584C25.1811 6.04583 23.8267 5.30102 21.1689 5.45492C20.9638 5.4668 20.8086 5.62178 20.8221 5.80108C20.8358 5.98037 21.0129 6.11611 21.218 6.10423C23.9748 5.9446 24.9001 6.80137 25.122 7.24025C25.0881 7.26937 25.0545 7.2986 25.0211 7.32796C24.4173 7.17116 23.6826 7.13918 22.9901 7.17371C22.2129 7.21246 21.4419 7.33754 20.8915 7.49797C20.6965 7.55479 20.5911 7.73905 20.6562 7.90952C20.7211 8.08 20.9318 8.17213 21.1268 8.11531C21.6038 7.97627 22.3081 7.8595 23.0325 7.82338C23.5325 7.79846 24.0203 7.81315 24.4374 7.87667C23.744 8.57494 23.1803 9.32387 22.7625 10.0979Z" fill="#6F4E37"></path><path d="M25.4922 4.74679C25.9372 5.11613 26.427 5.52132 26.9807 5.95263C27.0596 5.9202 27.1399 5.89096 27.2219 5.86528C27.3187 5.83502 27.416 5.80988 27.5147 5.78994C27.3605 5.65369 27.2053 5.5083 27.0488 5.35774C26.8458 5.16213 26.6406 4.95764 26.4316 4.74929C25.9083 4.22781 25.3606 3.68178 24.7587 3.18847C24.4406 2.92776 24.1022 2.67996 23.746 2.46444C22.2838 1.57996 20.4241 2.12037 19.2541 3.37068C17.3217 5.43555 17.9982 7.09949 18.6573 8.59799C17.8437 8.70242 16.9805 9.29301 16.2061 10.2498C16.7431 9.96551 17.3008 9.75468 17.8425 9.60141C18.6812 9.36411 19.4933 9.26129 20.1517 9.23931C19.2565 8.32911 18.8507 7.24174 18.8342 6.216C18.8071 4.53564 19.8536 2.90122 21.6219 2.70481C22.5153 2.60557 23.2934 3.02916 24.1147 3.63879C24.5149 3.93586 24.9483 4.29553 25.4283 4.69388L25.4922 4.74679Z" fill="#6F4E37"></path><path d="M18.072 10.2209C17.5308 10.374 16.9806 10.5874 16.4605 10.8782C15.5336 11.3964 14.9037 12.3103 14.5429 13.3149C14.4618 13.5404 14.3855 13.7721 14.3145 14.0096C14.9104 13.1848 15.8491 12.469 17.2303 11.9886C19.4333 11.2222 20.5851 10.5499 21.2342 10.0942C21.137 10.0344 21.0429 9.9729 20.9521 9.90997C20.3571 9.8485 19.25 9.88758 18.072 10.2209Z" fill="#6F4E37"></path><path d="M29.6954 12.0739L28.4793 15.7457C28.8151 14.7142 28.7046 13.7183 28.56 13.0285C28.0613 13.0726 27.6976 13.0395 27.3547 12.963C26.4502 12.7611 25.8469 12.0607 25.2724 11.3937C25.187 11.2945 25.1023 11.1961 25.0172 11.1001C24.9005 10.9684 24.7636 10.8316 24.6006 10.6816C24.8631 10.7232 25.1199 10.7611 25.3717 10.7984C26.9291 11.0287 28.3001 11.2314 29.6954 12.0739Z" fill="#6F4E37"></path><path d="M28.4792 15.7461C28.4746 15.76 28.4699 15.774 28.4653 15.7878L28.4792 15.7461Z" fill="#6F4E37"></path><path d="M33.1751 3.67561C33.9901 2.48398 35.1308 1.18096 36.6622 0.102539C36.9963 0.148334 37.3348 0.210663 37.6753 0.291999C36.5076 0.892728 35.5505 1.79976 34.7255 2.72749C34.2783 3.23053 33.8581 3.75385 33.4625 4.24648C33.2947 4.45537 33.1313 4.65888 32.9724 4.85284C32.5686 5.34522 32.1926 5.77653 31.8262 6.11445C32.0856 5.50189 32.5223 4.62993 33.1751 3.67561Z" fill="#6F4E37"></path><path d="M35.3131 3.12736C36.2803 2.03976 37.354 1.07717 38.6614 0.582031C39.0942 0.734056 39.5266 0.920295 39.9536 1.14575C38.7883 1.36687 37.7798 1.99828 36.9066 2.71396C36.2764 3.23052 35.69 3.81502 35.1586 4.34457C34.9556 4.54684 34.7605 4.74123 34.5743 4.9206C34.2308 5.25147 33.917 5.53231 33.6247 5.74065C33.6092 5.75167 33.5939 5.76244 33.5787 5.77294C33.398 5.80008 33.2101 5.84136 33.0127 5.8971C33.2014 5.68539 33.3891 5.46184 33.5772 5.23248C33.7451 5.02783 33.9133 4.8183 34.0837 4.60599C34.4747 4.11898 34.8775 3.61741 35.3131 3.12736Z" fill="#6F4E37"></path><path d="M33.9994 26.1941C35.765 28.8529 35.1355 31.3316 34.0923 33.73C33.8505 34.2863 33.584 34.8428 33.3193 35.3966L33.2259 35.5916C32.9296 36.2117 32.638 36.8293 32.3802 37.4524C32.0922 38.1482 31.8488 38.8454 31.6899 39.5503C32.1353 38.7895 32.6324 38.1337 33.1695 37.5539C33.3804 37.1393 33.6207 36.7208 33.8735 36.3014C34.1267 35.8816 34.3927 35.4605 34.66 35.0375C35.2168 34.1563 35.7794 33.2657 36.2441 32.3572C36.928 31.0196 37.3639 29.7043 37.2277 28.4354C37.1082 27.3209 36.5431 26.2085 35.2341 25.126C34.9885 25.5734 34.5515 25.9291 33.9994 26.1941Z" fill="#6F4E37"></path><path d="M36.6572 22.2586C37.947 23.4131 39.3879 24.9842 39.9608 27.2063C40.384 28.8481 40.3268 30.8183 39.4263 33.2065C40.3405 32.6642 41.2554 32.0824 42.1407 31.3873C42.3947 30.6926 42.5169 30.0446 42.5378 29.4388C42.5902 27.9113 41.9994 26.6096 41.1662 25.4549C40.5085 24.5434 39.7149 23.7416 38.9724 22.9915C38.7662 22.7833 38.5637 22.5787 38.3694 22.3772C37.9598 21.9521 37.5833 21.5363 37.2977 21.1289L37.2538 21.1298C37.1406 21.4334 36.9993 21.7228 36.8326 21.9935C36.7741 22.0883 36.7151 22.1767 36.6572 22.2586Z" fill="#6F4E37"></path><path d="M37.877 20.7077C37.701 20.4448 37.584 20.2052 37.5272 19.9829C37.5617 19.6643 37.5632 19.3427 37.5313 19.0202C37.5046 18.7508 37.4633 18.4042 37.4385 18.2008L37.6553 18.0359C37.7071 17.9963 37.758 17.9567 37.808 17.917C37.8266 17.9749 37.8476 18.0343 37.8711 18.0949C38.0076 18.4484 38.2336 18.8683 38.571 19.3462C39.246 20.3021 40.3774 21.5054 42.1706 22.8955C44.3194 24.5611 45.0298 26.2199 45.0042 27.6905C44.9987 28.0055 44.9594 28.3142 44.8919 28.615C44.3396 29.339 43.7566 29.9672 43.1532 30.5254C43.2282 30.1598 43.2699 29.8042 43.2818 29.458C43.34 27.7613 42.6798 26.3323 41.7958 25.1074C41.1049 24.1498 40.2622 23.299 39.5153 22.5448C39.3146 22.3421 39.1208 22.1464 38.9388 21.9575C38.5025 21.505 38.1352 21.0938 37.877 20.7077Z" fill="#6F4E37"></path><path d="M38.4468 17.3546C38.4505 17.4721 38.4838 17.6486 38.576 17.887C38.6909 18.1846 38.8897 18.5596 39.2041 19.0046C39.8325 19.8947 40.9118 21.0505 42.6641 22.4089C44.8096 24.0719 45.6718 25.7894 45.7438 27.3928C46.0092 26.9783 46.2527 26.5627 46.4752 26.1467C46.4642 25.8742 46.4334 25.6031 46.382 25.334C46.0729 23.7146 45.0104 22.1245 42.9107 20.6819C41.1142 19.4479 40.0914 18.2918 39.4989 17.413C39.3121 17.1361 39.1689 16.8878 39.0581 16.6748C38.8792 16.9027 38.6763 17.1298 38.4468 17.3546Z" fill="#6F4E37"></path><path d="M39.5861 16.0985C39.5665 16.0552 39.5488 16.0147 39.5327 15.9772C39.7457 15.6107 39.9035 15.2459 40.017 14.8887C40.2546 15.1919 40.5717 15.5524 40.9772 15.9589C41.8046 16.7881 43.0139 17.8237 44.703 18.9785C46.6306 20.2964 47.4081 22.0076 47.6388 23.4521C47.4726 23.9506 47.2794 24.4517 47.0575 24.9539C46.6492 23.2466 45.4773 21.6178 43.3705 20.1704C41.6462 18.9859 40.6852 17.8912 40.14 17.0825C39.8672 16.678 39.6966 16.3423 39.5861 16.0985Z" fill="#6F4E37"></path><path d="M40.2271 13.9213C40.3638 14.1916 40.7627 14.7534 41.538 15.5306C42.3318 16.3262 43.5061 17.3336 45.1615 18.4655C46.7132 19.5263 47.5845 20.8179 48.037 22.0574C48.308 20.9219 48.4455 19.8092 48.4735 18.7406C48.0636 17.8232 46.8893 16.4091 44.3341 15.3608C42.6605 14.6741 41.4347 13.8608 40.5954 13.1355C40.4723 13.0291 40.357 12.9241 40.2494 12.8213C40.2759 13.1647 40.2739 13.5343 40.2271 13.9213Z" fill="#6F4E37"></path><path d="M41.1186 12.6729C40.5103 12.1472 40.1451 11.693 39.9705 11.4068C39.8953 11.1686 39.8062 10.9315 39.7036 10.696C39.902 10.6209 40.0913 10.5404 40.272 10.4551C40.9428 10.9538 42.163 11.7211 44.669 12.5929C46.054 13.0747 46.9035 13.8008 47.3939 14.6017C47.8309 15.3151 47.993 16.105 47.9729 16.8637C47.2251 16.1314 46.1457 15.3855 44.6504 14.772C43.055 14.1174 41.899 13.3471 41.1186 12.6729Z" fill="#6F4E37"></path><path d="M39.4117 10.0979C41.6742 9.23936 42.5727 7.6358 42.5958 6.20741C42.6202 4.69016 41.6871 3.4874 40.4585 3.35093C39.9088 3.28988 39.3528 3.53299 38.5412 4.13543C38.1572 4.42051 37.7373 4.76881 37.25 5.17321L37.1943 5.21941C36.7932 5.55217 36.3503 5.91877 35.8545 6.30905C36.0691 6.44983 36.2779 6.60863 36.4875 6.77584C36.9932 6.04583 38.3477 5.30102 41.0055 5.45492C41.2105 5.4668 41.3658 5.62178 41.3522 5.80108C41.3385 5.98037 41.1613 6.11611 40.9563 6.10423C38.1996 5.9446 37.2743 6.80137 37.0523 7.24025C37.0863 7.26937 37.1199 7.2986 37.1532 7.32796C37.7571 7.17116 38.4917 7.13918 39.1843 7.17371C39.9615 7.21246 40.7325 7.33754 41.2829 7.49797C41.4779 7.55479 41.5832 7.73905 41.5182 7.90952C41.4533 8.08 41.2425 8.17213 41.0476 8.11531C40.5705 7.97627 39.8663 7.8595 39.1419 7.82338C38.6419 7.79846 38.154 7.81315 37.737 7.87667C38.4304 8.57494 38.9941 9.32387 39.4117 10.0979Z" fill="#6F4E37"></path><path d="M36.6817 4.74679C36.2366 5.11613 35.7469 5.52132 35.1931 5.95263C35.1142 5.9202 35.034 5.89096 34.9519 5.86528C34.8552 5.83502 34.7579 5.80988 34.6592 5.78994C34.8134 5.65369 34.9686 5.5083 35.1249 5.35774C35.3281 5.16213 35.5332 4.95764 35.7423 4.74929C36.2654 4.22781 36.8133 3.68178 37.4152 3.18847C37.7333 2.92776 38.0717 2.67996 38.4279 2.46444C39.8901 1.57996 41.7498 2.12037 42.9198 3.37068C44.8521 5.43555 44.1757 7.09949 43.5166 8.59799C44.3302 8.70242 45.1934 9.29301 45.9678 10.2498C45.4308 9.96551 44.873 9.75468 44.3314 9.60141C43.4925 9.36411 42.6806 9.26129 42.0222 9.23931C42.9174 8.32911 43.3231 7.24174 43.3397 6.216C43.3667 4.53564 42.3203 2.90122 40.5519 2.70481C39.6585 2.60557 38.8805 3.02916 38.0592 3.63879C37.659 3.93586 37.2256 4.29553 36.7456 4.69388L36.6817 4.74679Z" fill="#6F4E37"></path><path d="M44.1026 10.2209C44.6438 10.374 45.194 10.5874 45.7141 10.8782C46.641 11.3964 47.2709 12.3103 47.6317 13.3149C47.7128 13.5404 47.789 13.7721 47.8602 14.0096C47.2642 13.1848 46.3255 12.469 44.9443 11.9886C42.7414 11.2222 41.5895 10.5499 40.9404 10.0942C41.0376 10.0344 41.1317 9.9729 41.2225 9.90997C41.8175 9.8485 42.9246 9.88758 44.1026 10.2209Z" fill="#6F4E37"></path><path d="M32.479 12.0739L33.6952 15.7457C33.6998 15.7597 33.7044 15.7736 33.709 15.7874L33.6952 15.7457C33.3594 14.7142 33.4698 13.7183 33.6145 13.0285C34.1131 13.0726 34.4768 13.0395 34.8198 12.963C35.7243 12.7611 36.3275 12.0607 36.902 11.3937C36.9874 11.2945 37.0721 11.1961 37.1573 11.1001C37.2739 10.9684 37.4109 10.8316 37.5739 10.6816C37.3113 10.7232 37.0546 10.7611 36.8027 10.7984C35.2453 11.0287 33.8744 11.2314 32.479 12.0739Z" fill="#6F4E37"></path><path fill-rule="evenodd" clip-rule="evenodd" d="M5.99624 49.7391C5.79952 49.2471 5.70117 48.7076 5.70117 48.1202C5.70117 47.5328 5.79952 46.9967 5.99624 46.512C6.19295 46.02 6.46983 45.5979 6.82675 45.2454C7.19108 44.8857 7.61724 44.6103 8.1054 44.4194C8.60094 44.2211 9.1473 44.1221 9.74472 44.1221C10.3421 44.1221 10.885 44.2211 11.3731 44.4194C11.8686 44.6103 12.2947 44.8857 12.6518 45.2454C13.0161 45.5979 13.2966 46.02 13.4933 46.512C13.69 46.9967 13.7884 47.5328 13.7884 48.1202C13.7884 48.7076 13.69 49.2471 13.4933 49.7391C13.2966 50.2238 13.0161 50.6459 12.6518 51.0057C12.2947 51.3582 11.8686 51.6335 11.3731 51.8318C10.885 52.0227 10.3421 52.1181 9.74472 52.1181C9.1473 52.1181 8.60094 52.0227 8.1054 51.8318C7.61724 51.6335 7.19108 51.3582 6.82675 51.0057C6.46983 50.6459 6.19295 50.2238 5.99624 49.7391ZM12.2802 48.1202C12.2802 47.6061 12.1709 47.1582 11.9524 46.7763C11.7411 46.3872 11.446 46.0826 11.0671 45.8622C10.6883 45.6419 10.2474 45.5318 9.74472 45.5318C9.2493 45.5318 8.80857 45.6419 8.42242 45.8622C8.04354 46.0826 7.74483 46.3872 7.52617 46.7763C7.31489 47.1582 7.20926 47.6061 7.20926 48.1202C7.20926 48.6267 7.31489 49.0746 7.52617 49.4637C7.74483 49.853 8.04354 50.1576 8.42242 50.378C8.80857 50.5983 9.2493 50.7084 9.74472 50.7084C10.2474 50.7084 10.6883 50.5983 11.0671 50.378C11.446 50.1576 11.7411 49.853 11.9524 49.4637C12.1709 49.0746 12.2802 48.6267 12.2802 48.1202Z" fill="#6F4E37"></path><path d="M4.04355 50.5543H1.82512V45.6199C1.82512 45.2749 1.85788 45.0069 1.92348 44.8159C1.99625 44.6251 2.0946 44.4892 2.21855 44.4085V44.3203H0.0327452V44.4085C0.0711906 44.4394 0.106483 44.4772 0.138622 44.5219C0.157541 44.548 0.175248 44.5767 0.191984 44.6074C0.227641 44.6736 0.258445 44.7504 0.284156 44.838C0.342491 45.0289 0.371597 45.2896 0.371597 45.6199V50.6203C0.371597 50.9508 0.338731 51.2151 0.273241 51.4134C0.207629 51.6043 0.116549 51.7438 0 51.8319V51.9201H4.40424C4.57185 51.9201 4.73581 51.9237 4.89603 51.931C4.99389 51.9397 5.08546 51.952 5.17096 51.9681C5.20262 51.9741 5.2333 51.9805 5.26326 51.9874C5.29091 51.994 5.31795 52.0008 5.34415 52.0081V50.1909H5.25671C5.16927 50.3083 5.02725 50.4001 4.83053 50.4663C4.63369 50.5249 4.3715 50.5543 4.04355 50.5543Z" fill="#6F4E37"></path><path d="M20.8937 46.2036H20.9812V44.2652C20.9394 44.282 20.8953 44.2956 20.849 44.3061C20.7748 44.3229 20.695 44.3313 20.6096 44.3313C20.5683 44.3313 20.5186 44.3276 20.4604 44.3202C20.3439 44.3055 20.1933 44.2763 20.0086 44.2322C19.7389 44.1587 19.4111 44.1221 19.0249 44.1221C18.1652 44.1221 17.411 44.291 16.7627 44.6286C16.1215 44.9591 15.6225 45.4253 15.2654 46.0274C14.9085 46.6221 14.73 47.3198 14.73 48.1202C14.73 48.7002 14.8283 49.2362 15.025 49.7282C15.2218 50.2128 15.5022 50.6349 15.8664 50.9948C16.2308 51.3546 16.657 51.6335 17.1452 51.8318C17.6407 52.0227 18.1834 52.1181 18.7735 52.1181C19.5458 52.1181 20.2125 51.9567 20.7736 51.6335C21.3344 51.3105 21.7644 50.8626 22.0631 50.2899C22.3691 49.7172 22.5221 49.0563 22.5221 48.3074C22.5221 48.1605 22.5403 48.032 22.5767 47.9219C22.6205 47.8118 22.6787 47.72 22.7516 47.6465V47.5584H19.2435C19.1828 47.5584 19.1216 47.5572 19.0599 47.5553C19.0012 47.5533 18.942 47.5503 18.8823 47.5464L18.8519 47.5443L18.7873 47.5394L18.7518 47.5364C18.584 47.5217 18.4347 47.4996 18.3036 47.4702V49.2656H18.391C18.4785 49.1408 18.6242 49.0416 18.8283 48.9681C18.9518 48.9191 19.0983 48.885 19.2672 48.8657C19.3772 48.8532 19.4968 48.8471 19.626 48.8471H20.9696C20.9604 49.1922 20.866 49.5044 20.6861 49.7832C20.4966 50.0696 20.2343 50.2973 19.8993 50.4662C19.5713 50.6276 19.1962 50.7084 18.7735 50.7084C18.2782 50.7084 17.8373 50.5983 17.4512 50.378C17.0723 50.1576 16.7736 49.853 16.5549 49.4637C16.3437 49.0746 16.2381 48.6267 16.2381 48.1202C16.2381 47.5988 16.3546 47.1435 16.5878 46.7544C16.8209 46.3652 17.1489 46.0641 17.5713 45.8513C18.0012 45.6383 18.5002 45.5318 19.0686 45.5318C19.2726 45.5318 19.462 45.5465 19.6369 45.5759C19.8191 45.5979 19.9867 45.6383 20.1397 45.6971C20.3 45.7485 20.4455 45.8255 20.5768 45.9282C20.7152 46.0311 20.8209 46.1228 20.8937 46.2036Z" fill="#6F4E37"></path><path fill-rule="evenodd" clip-rule="evenodd" d="M23.691 49.7391C23.4944 49.2471 23.396 48.7076 23.396 48.1202C23.396 47.5328 23.4944 46.9967 23.691 46.512C23.8878 46.02 24.1646 45.5979 24.5215 45.2454C24.8859 44.8857 25.3121 44.6103 25.8002 44.4194C26.2958 44.2211 26.8422 44.1221 27.4396 44.1221C28.0369 44.1221 28.5798 44.2211 29.0679 44.4194C29.5634 44.6103 29.9895 44.8857 30.3465 45.2454C30.7109 45.5979 30.9915 46.02 31.1881 46.512C31.3848 46.9967 31.4832 47.5328 31.4832 48.1202C31.4832 48.7076 31.3848 49.2471 31.1881 49.7391C30.9915 50.2238 30.7109 50.6459 30.3465 51.0057C29.9895 51.3582 29.5634 51.6335 29.0679 51.8318C28.5798 52.0227 28.0369 52.1181 27.4396 52.1181C26.8422 52.1181 26.2958 52.0227 25.8002 51.8318C25.3121 51.6335 24.8859 51.3582 24.5215 51.0057C24.1646 50.6459 23.8878 50.2238 23.691 49.7391ZM29.975 48.1202C29.975 47.6061 29.8657 47.1582 29.6472 46.7763C29.436 46.3872 29.1408 46.0826 28.762 45.8622C28.3831 45.6419 27.9422 45.5318 27.4396 45.5318C26.9441 45.5318 26.5034 45.6419 26.1172 45.8622C25.7384 46.0826 25.4397 46.3872 25.221 46.7763C25.0097 47.1582 24.904 47.6061 24.904 48.1202C24.904 48.6267 25.0097 49.0746 25.221 49.4637C25.4397 49.853 25.7384 50.1576 26.1172 50.378C26.5034 50.5983 26.9441 50.7084 27.4396 50.7084C27.9422 50.7084 28.3831 50.5983 28.762 50.378C29.1408 50.1576 29.436 49.853 29.6472 49.4637C29.8657 49.0746 29.975 48.6267 29.975 48.1202Z" fill="#6F4E37"></path><path d="M32.6327 44.838C32.6911 45.0289 32.7203 45.2896 32.7203 45.6199V50.6203C32.7203 50.9508 32.6911 51.2151 32.6327 51.4134C32.5744 51.6043 32.4906 51.7438 32.3813 51.8319V51.9201H34.5124V51.8319C34.4032 51.7438 34.3194 51.6043 34.2612 51.4134C34.2379 51.3342 34.2192 51.2445 34.2052 51.1443C34.1842 50.9934 34.1738 50.8188 34.1738 50.6203V45.6199C34.1738 45.2896 34.2028 45.0289 34.2612 44.838C34.3194 44.6397 34.4032 44.4966 34.5124 44.4085V44.3203H32.3813V44.4085C32.4906 44.4966 32.5744 44.6397 32.6327 44.838Z" fill="#6F4E37"></path><path fill-rule="evenodd" clip-rule="evenodd" d="M37.162 50.6203C37.162 50.9583 37.1947 51.2262 37.2603 51.4243C37.2836 51.4851 37.3092 51.5401 37.3374 51.5896C37.3535 51.6177 37.3702 51.6439 37.3879 51.6684C37.406 51.6936 37.4251 51.7168 37.4449 51.7381C37.4791 51.7749 37.516 51.8062 37.5555 51.8319V51.9201H35.3697V51.8319C35.4165 51.7941 35.4588 51.7468 35.4963 51.69C35.5061 51.6751 35.5157 51.6597 35.5247 51.6435C35.5368 51.6223 35.5481 51.6001 35.5591 51.5769C35.5684 51.5571 35.5773 51.5362 35.5858 51.5148C35.5984 51.4827 35.6102 51.4489 35.621 51.4134C35.6794 51.2151 35.7084 50.9508 35.7084 50.6203V45.6199C35.7084 45.2896 35.6757 45.0289 35.6102 44.838C35.5445 44.6397 35.4535 44.4966 35.3369 44.4085V44.3203H38.0581C38.9906 44.3203 39.7193 44.5626 40.2438 45.0472C40.7757 45.5319 41.0415 46.2001 41.0415 47.0518C41.0415 47.6173 40.9214 48.1056 40.6811 48.5167C40.4405 48.9205 40.0982 49.2327 39.6536 49.4529C39.2094 49.6731 38.6774 49.7833 38.0581 49.7833H37.162V50.6203ZM37.9925 48.4396H37.162V45.6642H37.9925C38.4952 45.6642 38.8778 45.7816 39.14 46.0165C39.4024 46.2516 39.5335 46.5966 39.5335 47.0518C39.5335 47.4997 39.4024 47.8449 39.14 48.0871C38.8778 48.3222 38.4952 48.4396 37.9925 48.4396Z" fill="#6F4E37"></path><path d="M43.8881 45.3559C43.6185 45.7375 43.3525 46.2553 43.0903 46.9087L42.2488 48.9906C42.0812 49.4091 41.9246 49.7284 41.7787 49.9486C41.6405 50.169 41.5019 50.3194 41.3635 50.4003C41.2325 50.4811 41.0866 50.5215 40.9263 50.5215C40.8025 50.5215 40.686 50.4994 40.5767 50.4553C40.5617 50.4481 40.547 50.4409 40.5325 50.433C40.522 50.4274 40.5115 50.4216 40.5013 50.4156L40.4767 50.4006C40.4085 50.3577 40.3471 50.3061 40.2926 50.2461H40.2051V51.8982C40.2853 51.9202 40.38 51.9385 40.4892 51.9532C40.5522 51.9612 40.6183 51.967 40.6875 51.9706C40.7096 51.9717 40.7321 51.9727 40.755 51.9735C40.793 51.9747 40.832 51.9753 40.8717 51.9753C41.2142 51.9753 41.5202 51.9274 41.7897 51.832C42.0666 51.7366 42.3144 51.5862 42.5329 51.3805C42.7515 51.1677 42.9592 50.8959 43.1558 50.5656C43.3525 50.235 43.5456 49.8349 43.7351 49.365L44.5766 47.2833C44.7442 46.8648 44.9007 46.5454 45.0466 46.3251C45.1995 46.0974 45.3416 45.9433 45.4727 45.8625C45.6039 45.7744 45.7314 45.7303 45.8552 45.7303C45.9718 45.7303 46.0775 45.756 46.1721 45.8074C46.2669 45.8515 46.3397 45.9028 46.3906 45.9616H46.4781V44.2324C46.4345 44.247 46.3906 44.2581 46.347 44.2654C46.3034 44.2728 46.2596 44.2765 46.2159 44.2765H46.0737C46.0301 44.269 45.9572 44.2654 45.8552 44.2654C45.4546 44.2654 45.0938 44.3499 44.7733 44.5188C44.46 44.6877 44.1649 44.9667 43.8881 45.3559Z" fill="#6F4E37"></path><path d="M47.1903 45.6199C47.1903 45.4642 47.1838 45.3241 47.1708 45.1995C47.1562 45.0595 47.1336 44.9389 47.1028 44.838C47.0446 44.6397 46.9608 44.4966 46.8516 44.4085V44.3203H48.9826V44.4085C48.8732 44.4966 48.7896 44.6397 48.7312 44.838C48.6982 44.9461 48.6745 45.0766 48.6602 45.2295C48.6492 45.3466 48.6437 45.4767 48.6437 45.6199V49.1554C48.6437 49.6621 48.7531 50.0476 48.9716 50.3121C49.1902 50.5764 49.5108 50.7085 49.9334 50.7085C50.3559 50.7085 50.6765 50.5764 50.895 50.3121C51.1137 50.0476 51.2229 49.6621 51.2229 49.1554V45.6199C51.2229 45.2896 51.1937 45.0289 51.1355 44.838C51.0772 44.6397 50.9934 44.4966 50.8842 44.4085V44.3203H53.0152V44.4085C52.9965 44.4237 52.9784 44.4403 52.9613 44.4588C52.9359 44.4858 52.9122 44.5162 52.89 44.5504C52.8836 44.56 52.8777 44.5698 52.8716 44.58L52.8598 44.6007C52.8473 44.6236 52.8353 44.6476 52.824 44.6731C52.8153 44.6925 52.8068 44.7127 52.7989 44.7336C52.7864 44.7664 52.7747 44.8014 52.7638 44.838C52.7056 45.0289 52.6765 45.2896 52.6765 45.6199V49.2216C52.6765 49.8457 52.5708 50.3745 52.3594 50.8077C52.1555 51.2409 51.8495 51.5676 51.4416 51.7879C51.0336 52.0081 50.5308 52.1182 49.9334 52.1182C49.336 52.1182 48.8332 52.0081 48.4252 51.7879C48.0173 51.5676 47.7075 51.2409 47.4962 50.8077C47.2923 50.3745 47.1903 49.8457 47.1903 49.2216V45.6199Z" fill="#6F4E37"></path><path d="M54.0415 44.8821C54.1069 45.1024 54.1398 45.3777 54.1398 45.7081V50.6203C54.1398 50.9508 54.1107 51.2151 54.0523 51.4134C53.994 51.6043 53.9102 51.7438 53.8009 51.8319V51.9201H55.932V51.8319C55.8227 51.7438 55.7389 51.6043 55.6807 51.4134C55.6224 51.2151 55.5934 50.9508 55.5934 50.6203V46.9503L57.768 48.9022H57.8118L59.9757 46.9279V50.6203C59.9757 50.9508 59.9466 51.2151 59.8882 51.4134C59.86 51.5062 59.8256 51.5868 59.7852 51.6553C59.7593 51.6991 59.7311 51.738 59.7002 51.772C59.6802 51.7941 59.659 51.814 59.6368 51.8319V51.9201H61.768V51.8319C61.6868 51.7663 61.6195 51.6726 61.5664 51.55C61.5481 51.5079 61.5315 51.4623 61.5165 51.4134C61.4583 51.2151 61.4293 50.9508 61.4293 50.6203V45.7081C61.4293 45.3777 61.462 45.1024 61.5277 44.8821C61.5656 44.767 61.6095 44.6689 61.6595 44.5881C61.7052 44.514 61.756 44.4541 61.8117 44.4085V44.3203H59.8663V44.3865C59.9684 44.526 60.0012 44.6949 59.9649 44.8932C59.9356 45.084 59.8227 45.2713 59.626 45.4549L57.8142 47.151L55.8665 45.3888C55.6916 45.2271 55.5934 45.0546 55.5714 44.8711C55.5495 44.6875 55.5934 44.526 55.7026 44.3865V44.3203H53.7573V44.4085C53.8256 44.4612 53.8852 44.5329 53.9356 44.6236C53.9769 44.6971 54.0121 44.7834 54.0415 44.8821Z" fill="#6F4E37"></path><path fill-rule="evenodd" clip-rule="evenodd" d="M34.9619 58.2027C34.9619 58.7801 35.0612 59.2239 35.2599 59.5343C35.4587 59.8448 35.7418 59.9999 36.1094 59.9999C36.4836 59.9999 36.7685 59.8448 36.9639 59.5343C37.1625 59.2239 37.2619 58.7801 37.2619 58.2027C37.2619 57.6252 37.1625 57.1814 36.9639 56.8709C36.7685 56.5605 36.4836 56.4053 36.1094 56.4053C35.7418 56.4053 35.4587 56.5605 35.2599 56.8709C35.0612 57.1814 34.9619 57.6252 34.9619 58.2027ZM36.8297 58.2027C36.8297 58.6599 36.7685 59.007 36.6459 59.2439C36.5266 59.4809 36.3479 59.5994 36.1094 59.5994C35.8743 59.5994 35.6954 59.4809 35.5729 59.2439C35.4504 59.007 35.3891 58.6599 35.3891 58.2027C35.3891 57.7454 35.4504 57.3983 35.5729 57.1613C35.6954 56.9243 35.8743 56.8059 36.1094 56.8059C36.3479 56.8059 36.5266 56.9243 36.6459 57.1613C36.7685 57.3983 36.8297 57.7454 36.8297 58.2027Z" fill="#6F4E37"></path><path d="M33.973 59.5339H33.0332L33.6153 58.7379C33.8305 58.4442 33.9846 58.1905 34.0772 57.9769C34.1172 57.8878 34.1491 57.801 34.1723 57.7165C34.2049 57.5986 34.2212 57.4851 34.2212 57.3762C34.2212 57.0825 34.122 56.8504 33.9233 56.6803C33.7246 56.5068 33.4547 56.4199 33.1136 56.4199L33.0721 56.4204C33.0344 56.421 32.9987 56.4225 32.9651 56.4247C32.9198 56.4279 32.8784 56.4325 32.8405 56.4387C32.8286 56.4406 32.817 56.4427 32.8056 56.4451C32.7227 56.4616 32.6549 56.4784 32.6019 56.4951C32.5523 56.5084 32.5092 56.515 32.4727 56.515H32.4181C32.4016 56.5117 32.3767 56.5084 32.3435 56.5051V57.1309H32.3783C32.4016 57.0942 32.428 57.0609 32.4578 57.0307C32.4909 57.0007 32.529 56.9724 32.572 56.9457C32.5956 56.9308 32.6224 56.9166 32.6526 56.9032C32.6717 56.8947 32.6919 56.8863 32.7135 56.8782C32.7347 56.8704 32.7571 56.8629 32.7808 56.8555C32.8668 56.8288 32.9595 56.8155 33.059 56.8155C33.2807 56.8155 33.4562 56.8705 33.5854 56.9806C33.6248 57.0144 33.6583 57.0517 33.6857 57.0928C33.6966 57.1092 33.7064 57.126 33.7155 57.1435C33.7208 57.154 33.7261 57.165 33.7308 57.1761C33.7371 57.1906 33.7426 57.2055 33.7476 57.2206C33.756 57.2458 33.7627 57.2721 33.7677 57.2992C33.7753 57.3409 33.7792 57.385 33.7792 57.4312C33.7792 57.5314 33.7561 57.6448 33.7097 57.7717C33.6632 57.8952 33.5888 58.0404 33.4861 58.2073C33.3869 58.3741 33.2559 58.5693 33.0936 58.7931L32.2939 59.8944V59.9295H34.1171C34.18 59.9295 34.2412 59.9311 34.3009 59.9344C34.3314 59.9379 34.3601 59.9422 34.3872 59.9473C34.4131 59.9523 34.4372 59.958 34.4597 59.9646V59.3338H34.4201C34.3869 59.3971 34.3339 59.4472 34.2611 59.4838C34.1915 59.5173 34.0955 59.5339 33.973 59.5339Z" fill="#6F4E37"></path><path d="M21.29 59.5243H20.058V58.1776H20.6939C20.8031 58.1776 20.8844 58.1893 20.9374 58.2127C20.9655 58.2232 20.9898 58.2367 21.0104 58.2529C21.0206 58.261 21.0299 58.2697 21.0383 58.2791L21.045 58.2871L21.0483 58.2911L21.0514 58.2955L21.0566 58.3028H21.0913V57.652H21.0566C21.0301 57.6886 20.9904 57.7187 20.9374 57.742C20.9264 57.7468 20.9143 57.7511 20.9011 57.7549C20.8497 57.7697 20.7808 57.7771 20.6939 57.7771H20.058V56.881H21.2602C21.3828 56.881 21.4788 56.8976 21.5483 56.9311C21.6211 56.9644 21.6743 57.0145 21.7073 57.0812H21.747V56.4404C21.7217 56.446 21.6945 56.4508 21.6652 56.4554C21.6408 56.459 21.6152 56.4625 21.5881 56.4655C21.5631 56.4683 21.5378 56.4706 21.5122 56.4721C21.4915 56.4734 21.4705 56.4743 21.4495 56.4748C21.4345 56.4752 21.4195 56.4754 21.4043 56.4754H19.457V56.5154C19.51 56.5456 19.5514 56.5973 19.5812 56.6707C19.6142 56.7442 19.6309 56.8475 19.6309 56.981V59.4242C19.6309 59.5577 19.6142 59.6612 19.5812 59.7346C19.5658 59.7725 19.5474 59.8046 19.5258 59.8309C19.5056 59.8556 19.4826 59.8753 19.457 59.8898V59.9299H21.434C21.497 59.9299 21.5583 59.9315 21.6179 59.9348C21.6808 59.9414 21.7338 59.9515 21.7768 59.965V59.3242H21.7421C21.7089 59.3876 21.656 59.4376 21.5832 59.4742C21.5576 59.486 21.5288 59.4956 21.497 59.5033C21.4385 59.5174 21.3694 59.5243 21.29 59.5243Z" fill="#6F4E37"></path><path d="M23.6886 57.0362H23.6538C23.6307 57.0061 23.6008 56.9795 23.5644 56.9561C23.5313 56.9293 23.4932 56.9077 23.4501 56.891C23.4204 56.881 23.3855 56.8726 23.3458 56.866C23.3254 56.8607 23.3035 56.857 23.2803 56.8544C23.2586 56.8522 23.2357 56.8508 23.2117 56.8508C23.0428 56.8508 22.9069 56.8943 22.8043 56.981C22.7016 57.0679 22.6503 57.178 22.6503 57.3116L22.6507 57.3286L22.6513 57.3431C22.6521 57.3569 22.6533 57.3703 22.6551 57.3836C22.6573 57.4006 22.6606 57.4169 22.6646 57.433C22.6679 57.4462 22.6716 57.4591 22.6759 57.4718C22.6899 57.5125 22.7095 57.5509 22.7348 57.5869C22.7911 57.6637 22.8887 57.7487 23.0279 57.8423L23.2861 58.0124C23.3241 58.0376 23.3604 58.0631 23.3948 58.0888C23.4198 58.1075 23.4439 58.1263 23.467 58.1453C23.4833 58.1585 23.499 58.1719 23.5141 58.1852C23.5619 58.2271 23.6052 58.2697 23.6438 58.3129C23.7399 58.4129 23.8111 58.5197 23.8574 58.6331C23.8803 58.6889 23.8974 58.7474 23.909 58.8088C23.9211 58.8724 23.927 58.939 23.927 59.0087C23.927 59.2891 23.826 59.5177 23.624 59.6945C23.4253 59.8682 23.1406 59.9549 22.7695 59.9549C22.6735 59.9549 22.5759 59.9482 22.4766 59.9348C22.3804 59.9249 22.301 59.9131 22.2382 59.8999V59.3392H22.2728L22.3523 59.4193C22.3788 59.4392 22.4086 59.4575 22.4418 59.4742C22.4815 59.4977 22.5311 59.5177 22.5908 59.5343C22.618 59.542 22.6464 59.5478 22.6763 59.552C22.7121 59.557 22.7497 59.5594 22.7895 59.5594C22.998 59.5594 23.1636 59.5093 23.2861 59.4092C23.4086 59.3057 23.4701 59.1722 23.4701 59.0087C23.4701 58.8785 23.4302 58.7633 23.3509 58.6633C23.3445 58.6546 23.3376 58.6459 23.3305 58.637C23.3235 58.6285 23.316 58.6196 23.3083 58.6108C23.28 58.5788 23.2468 58.546 23.2089 58.5124C23.142 58.4531 23.0602 58.3916 22.9633 58.3279L22.71 58.1525C22.6037 58.0826 22.5146 58.0102 22.4421 57.9356C22.3903 57.8822 22.3471 57.8278 22.3126 57.7721C22.267 57.6958 22.2346 57.6133 22.2152 57.5251C22.2045 57.4765 22.1977 57.4261 22.1948 57.3737C22.1938 57.355 22.1934 57.3359 22.1934 57.3166C22.1934 57.0562 22.2877 56.8475 22.4766 56.6908C22.6684 56.5306 22.9317 56.4505 23.2663 56.4505C23.3064 56.4505 23.3422 56.4517 23.3739 56.4541C23.3847 56.455 23.3949 56.456 23.4047 56.4571C23.4137 56.458 23.4222 56.4593 23.4302 56.4605L23.4603 56.4625L23.4838 56.4637L23.5036 56.4646C23.5199 56.4652 23.5354 56.4655 23.5494 56.4655C23.5643 56.4655 23.5808 56.4641 23.5988 56.4613C23.6253 56.4574 23.6552 56.4503 23.6886 56.4404V57.0362Z" fill="#6F4E37"></path><path d="M24.5933 56.881H25.1547V59.4542C25.1547 59.581 25.1398 59.6779 25.1099 59.7446C25.0961 59.7793 25.0788 59.8094 25.0578 59.8352C25.0385 59.8589 25.0161 59.8787 24.9907 59.8948V59.9299H25.7457V59.8948C25.6927 59.8615 25.6514 59.8114 25.6216 59.7446C25.6076 59.7094 25.5973 59.6659 25.5908 59.614L25.588 59.5876L25.5853 59.5583C25.5848 59.5526 25.5847 59.5471 25.5844 59.5414L25.5837 59.5309L25.5832 59.5207L25.5826 59.5025L25.582 59.4739L25.5819 59.4542V56.881H26.1433C26.2658 56.881 26.3618 56.8976 26.4313 56.9311C26.4462 56.938 26.4603 56.9453 26.4734 56.9536C26.4925 56.9653 26.5099 56.9786 26.5255 56.9933C26.5521 57.0185 26.5737 57.0478 26.5902 57.0812H26.63V56.4404C26.5835 56.4505 26.5306 56.4587 26.471 56.4655C26.4113 56.4721 26.3502 56.4754 26.2872 56.4754H24.4492C24.3897 56.4754 24.3284 56.4721 24.2654 56.4655C24.2059 56.4587 24.1527 56.4505 24.1064 56.4404V57.0812H24.1462C24.1672 57.0389 24.1954 57.0032 24.2312 56.9744C24.2517 56.9578 24.2746 56.9432 24.3002 56.9311C24.373 56.8976 24.4708 56.881 24.5933 56.881Z" fill="#6F4E37"></path><path fill-rule="evenodd" clip-rule="evenodd" d="M28.0447 56.4756C28.4453 56.4756 28.7883 56.544 29.073 56.6809C29.3611 56.8177 29.5814 57.0163 29.7337 57.2767C29.8894 57.5337 29.9672 57.8425 29.9672 58.203C29.9672 58.5633 29.8894 58.8736 29.7337 59.134C29.5814 59.3911 29.3611 59.5879 29.073 59.7247C28.7883 59.8617 28.4453 59.9301 28.0447 59.9301H26.9668V59.89C27.0198 59.8599 27.0612 59.8083 27.0909 59.7348C27.124 59.6614 27.1406 59.5579 27.1406 59.4244V56.9812C27.1406 56.9364 27.1389 56.8948 27.1351 56.8567C27.1275 56.7816 27.113 56.7196 27.0909 56.6709L27.0842 56.6551L27.0787 56.6433L27.0754 56.6365L27.067 56.6206C27.0643 56.6158 27.0615 56.6112 27.0585 56.6067C27.0332 56.5665 27.0027 56.5362 26.9668 56.5156V56.4756H28.0447ZM29.5199 58.203C29.5199 57.9358 29.4622 57.7039 29.3463 57.507C29.2894 57.4089 29.2212 57.322 29.1415 57.2464C29.0583 57.1675 28.9626 57.1009 28.8545 57.0463C28.6457 56.9362 28.3958 56.8812 28.1044 56.8812H27.5678V59.5245H28.1044C28.3958 59.5245 28.6457 59.4711 28.8545 59.3643C29.0663 59.2542 29.2303 59.1007 29.3463 58.9038C29.4622 58.7035 29.5199 58.4698 29.5199 58.203Z" fill="#6F4E37"></path><path d="M30.2451 59.6697C30.2451 59.7184 30.254 59.7628 30.2718 59.8032C30.2857 59.8347 30.3049 59.8638 30.3297 59.89C30.3892 59.9502 30.4639 59.98 30.5532 59.98C30.6394 59.98 30.7105 59.9502 30.7668 59.89C30.8265 59.83 30.8562 59.7565 30.8562 59.6697C30.8562 59.5863 30.8265 59.5146 30.7668 59.4544C30.7105 59.3944 30.6394 59.3643 30.5532 59.3643C30.4639 59.3643 30.3892 59.3944 30.3297 59.4544C30.2732 59.5146 30.2451 59.5863 30.2451 59.6697Z" fill="#6F4E37"></path><path d="M38.9379 59.4542C38.9379 59.581 38.9528 59.6779 38.9826 59.7446C39.0158 59.8114 39.0588 59.8615 39.1118 59.8948V59.9299H38.3319V59.8948C38.3668 59.8741 38.3969 59.8468 38.4216 59.813C38.4366 59.7926 38.4497 59.7698 38.461 59.7446C38.4941 59.6779 38.5108 59.581 38.5108 59.4542V57.0362L37.7557 57.4016H37.7158V56.9861L38.8982 56.4404H38.9379V59.4542Z" fill="#6F4E37"></path><path fill-rule="evenodd" clip-rule="evenodd" d="M41.1865 58.533L40.3222 59.8947V59.9298H40.799L41.6982 58.4429C41.8141 58.2527 41.8969 58.0841 41.9466 57.9372C41.9691 57.8693 41.9863 57.8018 41.9987 57.7346C42.0136 57.6531 42.021 57.5721 42.021 57.4917C42.021 57.2781 41.9714 57.0896 41.872 56.9259C41.776 56.7624 41.6419 56.6355 41.4697 56.5455C41.3808 56.4972 41.2851 56.4614 41.183 56.4381C41.0873 56.4162 40.9858 56.4053 40.8784 56.4053C40.7636 56.4053 40.6556 56.4179 40.5544 56.4431C40.4573 56.4672 40.3667 56.5031 40.2824 56.5505C40.1878 56.6018 40.1043 56.6646 40.0318 56.739C39.9721 56.8002 39.9199 56.8692 39.8751 56.946C39.7756 57.1128 39.7261 57.3065 39.7261 57.5267C39.7261 57.5931 39.7308 57.6573 39.7402 57.7191C39.7471 57.7631 39.7563 57.8058 39.7677 57.8475C39.7907 57.9302 39.8233 58.0086 39.8651 58.0826C39.9578 58.2461 40.0854 58.3745 40.2476 58.4681C40.41 58.5614 40.5936 58.608 40.799 58.608C40.9348 58.608 41.064 58.5831 41.1865 58.533ZM41.5989 57.5117C41.5989 57.566 41.5941 57.6179 41.5846 57.6675C41.5697 57.7464 41.5429 57.8196 41.5044 57.8871C41.4416 57.9974 41.3554 58.0841 41.2461 58.1475C41.1368 58.2077 41.011 58.2377 40.8686 58.2377C40.7261 58.2377 40.602 58.2077 40.496 58.1475C40.39 58.0875 40.3055 58.004 40.2427 57.8972C40.183 57.7871 40.1532 57.6636 40.1532 57.5267C40.1532 57.3833 40.183 57.258 40.2427 57.1512C40.3055 57.0444 40.3917 56.961 40.5011 56.9009C40.6103 56.8376 40.7361 56.8059 40.8784 56.8059C41.0175 56.8059 41.1402 56.8359 41.2461 56.8959C41.3554 56.9561 41.4416 57.0395 41.5044 57.1463C41.5347 57.1962 41.5578 57.2505 41.5736 57.3092C41.5904 57.3717 41.5989 57.4392 41.5989 57.5117Z" fill="#6F4E37"></path><path d="M63.7145 43.6309C63.7145 43.9945 63.4221 44.2892 63.0613 44.2892C62.7005 44.2892 62.4082 43.9945 62.4082 43.6309C62.4082 43.2673 62.7005 42.9727 63.0613 42.9727C63.4221 42.9727 63.7145 43.2673 63.7145 43.6309Z" fill="#6F4E37"></path></g><defs><clipPath id="clip0_45_387"><rect width="64" height="60" fill="white"></rect></clipPath></defs></svg>