<svg xmlns="http://www.w3.org/2000/svg" width="40" height="50" viewBox="0 0 40 50" fill="none"><g clip-path="url(#clip0_49_1056)"><path d="M19.201 0C8.69364 0 0.175781 8.51785 0.175781 19.0251V42.0895C0.314527 41.6507 0.48672 41.2039 0.697256 40.7475C0.733046 40.6699 0.768864 40.5938 0.804712 40.5188V19.0251C0.804712 8.8652 9.04099 0.62893 19.201 0.62893C29.3609 0.62893 37.5971 8.8652 37.5971 19.0251V34.9295C37.8092 34.9631 38.0196 35.011 38.2261 35.0718V19.0251C38.2261 8.51785 29.7083 0 19.201 0Z" fill="#6F4E37"></path><path d="M37.0996 34.8772V19.1823C37.0996 9.2829 29.0744 1.25781 19.1751 1.25781C9.27556 1.25781 1.25049 9.2829 1.25049 19.1823V39.6551C1.35493 39.4682 1.45973 39.2909 1.56495 39.1226V19.1823C1.56495 9.45657 9.44924 1.57227 19.1751 1.57227C28.9008 1.57227 36.785 9.45657 36.785 19.1823V34.8725C36.8896 34.8703 36.9946 34.8719 37.0996 34.8772Z" fill="#6F4E37"></path><path d="M36.3208 33.7373V34.9086C36.2681 34.9157 36.2157 34.9241 36.1636 34.9334V34.2412C36.2093 34.1092 36.2643 33.9317 36.3208 33.7373Z" fill="#6F4E37"></path><path d="M35.7705 35.0266V34.8701C35.7208 34.9219 35.6682 34.9719 35.6133 35.0204V35.0776C35.6653 35.0594 35.7177 35.0424 35.7705 35.0266Z" fill="#6F4E37"></path><path d="M35.7705 31.2284C35.7228 31.256 35.6705 31.287 35.6133 31.3216V18.4746H35.7705V31.2284Z" fill="#6F4E37"></path><path d="M36.1636 31.0316C36.2329 31.008 36.2791 31.004 36.3208 31.008V18.4746H36.1636V31.0316Z" fill="#6F4E37"></path><path d="M35.1445 31.6146L35.2202 31.5664V18.4746H35.063V31.667L35.1445 31.6146Z" fill="#6F4E37"></path><path d="M34.6699 31.9246V18.4746H34.5127V32.0305C34.5646 31.9952 34.6177 31.9595 34.6699 31.9246Z" fill="#6F4E37"></path><path d="M34.1197 18.4746V32.3161L34.1082 32.3261L34.0962 32.3372C34.0494 32.3819 34.0049 32.4271 33.9624 32.473V18.4746H34.1197Z" fill="#6F4E37"></path><path d="M33.9624 36.5956V36.1969C34.0103 36.1525 34.0628 36.1082 34.1197 36.0635V36.3442C34.0845 36.3999 34.048 36.4581 34.0102 36.5187L33.9697 36.584L33.9624 36.5956Z" fill="#6F4E37"></path><path d="M33.5694 18.4746V32.9965L33.552 33.0259C33.538 32.6182 33.5032 32.209 33.4121 31.8056V18.4746H33.5694Z" fill="#6F4E37"></path><path d="M33.0189 30.7654V18.4746H32.8618V30.515C32.9176 30.5959 32.9701 30.6792 33.0189 30.7654Z" fill="#6F4E37"></path><path d="M32.4685 35.2133V34.3556C32.4228 34.315 32.3689 34.2682 32.3113 34.2188V34.9394C32.3495 34.9986 32.387 35.059 32.4237 35.1206L32.4433 35.158L32.4685 35.2133Z" fill="#6F4E37"></path><path d="M32.4685 30.0351V18.4746H32.3113V29.879C32.365 29.9299 32.4174 29.9819 32.4685 30.0351Z" fill="#6F4E37"></path><path d="M31.9184 18.4746V29.5435C31.8666 29.5035 31.8142 29.4641 31.7612 29.4256V18.4746H31.9184Z" fill="#6F4E37"></path><path d="M31.3679 29.1601V18.4746H31.2107V29.0631C31.2633 29.0949 31.3158 29.1272 31.3679 29.1601Z" fill="#6F4E37"></path><path d="M30.8175 18.4746V28.8376C30.7652 28.8089 30.7127 28.7806 30.6604 28.7527V18.4746H30.8175Z" fill="#6F4E37"></path><path d="M30.2674 28.55V18.4746H30.1101V28.4715C30.1621 28.4974 30.2146 28.5235 30.2674 28.55Z" fill="#6F4E37"></path><path d="M29.7169 18.4746V28.2776L29.5598 28.2V18.4746H29.7169Z" fill="#6F4E37"></path><path d="M29.5598 30.7188C29.6112 30.8672 29.6646 31.0167 29.7169 31.1594V32.982C29.6649 32.9684 29.6126 32.9556 29.5598 32.9439V30.7188Z" fill="#6F4E37"></path><path d="M29.1668 29.4619C28.977 28.7432 29.0096 28.4852 29.1668 28.3274V18.4746H29.0095V32.8564C29.0623 32.8615 29.1146 32.8675 29.1668 32.8742V29.4619Z" fill="#6F4E37"></path><path d="M28.6165 32.8335V18.4746H28.4592V21.8956C28.4876 21.9601 28.5077 22.0289 28.5194 22.1021L28.5242 22.1327V22.1637C28.5242 22.3371 28.5025 22.5119 28.4592 22.6875V32.92C28.4712 32.9109 28.4837 32.9022 28.4967 32.8944L28.5975 32.8329L28.6165 32.8335Z" fill="#6F4E37"></path><path d="M28.6165 34.1197C28.5585 34.0168 28.5054 33.9162 28.4592 33.8203V37.9848C28.5112 37.9339 28.5636 37.8838 28.6165 37.8347V34.1197Z" fill="#6F4E37"></path><path d="M28.0662 38.392V23.5693C28.0176 23.645 27.9652 23.7205 27.9089 23.7961V38.5648C27.9611 38.5068 28.0134 38.4491 28.0662 38.392Z" fill="#6F4E37"></path><path d="M27.5156 24.2598V39.0125L27.3584 39.1943V24.4183C27.4125 24.3659 27.465 24.313 27.5156 24.2598Z" fill="#6F4E37"></path><path d="M26.9656 39.6424V24.7695C26.914 24.8122 26.8615 24.8542 26.8083 24.8954V39.8158C26.8611 39.7584 26.9135 39.7005 26.9656 39.6424Z" fill="#6F4E37"></path><path d="M26.4151 25.1807V40.2248C26.3631 40.2759 26.3107 40.3262 26.2578 40.3755V25.283C26.3106 25.2498 26.3629 25.2157 26.4151 25.1807Z" fill="#6F4E37"></path><path d="M25.8648 40.7236V25.5322C25.8153 25.5641 25.7626 25.5966 25.7075 25.6297V40.8564C25.7599 40.8127 25.8124 40.7685 25.8648 40.7236Z" fill="#6F4E37"></path><path d="M25.3145 25.8574V41.173C25.2621 41.2137 25.2097 41.2537 25.1572 41.2933V25.9469C25.2075 25.9182 25.2554 25.8909 25.2999 25.8655L25.3096 25.8602L25.3145 25.8574Z" fill="#6F4E37"></path><path d="M24.7642 41.5788V26.1797C24.7117 26.2119 24.6591 26.2451 24.6069 26.2787V29.1442C24.6251 29.2207 24.6373 29.2902 24.6433 29.3526C24.6712 29.6467 24.6578 29.9296 24.6069 30.1897V41.6868C24.6594 41.6513 24.7118 41.6153 24.7642 41.5788Z" fill="#6F4E37"></path><path d="M24.2139 31.0771V41.9416C24.1616 41.9741 24.1093 42.0063 24.0566 42.038V31.2446C24.1128 31.1935 24.1651 31.1375 24.2139 31.0771Z" fill="#6F4E37"></path><path d="M23.6636 41.8279V31.4971C23.6142 31.5179 23.5618 31.5366 23.5063 31.5524V41.5484C23.5586 41.6434 23.6105 41.7367 23.6636 41.8279Z" fill="#6F4E37"></path><path d="M23.1133 36.9932V40.8595C23.0634 40.7798 23.0113 40.7007 22.9561 40.6223V37.2329C23.0128 37.1564 23.0653 37.0763 23.1133 36.9932Z" fill="#6F4E37"></path><path d="M22.563 40.1465V37.6475C22.5123 37.6891 22.4599 37.7283 22.4058 37.7651V39.9935C22.459 40.0427 22.5115 40.0936 22.563 40.1465Z" fill="#6F4E37"></path><path d="M22.0127 37.9746V39.6637C21.9605 39.6232 21.908 39.5835 21.8555 39.5444V38.0287C21.8735 38.0241 21.8902 38.0192 21.9057 38.014C21.9418 38.0019 21.9775 37.9887 22.0127 37.9746Z" fill="#6F4E37"></path><path d="M21.4624 39.2536V38.085C21.4138 38.0895 21.3614 38.0938 21.3052 38.0985V39.1331C21.3564 39.1735 21.4089 39.2135 21.4624 39.2536Z" fill="#6F4E37"></path><path d="M20.9119 38.1289V38.7865C20.8565 38.7295 20.8039 38.6707 20.7546 38.6089V38.1422C20.8076 38.1374 20.8608 38.133 20.9119 38.1289Z" fill="#6F4E37"></path><path d="M9.35548 22.487V23.599C9.30448 23.6351 9.25202 23.6716 9.19824 23.7085V18.4746H9.35548V19.4447C9.18628 20.3115 9.2589 21.243 9.33034 22.1592C9.3388 22.2679 9.34733 22.3772 9.35548 22.487Z" fill="#6F4E37"></path><path d="M23.1133 34.6028C23.0617 34.5294 23.0082 34.4583 22.9561 34.3896V31.9823C23.0044 31.8674 23.0309 31.7419 23.0227 31.6064C23.0536 31.6078 23.0837 31.6082 23.1133 31.6078V34.6028Z" fill="#6F4E37"></path><path d="M22.9561 20.9322C23.0073 20.9696 23.0597 20.9997 23.1133 21.0217V18.4746H22.9561V20.9322Z" fill="#6F4E37"></path><path d="M23.662 21.034H23.6636V18.4746H23.5063V21.0394L23.662 21.034Z" fill="#6F4E37"></path><path d="M24.2139 21.018L24.0566 21.022V18.4746H24.2139V21.018Z" fill="#6F4E37"></path><path d="M24.6069 21.0106C24.6598 21.0099 24.7122 21.0092 24.7642 21.0089V18.4746H24.6069V21.0106Z" fill="#6F4E37"></path><path d="M25.3145 21.0095C25.2626 21.0089 25.2102 21.0084 25.1572 21.0081V18.4746H25.3145V21.0095Z" fill="#6F4E37"></path><path d="M25.7075 21.018C25.7606 21.0197 25.813 21.0216 25.8648 21.0239V18.4746H25.7075V21.018Z" fill="#6F4E37"></path><path d="M26.4151 21.0581C26.3636 21.0536 26.3111 21.0495 26.2578 21.0457V18.4746H26.4151V21.0581Z" fill="#6F4E37"></path><path d="M26.8083 21.1004C26.8618 21.1074 26.9143 21.1149 26.9656 21.1229V18.4746H26.8083V21.1004Z" fill="#6F4E37"></path><path d="M27.5156 21.24C27.465 21.2256 27.4126 21.212 27.3584 21.199V18.4746H27.5156V21.24Z" fill="#6F4E37"></path><path d="M28.0662 21.4701C28.0174 21.44 27.9649 21.4116 27.9089 21.3849V18.4746H28.0662V21.4701Z" fill="#6F4E37"></path><path d="M24.2139 26.5547C24.1573 26.5993 24.1044 26.6439 24.0566 26.6881V27.6642L24.0994 27.7671C24.1391 27.8628 24.1774 27.9551 24.2139 28.0442V26.5547Z" fill="#6F4E37"></path><path d="M22.563 18.4746V20.4884C22.5098 20.4074 22.4574 20.3196 22.4058 20.2265V18.4746H22.563Z" fill="#6F4E37"></path><path d="M22.0127 19.4105V18.4746H21.8555V19.0456C21.9081 19.169 21.9603 19.2911 22.0127 19.4105Z" fill="#6F4E37"></path><path d="M8.80519 18.4746V23.9706C8.75349 24.0044 8.70104 24.0384 8.64795 24.0726V18.4746H8.80519Z" fill="#6F4E37"></path><path d="M8.25489 24.3236V18.4746H8.09766V24.4234L8.25489 24.3236Z" fill="#6F4E37"></path><path d="M7.70434 18.4746V24.6734L7.54712 24.7742V18.4746H7.70434Z" fill="#6F4E37"></path><path d="M7.15405 25.0304V18.4746H6.99683V25.135C7.04906 25.1 7.10149 25.0651 7.15405 25.0304Z" fill="#6F4E37"></path><path d="M6.60376 18.4746V25.4047C6.55097 25.4419 6.49853 25.4791 6.44653 25.5166V18.4746H6.60376Z" fill="#6F4E37"></path><path d="M6.05348 25.81V18.4746H5.89624V25.9342C5.94793 25.8926 6.00037 25.8512 6.05348 25.81Z" fill="#6F4E37"></path><path d="M5.50318 18.4746V26.2692C5.44948 26.3179 5.39703 26.3669 5.34595 26.416V18.4746H5.50318Z" fill="#6F4E37"></path><path d="M4.95289 26.8346V18.4746H4.79565V27.0345C4.84503 26.9674 4.89753 26.9007 4.95289 26.8346Z" fill="#6F4E37"></path><path d="M4.95289 29.4383C4.89759 29.4101 4.84512 29.3792 4.79565 29.3457V35.9666C4.84785 35.9336 4.90027 35.9007 4.95289 35.868V29.4383Z" fill="#6F4E37"></path><path d="M4.40259 27.7592C4.36297 27.8745 4.33405 27.9911 4.31692 28.1092C4.2563 28.4481 4.31096 28.7071 4.40259 28.8982V36.2206C4.34999 36.2556 4.29757 36.291 4.24536 36.3269V18.4746H4.40259V27.7592Z" fill="#6F4E37"></path><path d="M3.85229 18.4746V36.608C3.79971 36.6474 3.74729 36.6874 3.69507 36.728V18.4746H3.85229Z" fill="#6F4E37"></path><path d="M3.302 37.052V18.4746H3.14478V37.1927C3.19701 37.1447 3.24943 37.0979 3.302 37.052Z" fill="#6F4E37"></path><path d="M2.75172 18.4746V37.5777C2.69916 37.6327 2.64674 37.689 2.59448 37.7467V18.4746H2.75172Z" fill="#6F4E37"></path><path d="M2.20143 38.2129V18.4746H2.04419V38.4185C2.09648 38.3481 2.14889 38.2796 2.20143 38.2129Z" fill="#6F4E37"></path><path d="M5.34595 29.5869V35.6252L5.50318 35.5288V29.6252C5.4494 29.6137 5.39696 29.6009 5.34595 29.5869Z" fill="#6F4E37"></path><path d="M5.89624 35.2863C5.94848 35.2538 6.00088 35.221 6.05348 35.1879V29.7025C6.00023 29.6981 5.9478 29.6933 5.89624 29.6875V35.2863Z" fill="#6F4E37"></path><path d="M6.44653 34.9356V29.7217C6.49837 29.7229 6.5508 29.7237 6.60376 29.7241V34.8316C6.5511 34.8667 6.4987 34.9013 6.44653 34.9356Z" fill="#6F4E37"></path><path d="M6.99683 29.7198V34.5625C7.04894 34.5257 7.10134 34.4883 7.15405 34.4503V29.7148C7.10128 29.7167 7.04885 29.7185 6.99683 29.7198Z" fill="#6F4E37"></path><path d="M7.54712 34.1568V29.6957C7.59928 29.6928 7.65171 29.6898 7.70434 29.6865V34.0345C7.65161 34.076 7.59919 34.1168 7.54712 34.1568Z" fill="#6F4E37"></path><path d="M8.09766 29.6611V33.7146C8.13641 33.682 8.17536 33.649 8.21451 33.6156C8.22783 33.6041 8.24131 33.5921 8.25489 33.5796V29.6504L8.09766 29.6611Z" fill="#6F4E37"></path><path d="M8.64795 33.1257V29.6238L8.80519 29.6133V32.9073C8.75227 32.9833 8.69976 33.0564 8.64795 33.1257Z" fill="#6F4E37"></path><path d="M9.19824 29.5899V32.3104C9.251 32.2268 9.3035 32.1428 9.35548 32.059V29.582C9.30359 29.5844 9.25115 29.587 9.19824 29.5899Z" fill="#6F4E37"></path><path d="M9.74854 31.424V29.5682C9.80177 29.5672 9.85421 29.5665 9.90577 29.5664V31.1764C9.85577 31.2539 9.80349 31.3364 9.74854 31.424Z" fill="#6F4E37"></path><path d="M10.2988 29.5762V30.6182C10.3532 30.5513 10.4053 30.4932 10.4561 30.4437V29.5875L10.4455 29.5867C10.3979 29.5824 10.349 29.5789 10.2988 29.5762Z" fill="#6F4E37"></path><path d="M10.8491 30.2111V29.6504C10.9096 29.666 10.9622 29.6836 11.0063 29.7029V30.1776C10.9567 30.186 10.9036 30.1961 10.8491 30.2111Z" fill="#6F4E37"></path><path d="M0.175781 47.4181C-0.155419 45.2336 -0.0864262 43.2171 0.977425 40.9111C2.38993 37.8494 3.79652 36.9874 5.54418 35.9164C6.39873 35.3928 7.3349 34.819 8.39307 33.9138C8.82137 33.5474 9.32231 32.7356 9.77137 32.008C10.166 31.3684 10.5208 30.7935 10.7509 30.6433C10.831 30.5909 10.9359 30.5739 11.0419 30.5568C11.3213 30.5118 11.609 30.4654 11.4734 29.7685C11.331 29.0369 9.83041 29.141 8.26834 29.2495C6.36991 29.3815 4.38058 29.5196 4.62814 28.1713C4.80226 26.93 6.65707 25.7533 8.24515 24.7458C8.79759 24.3953 9.31822 24.065 9.72405 23.76C9.73041 23.2199 9.68765 22.6713 9.64528 22.128C9.50243 20.2959 9.36424 18.5234 11.1311 17.333C12.8475 16.1766 16.5835 14.8428 18.5849 15.5076C20.0546 15.9959 20.7519 17.6354 21.3621 19.07C21.8639 20.2501 22.3069 21.2916 23.0723 21.4401C23.1909 21.4401 23.3731 21.4339 23.5989 21.426H23.6017C24.9665 21.379 27.9139 21.2775 28.0541 22.1628C28.0541 23.376 26.7039 24.5413 25.7343 25.091C25.5686 25.2156 25.3169 25.3588 25.0377 25.5175L25.0366 25.5181C24.3044 25.9344 23.3844 26.4574 23.3384 27.0304C23.3307 27.1264 23.483 27.4929 23.6597 27.9181L23.6606 27.9201C23.8841 28.458 24.1467 29.0895 24.1751 29.3883C24.2681 30.3688 23.8249 31.4306 22.692 31.1755C22.6751 31.1718 22.6609 31.1644 22.6489 31.1546C22.6263 31.301 22.5718 31.4179 22.5236 31.4929C22.6744 31.908 22.1828 32.2429 21.9423 32.4066C21.8686 32.4568 21.8181 32.4911 21.8175 32.5065C21.8171 32.5161 21.86 32.5516 21.9174 32.5989C22.0196 32.6833 22.168 32.8056 22.1978 32.8868C22.2725 33.0908 22.2568 33.3413 22.2416 33.5816C22.2275 33.8048 22.214 34.0191 22.2738 34.1798C22.3179 34.2985 22.4299 34.4465 22.5513 34.6069C22.725 34.8363 22.9181 35.0914 22.9583 35.3206C23.1234 36.2636 22.6147 37.3336 21.7033 37.6405C21.6003 37.6751 21.3121 37.6971 20.9966 37.7211C20.5019 37.7586 19.9391 37.8014 19.916 37.9068C20.1215 38.8118 20.7316 39.2605 21.3585 39.7216L21.3601 39.7228C21.6771 39.956 21.9984 40.1924 22.2738 40.4926C22.5953 40.8433 22.8149 41.244 23.0335 41.6428C23.2269 41.9951 23.4196 42.3469 23.6807 42.6604C24.6487 42.1373 25.525 41.4935 26.3429 40.7589C26.8113 40.3383 27.232 39.8518 27.6475 39.3713L27.6489 39.3696C28.8954 37.9284 30.0946 36.5415 32.3895 37.1461C32.2999 36.2955 31.7819 36.1628 31.1721 36.0065C30.748 35.8978 30.2795 35.7776 29.8795 35.3968C29.7199 35.2448 28.4131 33.3581 28.6246 33.2291C30.1154 33.282 31.2604 34.063 32.0091 35.3206L32.8459 37.1461C32.852 37.0093 32.8659 36.825 32.8818 36.6144C32.9408 35.8299 33.0274 34.6799 32.8459 34.2559C32.8223 34.2009 32.5789 33.9938 32.2498 33.7138L32.2481 33.7124C31.6011 33.162 30.6248 32.3315 30.3359 31.822C30.1384 31.4734 29.163 28.7596 29.3853 28.5895C29.4571 28.6251 29.5301 28.6611 29.6039 28.6974C30.7601 29.2661 32.117 29.9338 32.6938 31.1375C33.0838 31.9514 33.0881 32.8423 33.0925 33.736C33.0951 34.2815 33.0978 34.8281 33.1881 35.3588C33.2143 35.2324 33.2386 35.1073 33.2628 34.9835L33.2632 34.9805C33.4345 34.0999 33.5921 33.2891 34.291 32.6206C34.4526 32.466 36.1185 31.3796 36.2304 31.4038C36.5144 31.4648 35.7777 34.0248 35.66 34.2559C35.4474 34.6733 34.9632 34.9813 34.4767 35.2908C33.7357 35.7623 32.9891 36.2373 33.1881 37.1081C33.3333 36.9249 33.6035 37.047 33.7839 37.1286C33.8605 37.1633 33.921 37.1906 33.9487 37.184C33.9865 37.1753 34.1134 36.9719 34.2663 36.727L34.2669 36.7259C34.4684 36.403 34.7147 36.0083 34.8615 35.8911C36.3005 34.7424 38.6995 35.299 39.9194 36.5376C39.4211 36.5736 38.9385 36.7471 38.4611 36.919C38.071 37.0593 37.6842 37.1984 37.2954 37.2601C37.0985 37.2914 36.7118 37.2864 36.2696 37.2808C35.3047 37.2684 34.0762 37.2528 33.9867 37.6025C33.8974 38.1368 34.4041 38.4275 34.8569 38.6873C35.1813 38.8733 35.4781 39.0434 35.5079 39.2756C35.5236 39.3976 35.4271 39.6093 35.3387 39.8031C35.2653 39.964 35.1973 40.113 35.2036 40.1885C35.2049 40.2025 35.2436 40.2691 35.2959 40.3591L35.298 40.3629C35.4039 40.5449 35.5634 40.8194 35.584 40.949C35.77 42.1215 34.9905 42.643 34.1916 43.1776L34.1893 43.1793C34.0704 43.2588 33.9511 43.3386 33.8346 43.4209C33.7281 43.4961 33.6195 43.6073 33.5051 43.7244C33.2798 43.9551 33.0314 44.2095 32.7318 44.2575C32.4376 44.3048 32.1746 44.1916 31.938 44.0898C31.7568 44.0118 31.5909 43.9405 31.4389 43.9534C31.2361 43.9703 28.3606 46.3135 28.2824 46.5013C28.1994 46.7005 28.1874 47.0064 28.1754 47.3146C28.1626 47.6389 28.1499 47.9665 28.0542 48.1745C28.0189 48.2515 27.4969 48.8015 26.9336 49.371H37.5971V37.6194C37.8101 37.5755 38.0197 37.5139 38.2261 37.4455V49.9999H0.175781V47.4181Z" fill="#6F4E37"></path><path d="M36.7851 37.6792C36.8995 37.6795 37.0046 37.6786 37.0996 37.6757V48.7423H28.1633C28.314 48.5784 28.3916 48.4849 28.434 48.4279H28.4591V48.3921C28.4758 48.3667 28.4826 48.352 28.4882 48.34C28.5598 48.184 28.596 47.9994 28.6163 47.804V48.4279H29.0095V46.413C29.058 46.3702 29.1106 46.3245 29.1667 46.2764V48.4279H29.5598V45.9442C29.6111 45.9015 29.6637 45.858 29.717 45.8139V48.4279H30.1101V45.4925L30.2673 45.3656V48.4279H30.6605V45.0524C30.7138 45.0102 30.7663 44.969 30.8176 44.9289V48.4279H31.2107V44.6269C31.2671 44.5845 31.3198 44.5454 31.368 44.5102V48.4279H31.7611V44.4104C31.795 44.4244 31.8287 44.4389 31.8593 44.4521L31.9182 44.4774V48.4279H32.3113V44.616C32.3621 44.6289 32.4146 44.6396 32.4686 44.6476V48.4279H32.8617V44.6483L32.8708 44.647C32.9218 44.6387 32.9711 44.627 33.0188 44.6122V48.4279H33.412V44.4099C33.4667 44.3705 33.5191 44.3282 33.5692 44.2847V48.4279H33.9623V43.8996C34.0191 43.843 34.0725 43.7929 34.1196 43.7569V48.4279H34.5126V43.4884C34.5643 43.4537 34.617 43.4185 34.6698 43.3825V48.4279H35.063V43.0997C35.1161 43.0585 35.1686 43.016 35.2202 42.9722V48.4279H35.6132V42.5776C35.6695 42.509 35.7222 42.4371 35.7705 42.3617V48.4279H36.1636V37.6729L36.3208 37.6747V48.4279H36.7851V37.6792Z" fill="#6F4E37"></path><path d="M29.0095 37.4964V34.7539C29.0625 34.8333 29.1153 34.9107 29.1668 34.9847V37.3764C29.1138 37.4153 29.0613 37.4554 29.0095 37.4964Z" fill="#6F4E37"></path><path d="M29.5598 37.1163C29.6116 37.0858 29.6639 37.0564 29.7169 37.0283V35.7123C29.7063 35.7025 29.6958 35.6926 29.6852 35.6826C29.6748 35.6728 29.6289 35.616 29.5598 35.5254V37.1163Z" fill="#6F4E37"></path><path d="M30.2674 36.7903C30.2142 36.8083 30.1619 36.8274 30.1101 36.8476V36.0029C30.1624 36.0337 30.2149 36.0621 30.2674 36.0882V36.7903Z" fill="#6F4E37"></path><path d="M30.6604 36.6828C30.7122 36.6718 30.7645 36.662 30.8175 36.6534V36.2985C30.7658 36.2833 30.7134 36.2669 30.6604 36.249V36.6828Z" fill="#6F4E37"></path><path d="M31.3679 36.6062C31.3149 36.6067 31.2626 36.6083 31.2107 36.6109V36.4033C31.2664 36.4177 31.3187 36.4317 31.3679 36.4456V36.6062Z" fill="#6F4E37"></path><path d="M31.9184 33.8829V34.4044C31.867 34.343 31.8146 34.2834 31.7612 34.2257V33.748C31.8132 33.7928 31.8656 33.8378 31.9184 33.8829Z" fill="#6F4E37"></path><path d="M31.3679 33.8471V33.4053C31.3147 33.358 31.2622 33.3111 31.2107 33.2646V33.7193C31.2638 33.7605 31.3163 33.8031 31.3679 33.8471Z" fill="#6F4E37"></path><path d="M30.8175 32.8982V33.4489C30.7658 33.4174 30.7134 33.3871 30.6604 33.3579V32.7422C30.7108 32.7934 30.7633 32.8454 30.8175 32.8982Z" fill="#6F4E37"></path><path d="M30.2674 33.1678V32.3027C30.2071 32.2263 30.1544 32.1525 30.1101 32.082V33.1058C30.163 33.1254 30.2155 33.146 30.2674 33.1678Z" fill="#6F4E37"></path><path d="M31.8102 36.6271C31.7947 36.6162 31.7784 36.6057 31.7612 36.5957V36.6225L31.8102 36.6271Z" fill="#6F4E37"></path><path d="M34.5127 37.9008C34.5494 37.9509 34.6017 38.0011 34.6699 38.0545V37.7236C34.6108 37.7323 34.5578 37.7421 34.5127 37.7535V37.9008Z" fill="#6F4E37"></path><path d="M35.063 38.3092V37.6878C35.1142 37.685 35.1667 37.6827 35.2202 37.6807V38.3998L35.1294 38.3475L35.063 38.3092Z" fill="#6F4E37"></path><path d="M35.6133 37.6718V38.6572C35.6705 38.7028 35.7237 38.751 35.7705 38.803V37.6709C35.7188 37.671 35.6662 37.6713 35.6133 37.6718Z" fill="#6F4E37"></path><path d="M35.7691 39.9758L35.7705 39.9727V40.2628L35.7203 40.1758L35.7138 40.1645L35.7105 40.159L35.7015 40.1434L35.6978 40.137C35.7185 40.0869 35.7466 40.0252 35.7691 39.9758Z" fill="#6F4E37"></path><path d="M20.6461 27.7667L20.5627 27.6777C20.5909 27.7115 20.6186 27.7405 20.6461 27.7667Z" fill="#6F4E37"></path><path d="M19.916 31.5557L19.7639 31.6697C19.7842 31.6037 19.9203 31.5642 19.916 31.5557Z" fill="#F4F0E9"></path><path d="M23.1102 27.7903L22.1976 28.1707L22.9201 27.448L21.5511 28.5128V27.448C21.3031 27.8534 21 28.1044 20.6457 27.7652L21.1328 28.2847C20.6392 28.4587 20.3071 28.3559 19.9538 28.1325C19.9467 28.128 19.8601 28.2634 19.8017 28.2087C19.589 28.009 19.4885 27.6295 19.6496 27.372C19.2448 27.4983 18.8235 27.6889 18.3946 27.5622C19.4995 27.2187 20.66 26.4879 21.8552 26.7637C21.9756 26.6833 21.9927 26.6033 21.8552 26.5354C21.4174 26.3192 19.8912 26.892 19.8397 26.8015C19.8348 26.7932 20.1896 26.6798 19.8777 26.6114C19.3048 27.0883 18.6361 26.6984 18.0143 26.4973L19.1552 26.6494C18.9076 26.2873 18.3838 26.5104 18.2045 26.079C18.0616 26.2324 17.1493 27.472 17.0636 27.448C16.9358 27.4122 17.1803 27.2119 17.0636 27.1438C17.0485 27.135 16.8716 27.4243 16.8735 27.1818C17.3065 26.5033 17.8926 26.0795 18.0523 25.2424C17.9101 25.1662 15.0492 25.9659 14.934 26.079C14.7467 26.2628 15.0462 26.5045 14.7818 26.6875C14.6893 26.5498 14.3593 26.4075 14.2113 26.5734C14.2738 26.936 14.448 26.5707 14.5156 26.6495C14.7381 26.9089 14.4315 27.0807 14.4396 27.1059C14.4642 27.1828 14.6461 27.1235 14.6677 27.1439C14.7046 27.053 14.7185 26.7623 14.896 26.8017C15.004 27.126 14.712 28.1844 14.7438 28.3228C14.7738 28.4534 15.2647 28.6623 15.2762 28.8552C15.2821 28.9552 15.0001 29.9205 15.0481 30.1482C15.0576 30.1937 15.5605 30.6887 15.5805 30.9088C15.6247 31.3975 14.94 32.6049 15.2002 33.2665L15.5043 31.9735C15.4537 32.6259 15.2211 33.4229 15.7706 33.913C15.8061 33.9447 16.2536 34.0058 16.3411 34.1793C16.4063 34.3088 16.2852 35.259 16.6072 35.5103C16.8161 35.2634 16.4146 34.4082 16.7975 34.3314C16.849 35.054 16.5216 35.6904 17.4058 35.9287L14.0593 35.3963C14.2638 35.5198 14.554 35.6123 14.782 35.6624C15.5442 35.8299 17.3465 35.9088 17.9763 36.1948C18.1113 36.2562 18.5703 37.4117 18.3946 36.2709C18.0556 35.9033 17.6573 35.3595 17.6721 34.8258C17.8808 35.3177 18.3107 35.7257 18.3946 36.2709C18.3946 36.2708 18.3947 36.271 18.3946 36.2709C18.5793 36.4712 18.989 36.7392 19.1932 36.9554L18.9651 36.1948C19.2186 36.6653 19.6686 36.9344 20.1819 37.0314H19.1172L18.6988 36.7653C18.8132 37.2534 19.3423 37.1194 19.5736 37.1835C20.0453 37.3144 21.1046 37.514 21.6271 37.2595C21.9 37.1268 21.8939 36.7537 21.9316 36.7274C21.979 36.6943 22.4286 37.0615 22.426 36.0809C21.8228 35.1742 21.5958 33.8114 20.9428 33.1527L20.7527 33.2668C20.7518 33.1598 20.6987 32.5373 20.6766 32.5062C20.5951 32.3908 20.3612 32.6858 20.3723 32.43C20.3851 32.143 21.3546 32.1579 21.3231 31.6314L21.3991 31.9357L21.6272 31.7075C21.656 32.3725 22.2883 31.7497 22.502 31.4414C22.5027 31.443 22.5033 31.4448 22.5041 31.4464C22.6305 31.0844 22.54 30.8709 22.54 30.8709C22.4113 30.8098 22.4906 31.0559 22.2357 31.023C21.9986 30.9924 21.7588 30.8399 21.4752 30.8709C21.3905 30.8802 20.0133 31.4775 19.9161 31.5555C19.858 31.4385 19.8946 31.3179 19.7258 31.4793C19.5813 31.7784 19.3985 32.3837 19.3835 32.7343C19.3571 33.3518 19.4738 34.5552 19.7637 35.092L20.2961 35.6244C19.5488 35.5147 19.3758 34.582 19.3073 33.9512C19.2631 33.5429 19.4243 31.776 19.3835 31.6694C19.3718 31.6392 18.9332 31.3824 18.8891 31.2512L18.8131 31.7835C18.5182 31.0878 18.0726 29.8077 17.8243 31.4033C17.75 31.2393 17.8485 30.8103 17.5581 31.0609C17.8031 30.4293 17.2655 30.6669 17.1778 30.4524C17.1646 30.4199 17.5178 29.8643 16.9497 30.1482C17.1281 29.9374 17.407 29.1434 17.0257 29.3115L17.1778 28.5509L17.8243 28.8172L17.3298 28.3227L17.9383 28.3988L17.406 28.0185C18.367 28.2677 17.737 28.0113 17.33 27.7143L18.0145 27.7903L17.406 27.486C17.8077 27.5517 18.2455 27.7177 17.7482 27.2959C18.3472 27.2087 18.1756 27.6027 18.5468 27.7903L18.2426 27.9424L18.9271 28.0945L18.1665 28.2467L19.1552 28.4748L18.1665 28.5509L19.6877 28.8552C19.327 29.0958 18.3962 28.5045 18.2046 28.8933L20.2201 29.2355L18.2046 29.0454C18.4402 29.3545 19.8024 29.5128 20.2581 29.5018C20.6991 29.491 21.2061 29.4239 21.5131 29.0834C21.5556 30.8323 18.7675 30.0577 17.6721 29.9582L17.9763 30.1863C18.7388 30.2408 19.569 30.4183 20.3341 30.3384C21.1512 30.253 21.565 29.7385 22.3877 29.7299L22.5778 29.8439C22.168 29.8863 21.9913 30.0302 21.5891 30.2242L22.3116 30.3383H21.475C21.6573 30.496 23.1722 30.6452 23.4524 30.5664C24.4333 30.2913 23.3646 28.3879 23.1102 27.7903ZM15.2385 28.4372C15.1527 27.9294 15.1797 27.3869 15.3906 26.9159L15.2385 28.4372ZM16.0752 26.4595L15.9231 28.0568L15.8091 27.2582L16.0752 26.4595ZM16.0752 28.361C15.9625 29.088 15.6908 29.7378 15.8471 30.4907C15.4086 30.2762 15.9422 28.3267 16.0752 28.361ZM15.847 33.609C15.4088 33.0213 15.6792 32.1073 15.9231 31.4794C15.8881 32.2309 15.6002 32.8465 15.847 33.609ZM16.0752 33.4569C15.949 32.9112 15.9822 32.284 16.3033 31.7837L16.0752 33.4569ZM16.5316 30.4147L16.3415 29.616L16.5316 28.285V30.4147ZM19.764 31.6695C19.7808 31.6147 19.8765 31.5785 19.9063 31.5628L19.764 31.6695ZM21.0951 35.0542C21.5388 35.3143 21.7718 35.8148 22.0838 36.195C21.6355 35.9409 21.3601 35.475 21.0951 35.0542ZM20.7147 33.9894L21.3992 34.75C21.1243 34.8462 20.6341 34.0267 20.7147 33.9894ZM21.4373 36.6134C21.1455 36.685 20.4652 36.2435 20.5627 35.8908L21.4373 36.6134ZM20.3344 31.4794L20.0302 32.7724C19.9667 32.3104 20.1434 31.8887 20.3344 31.4794ZM19.9541 33.609C20.0077 34.2753 20.325 34.7274 20.6386 35.2823C20.0777 34.9893 19.8305 34.1875 19.9541 33.609ZM19.0415 35.2063C19.4041 36.0584 20.1662 36.3713 20.8287 36.9177C20.7137 37.1478 18.7332 35.77 19.0415 35.2063ZM18.357 32.3922C18.5218 33.1997 18.4891 34.0058 18.6232 34.826C18.4875 34.4672 18.3661 34.1908 18.319 33.7992L18.357 32.3922ZM17.064 35.5865C16.9033 35.2094 16.9201 34.768 16.9878 34.3697C17.1672 34.657 17.1527 35.2683 17.064 35.5865ZM17.5963 32.3922L18.0527 34.826C17.8455 34.8928 17.4105 32.6297 17.5963 32.3922ZM17.5203 35.7387C17.3341 35.8275 17.1372 34.6123 17.2161 34.4457L17.5203 35.7387ZM17.2161 33.9893C16.8177 33.2382 16.378 32.4517 16.8357 31.6315L17.2161 33.9893ZM18.2048 26.7638C18.347 26.735 19.1317 27.0762 19.3838 27.03C19.2107 27.1499 18.1081 26.9414 18.0908 26.8779C18.1312 26.8524 18.1766 26.7695 18.2048 26.7638ZM17.7485 26.992L18.8513 27.1822C18.6918 27.3795 17.8488 27.2615 17.7485 26.992ZM22.8063 29.0835L23.2247 28.8174C23.4345 28.9024 22.8813 29.2485 22.8063 29.0835ZM22.9966 27.9047C23.0458 28.1342 22.6405 28.1798 23.1106 28.1709L22.6162 28.5132C22.245 28.1909 22.7392 28.1338 22.9966 27.9047ZM22.6542 28.9315L23.0726 28.5893C23.3967 28.6653 22.6751 29.0219 22.6542 28.9315ZM23.4527 30.4147C23.3624 30.346 23.4493 30.1252 23.4147 30.0723C23.4042 30.0564 23.1147 29.8627 23.1104 29.8442C23.0498 29.5824 23.5777 29.6018 22.8062 29.4639L23.2245 29.1217C23.3407 29.115 23.9282 30.299 23.4527 30.4147Z" fill="#F4F0E9"></path><path d="M21.9316 32.9248L22.388 35.6629C22.2875 35.3931 21.4354 33.8314 21.4373 33.7234C21.4413 33.5028 21.8206 33.1467 21.9316 32.9248Z" fill="#F4F0E9"></path><path d="M17.6726 30.1865L21.1332 30.3767C20.4537 30.5539 19.7407 30.658 19.0416 30.4908C19.377 30.7989 20.0874 30.6704 20.4867 30.6429C20.3221 30.889 19.2882 31.2055 19.8022 30.795C19.1471 30.7029 18.1727 30.5998 17.6726 30.1865Z" fill="#F4F0E9"></path><path d="M11.6638 32.3926C12.2533 32.4818 12.8338 32.6366 13.4131 32.7728C13.9174 32.8915 14.6434 32.9556 15.0484 33.2672C13.9676 32.9827 12.6261 33.0246 11.6638 32.3926Z" fill="#F4F0E9"></path><path d="M17.4443 29.502C18.6527 29.9757 19.9437 29.8815 21.2092 29.8442L20.5627 30.0345C19.6198 29.9601 18.1531 30.2101 17.4443 29.502Z" fill="#F4F0E9"></path><path d="M12.7288 33.9902L16.1894 34.7887L13.3371 34.3705L12.7288 33.9902Z" fill="#F4F0E9"></path><path d="M18.2809 29.4268L21.3613 29.5408C20.5913 29.8225 19.3767 29.8311 18.5852 29.6549C18.5306 29.6426 18.1386 29.5621 18.2809 29.4268Z" fill="#F4F0E9"></path><path d="M13.1851 34.4463L16.2654 35.0928C15.5494 35.1347 14.3449 34.9482 13.6414 34.7505C13.4931 34.7088 13.1809 34.6533 13.1851 34.4463Z" fill="#F4F0E9"></path><path d="M13.4893 34.8262L16.4936 35.5487C15.5616 35.3499 14.1749 35.407 13.4893 34.8262Z" fill="#F4F0E9"></path><path d="M14.74 36.1221L17.791 36.6108C16.8465 36.4846 15.4684 36.6484 14.74 36.1221Z" fill="#F4F0E9"></path><path d="M15.2339 36.5488L17.802 36.8427C17.0096 36.7766 15.89 37.026 15.2339 36.5488Z" fill="#F4F0E9"></path><path d="M17.9523 37.7452C17.3638 37.756 16.7516 37.7622 16.2549 37.6309C16.353 37.7492 16.4566 37.8641 16.565 37.9749L17.9321 38.02L17.9523 37.7452Z" fill="#F4F0E9"></path><path d="M17.9216 38.1624C17.5404 38.2283 17.1061 38.1664 16.6821 38.0918C16.8056 38.2108 16.9344 38.3245 17.0676 38.432L17.8999 38.4595L17.9216 38.1624Z" fill="#F4F0E9"></path><path d="M17.8875 38.6292C17.6977 38.6424 17.498 38.6307 17.2954 38.6064C17.4788 38.7403 17.6687 38.8624 17.8625 38.9713L17.8875 38.6292Z" fill="#F4F0E9"></path><path d="M17.9456 37.5342C17.9592 37.4882 17.9273 37.4412 17.8796 37.437L15.9231 37.2607C16.0446 37.4447 16.2536 37.548 16.474 37.5536L17.8707 37.5887C17.9051 37.5895 17.9357 37.5672 17.9456 37.5342Z" fill="#F4F0E9"></path><path d="M21.1711 27.0684C20.9742 27.2301 20.9172 27.3437 20.943 27.6009C19.371 27.6272 20.0894 27.2522 21.1711 27.0684Z" fill="#F4F0E9"></path><path d="M22.5403 35.1309C22.7257 35.2565 22.7537 36.1616 22.6163 36.1957C22.3604 35.933 22.5172 35.483 22.5403 35.1309Z" fill="#F4F0E9"></path><path fill-rule="evenodd" clip-rule="evenodd" d="M16.6836 47.4523L14.9308 44.4708C15.4309 45.3568 15.8848 46.2499 16.1891 47.11C16.1953 47.1273 16.2033 47.1477 16.2121 47.1703C16.2665 47.3087 16.3538 47.5302 16.2273 47.6044L12.5765 40.9874L15.4666 46.9959L11.8158 40.6832L14.7821 46.3114L11.7018 41.3295C9.98722 39.3965 7.53046 37.9422 4.89972 37.9069H6.22558L4.43823 37.4887C5.21473 37.385 5.91174 37.5999 6.62959 37.8212C6.72267 37.8499 6.81614 37.8788 6.91009 37.9069C6.52998 37.5663 6.05711 37.46 5.58297 37.3535C5.2965 37.2892 5.00954 37.2247 4.74232 37.1084L7.21418 37.6788L5.1226 36.8042L7.51843 37.4505C7.57857 37.2822 5.73966 36.5812 5.50286 36.652C5.56686 36.3902 6.32762 36.6853 6.94609 36.9253C7.36576 37.088 7.71992 37.2255 7.74657 37.1463L5.88313 36.2717C6.44146 36.3148 6.94099 36.5447 7.43933 36.774C7.66686 36.8789 7.89421 36.9835 8.12683 37.0703C8.19901 36.9118 7.68777 36.6862 7.19382 36.4682C6.76583 36.2794 6.35082 36.0962 6.33949 35.9674L8.46913 36.804C8.15781 36.415 7.69264 36.2394 7.23493 36.0665C7.08612 36.0103 6.93746 35.9542 6.79578 35.8913L6.87181 35.7392L9.15357 36.8039C9.12267 36.6268 8.85467 36.4509 8.70781 36.3545L8.69719 36.3475C8.50624 36.2222 8.26803 36.1239 8.02606 36.0242C7.68431 35.8833 7.33493 35.7392 7.09996 35.5109L9.53383 36.7279C9.30419 36.2325 8.81999 35.9878 8.33989 35.7453C8.02809 35.5877 7.71803 35.4309 7.48069 35.207C9.98234 36.1063 11.7217 37.9103 13.5008 39.7557C13.8483 40.116 14.1975 40.4783 14.554 40.8353C14.6998 40.9814 14.8681 41.0939 15.0425 41.2105C15.2745 41.3654 15.5174 41.5277 15.7329 41.786C16.5181 42.7275 17.2631 44.4455 17.8231 45.737L17.8239 45.7385L17.8254 45.742C17.9193 45.9584 18.0079 46.1629 18.0906 46.3495C17.7598 45.9539 17.508 45.4565 17.2549 44.9565C16.9665 44.3868 16.6763 43.8137 16.2653 43.3833L17.7484 46.8439L14.744 41.7099L17.5201 47.3002L14.2496 41.5198L17.1398 47.6044C16.8271 47.0124 16.5211 46.3935 16.212 45.7684C15.5223 44.3729 14.8163 42.9452 13.9834 41.7099C13.9834 41.7099 13.9806 41.7059 13.9779 41.7014C13.9334 41.6313 13.6498 41.1845 13.6031 41.4057L16.6836 47.4523ZM12.9946 41.1775L13.9869 42.8652L13.946 42.7972C13.6113 42.2399 13.2849 41.6964 12.9946 41.1775Z" fill="#F4F0E9"></path><path d="M4.70435 37.9069H4.89971C4.83468 37.906 4.76952 37.9061 4.70435 37.9069Z" fill="#F4F0E9"></path><path d="M16.3414 41.9761C16.2399 41.7246 16.1079 41.5002 15.9764 41.277C15.8291 41.0266 15.6825 40.7776 15.5808 40.4931C16.1466 40.6852 19.0305 45.7406 18.7371 45.8552C18.5055 45.5277 18.3123 45.155 18.1181 44.7803C17.809 44.1843 17.4978 43.5838 17.0259 43.1551L18.3569 46.1595C18.0879 45.6797 17.8279 45.1922 17.5676 44.7043C17.1244 43.873 16.6803 43.0401 16.1893 42.2425C16.1573 42.1905 16.0664 42.0685 15.949 41.9113C15.5731 41.4073 14.9268 40.5406 15.0864 40.4551C15.3868 40.7413 15.6359 41.0695 15.8858 41.3987C16.0338 41.5937 16.1819 41.7888 16.3414 41.9761Z" fill="#F4F0E9"></path><path d="M15.999 40.3789C16.4933 40.5103 19.3899 45.4144 19.1175 45.5509L15.999 40.3789Z" fill="#F4F0E9"></path><path d="M16.9119 40.0742C18.0781 41.5858 19.0811 43.3251 19.8021 45.0941L18.2809 42.5842L16.9119 40.0742Z" fill="#F4F0E9"></path><path d="M19.0732 44.4177C18.3233 42.9434 17.5554 41.4336 16.4556 40.2266L19.4979 45.2464C19.3563 44.9744 19.2162 44.6988 19.0754 44.4222L19.0746 44.4204L19.0732 44.4177Z" fill="#F4F0E9"></path><path d="M17.7485 39.8467C18.8912 41.2906 19.8614 42.9343 20.5628 44.6384L19.0797 42.2426L17.7485 39.8467Z" fill="#F4F0E9"></path><path d="M20.1825 44.8666C19.381 43.153 18.5031 41.3916 17.2922 39.9229C17.5327 40.5997 17.9546 41.2736 18.3571 41.9166C18.4745 42.1042 18.5901 42.2891 18.6994 42.4707C18.806 42.6482 18.9117 42.8266 19.0176 43.0051C19.391 43.6347 19.7651 44.2656 20.1825 44.8666Z" fill="#F4F0E9"></path><path d="M19.1174 41.3672C19.8054 42.2591 20.5437 43.3164 20.8668 44.4094C20.7403 44.2006 20.6118 43.9922 20.4831 43.7834C19.9972 42.9957 19.5087 42.2038 19.1174 41.3672Z" fill="#F4F0E9"></path><path d="M21.8555 43.1924C21.9894 43.1402 20.9057 40.7442 20.6387 40.6064C20.7897 41.1952 21.1012 41.7662 21.4072 42.3271C21.5658 42.6179 21.7229 42.9061 21.8555 43.1924Z" fill="#F4F0E9"></path><path d="M19.8782 41.9756C20.2213 42.3546 20.5695 42.7925 20.8289 43.2306C20.8477 43.2622 20.8708 43.2995 20.8965 43.3411C21.0578 43.6012 21.322 44.027 21.2473 44.2573L19.8782 41.9756Z" fill="#F4F0E9"></path><path d="M21.1711 40.6826C21.6931 41.104 22.0485 41.9387 22.236 42.5841L21.1711 40.6826Z" fill="#F4F0E9"></path><path d="M12.8047 43.3447C12.9077 43.5299 13.0291 43.7137 13.1518 43.8996C13.4178 44.3025 13.6899 44.7145 13.7934 45.1701C13.7231 45.0597 13.6494 44.9494 13.5752 44.8381L13.5736 44.8357C13.2624 44.3692 12.9414 43.8876 12.8047 43.3447Z" fill="#F4F0E9"></path><path d="M22.426 41.6338L21.9316 40.9873L22.7683 42.5846L22.426 41.6338Z" fill="#F4F0E9"></path><path d="M20.1823 40.835L20.8668 42.052C20.7573 41.9302 19.9933 40.9316 20.1823 40.835Z" fill="#F4F0E9"></path><path d="M20.9429 42.8887C21.2259 43.2184 21.4899 43.6143 21.6274 44.0295C21.3424 43.7813 21.0219 43.2585 20.9429 42.8887Z" fill="#F4F0E9"></path><path d="M17.4443 29.1982L18.0908 29.4645C17.9177 29.569 17.4806 29.3976 17.4443 29.1982Z" fill="#F4F0E9"></path><path d="M11.3977 34.7506L15.7711 39.7705C15.2486 39.6941 15.0001 39.6577 14.6302 39.6183C14.081 39.5597 9.54361 34.2127 9.38221 33.3815C9.17883 32.334 9.84157 34.0422 9.87656 34.1041C10.6164 35.4116 11.9527 36.3978 12.8429 37.6027L14.5922 39.1238C13.3301 37.716 11.7907 36.3447 10.7133 34.7886C10.6366 34.678 9.22742 32.5693 9.76256 32.697C10.8703 35.43 13.311 37.3808 15.3529 39.4281C14.0541 37.8566 12.4381 36.5287 11.3977 34.7506Z" fill="#F4F0E9"></path><path d="M12.0442 34.8262L16.0753 39.6178C15.2122 38.6474 14.2108 37.7559 13.3752 36.7657C13.2593 36.6284 11.8651 34.9109 12.0442 34.8262Z" fill="#F4F0E9"></path><path d="M9.23 33.3818C9.61924 35.2603 11.3692 36.373 12.5005 37.7932C11.3829 36.9906 10.0133 35.6677 9.42018 34.4086C9.2995 34.1525 8.98519 33.5862 9.23 33.3818Z" fill="#F4F0E9"></path><path d="M14.2498 37.0322C15.0534 37.7307 15.9004 38.4766 16.4554 39.39C15.6045 38.7917 14.8984 37.8517 14.2498 37.0322Z" fill="#F4F0E9"></path><path d="M10.599 31.4795L10.8652 32.3541C10.6894 32.3972 10.5873 31.7527 10.5229 31.7837C10.2368 31.9216 11.3862 33.769 11.4357 34.0655C11.0272 33.3991 9.89391 32.1149 10.599 31.4795Z" fill="#F4F0E9"></path><path d="M10.1427 32.0881L10.8272 33.8374C10.7331 33.8843 9.70284 32.0676 10.1427 32.0881Z" fill="#F4F0E9"></path><path d="M9.07789 34.3701L10.4469 36.2716C10.1874 36.2189 8.7124 34.446 9.07789 34.3701Z" fill="#F4F0E9"></path><path d="M15.4668 37.793C15.7952 38.1477 16.4535 38.6923 16.6837 39.086C16.7495 39.1986 16.8748 39.1623 16.6837 39.3141L15.4668 37.793Z" fill="#F4F0E9"></path><path d="M11.2075 31.0234C11.2708 31.3392 11.2708 31.6963 11.2075 32.0122C11.0612 31.7624 11.0003 31.2624 11.2075 31.0234Z" fill="#F4F0E9"></path><path d="M16.6076 38.6289L17.1781 39.1233C17.0914 39.3108 16.5033 38.8052 16.6076 38.6289Z" fill="#F4F0E9"></path><path d="M8.54541 34.2939C8.66011 34.3113 8.86066 34.9486 8.77356 34.9784L8.58338 34.7123L8.54541 34.2939Z" fill="#F4F0E9"></path><path d="M9.91448 32.5449C9.99584 32.8037 10.3032 33.0893 10.2187 33.3815C10.1709 33.3977 9.81055 32.6829 9.91448 32.5449Z" fill="#F4F0E9"></path><path d="M17.5205 28.8184L18.0148 29.1606L17.4443 28.9705L17.5205 28.8184Z" fill="#F4F0E9"></path><path d="M11.816 30.5674L15.2387 31.2519C15.3645 31.5214 15.1998 31.4844 15.0105 31.48C14.2785 31.4635 13.1132 30.9255 12.3104 30.9856C12.4994 31.2571 15.3415 31.6211 15.2007 31.8223L11.9301 31.2138C12.9022 31.7599 14.1864 31.7354 15.0865 32.1645L12.1583 31.6701C13.0579 32.1138 14.1035 32.1481 15.0485 32.4308C15.1169 32.7085 12.084 31.9699 11.8541 31.8984L14.9724 32.8871L11.6639 32.3168C11.5032 31.7328 11.5944 31.1314 11.816 30.5674Z" fill="#F4F0E9"></path><path d="M11.3215 28.8184C11.7257 29.0271 12.5495 28.8852 12.7286 29.2747C12.701 29.2459 11.3634 28.9726 11.6638 29.2747C11.9865 29.427 12.6166 29.3699 12.8808 29.5029C13.0676 29.597 13.3666 30.2212 13.8695 30.4156C14.2288 30.5544 14.8264 30.4961 15.2005 30.6817L12.8048 30.4156C13.645 30.7667 14.6685 30.7224 15.4286 31.062L11.9681 30.4916L11.8921 30.2635L12.5385 30.3015L11.816 29.9592C12.206 29.9116 12.722 30.3376 13.0709 29.9972C12.6795 29.8661 11.9562 29.9525 11.7399 29.655L12.9188 29.769C11.9193 29.3134 11.8764 29.8581 11.3215 28.8184Z" fill="#F4F0E9"></path><path d="M11.3218 28.8177C10.6852 27.625 11.3129 27.7841 12.3865 27.943L11.2457 28.0951L12.4246 28.4375L11.2457 28.3994L12.5006 28.8177H11.3218Z" fill="#F4F0E9"></path><path d="M12.1201 33.1533C13.4438 33.6188 14.8733 33.6903 16.1893 34.1802L14.0215 33.7618L12.1201 33.1533Z" fill="#F4F0E9"></path><path d="M11.6638 32.6973C12.8684 33.1635 14.2829 33.1296 15.4286 33.724C14.7799 33.6069 14.1321 33.4566 13.4893 33.3058C12.9528 33.1798 12.0314 33.1483 11.6638 32.6973Z" fill="#F4F0E9"></path><path d="M12.2725 33.5332L16.2656 34.4838C15.2577 34.3607 14.166 34.2447 13.1852 33.9896C12.9012 33.9157 12.366 33.8321 12.2725 33.5332Z" fill="#F4F0E9"></path><path d="M11.816 27.5249C11.9276 27.4885 12.2984 27.4933 12.3864 27.6389L11.7399 27.677C11.6653 27.6389 11.7929 27.5324 11.816 27.5249Z" fill="#F4F0E9"></path><path d="M21.5513 24.2539C21.9326 24.2542 22.5642 24.406 22.8063 24.6723C22.8567 24.7277 23.4166 25.9664 23.4148 26.0413C23.4131 26.1144 23.0737 26.5795 23.0726 26.7638C22.9446 26.8448 22.7196 26.0045 22.5402 25.9272C22.4898 25.9055 21.6698 25.8684 21.6275 25.8512C21.4991 25.7987 21.7307 25.66 21.6275 25.5469C21.5987 25.5155 20.8827 25.6569 20.7908 25.699C20.5131 25.8265 20.1062 26.5303 19.764 26.1934C19.8078 26.085 20.5495 25.9884 20.5626 25.699L19.4597 26.1174C19.6626 25.4358 20.6216 25.4872 21.133 25.1287L19.9921 25.3568C20.343 24.9657 20.8656 24.8592 21.3611 24.7483C20.7493 24.582 20.0573 25.1635 19.4977 24.7863L21.3992 24.5582L20.1442 24.5202C20.5963 24.4869 21.1035 24.2537 21.5513 24.2539Z" fill="#F4F0E9"></path><path d="M18.7373 25.2431C18.8087 25.2429 18.8847 25.2185 18.9275 25.2813C18.8452 25.7034 17.9741 26.4304 18.243 25.5855C18.254 25.551 18.7073 25.2434 18.7373 25.2431Z" fill="#F4F0E9"></path><path d="M18.9656 25.5474C19.0561 25.5209 19.6028 25.7148 19.0036 25.7375L19.3458 25.9277L19.2698 26.0798L18.6995 25.8897C18.8091 25.8544 18.9447 25.5535 18.9656 25.5474Z" fill="#F4F0E9"></path><path d="M19.1176 25.3196C19.1991 25.2955 19.6021 25.3558 19.6118 25.5098L19.0414 25.4717C18.9664 25.4337 19.0961 25.326 19.1176 25.3196Z" fill="#F4F0E9"></path><path d="M18.585 26.0039L19.0794 26.2702L18.509 26.2322L18.585 26.0039Z" fill="#F4F0E9"></path><path d="M19.5739 25.0909C19.5918 25.0879 19.808 25.2109 19.9163 25.205L19.4979 25.243C19.4213 25.2044 19.5591 25.0934 19.5739 25.0909Z" fill="#F4F0E9"></path><path d="M29.8417 29.1982C31.623 29.7759 32.8743 31.3161 32.8079 33.2294C32.456 32.4775 32.2804 31.3476 31.781 30.6814C31.324 30.0714 30.4722 30.0424 29.9938 29.4265C29.7422 30.0024 31.166 30.8866 31.2487 31.2137L31.2107 31.404C30.2944 31.0686 29.7243 30.1519 29.8417 29.1982Z" fill="#F4F0E9"></path><path d="M36.6869 35.5109C37.5981 35.4019 38.5461 35.8411 39.2349 36.3856C39.1636 36.5091 36.8776 35.521 36.4588 36.0432L36.6109 35.739L35.5461 36.1954C35.6088 35.8482 36.397 35.5455 36.6869 35.5109Z" fill="#F4F0E9"></path><path d="M36.0025 31.8604C36.0185 32.407 35.7458 32.8006 35.2038 32.8871L35.5461 32.3167C34.3908 32.9519 34.0807 33.906 33.6447 35.0549C33.594 33.4085 34.7149 32.5866 36.0025 31.8604Z" fill="#F4F0E9"></path><path d="M29.2332 33.5332C30.4015 33.8443 31.3984 34.6526 31.857 35.777L29.2332 33.5332Z" fill="#F4F0E9"></path><path d="M37.2954 36.2715L38.2462 36.6899C37.5884 36.9494 37.1541 37.1054 36.6489 36.5377C36.8099 36.2664 38.1299 37.2186 37.2954 36.2715Z" fill="#F4F0E9"></path><path d="M35.6982 36.6516C35.9472 36.6432 36.5558 36.8741 36.801 36.9938L35.0137 37.032C34.8779 36.8716 35.6569 36.653 35.6982 36.6516Z" fill="#F4F0E9"></path><path d="M35.3939 33.7617C35.5742 34.1256 34.1183 35.2495 34.0249 35.2068C34.1805 34.517 35.0018 34.3115 35.3939 33.7617Z" fill="#F4F0E9"></path><path d="M30.0701 34.9785L31.4011 35.701C31.3505 35.851 29.9756 35.3521 30.0701 34.9785Z" fill="#F4F0E9"></path><path d="M30.9067 31.9365C30.9345 32.0971 32.437 33.1613 32.1236 33.3055C31.749 32.8314 31.0539 32.559 30.9067 31.9365Z" fill="#F4F0E9"></path><path d="M30.9067 31.5557C31.2721 31.6877 31.5892 31.9374 31.7814 32.2782C31.6727 32.4804 30.9067 31.7103 30.9067 31.5557Z" fill="#F4F0E9"></path><path d="M35.3181 35.8916C35.5189 35.9612 35.0567 36.2974 35.0138 36.348C34.8578 36.532 34.7406 36.8057 34.4814 36.8804L34.8237 36.386L35.3181 35.8916Z" fill="#F4F0E9"></path><path d="M35.3179 33.0771C35.3373 33.372 34.9016 33.6118 34.7094 33.7616C34.6789 33.4394 35.1476 33.2695 35.3179 33.0771Z" fill="#F4F0E9"></path><path d="M29.8418 34.5225L30.5643 34.8647C30.3515 34.9705 29.8877 34.7628 29.8418 34.5225Z" fill="#F4F0E9"></path><path d="M25.3545 45.3223C25.7231 45.7026 26.0375 46.1601 26.115 46.6913L25.3545 45.3223Z" fill="#F4F0E9"></path><path d="M26.3431 47.3C26.5361 47.2831 26.6687 48.3994 26.5712 48.593C26.5428 48.4617 26.0848 47.3225 26.3431 47.3Z" fill="#F4F0E9"></path><path d="M26.7234 46.9961L26.9515 48.137C26.807 48.0631 26.4909 46.9958 26.7234 46.9961Z" fill="#F4F0E9"></path><path d="M27.0276 46.6152C27.2371 46.8645 27.2451 47.366 27.2557 47.68C27.0795 47.431 26.9662 46.9182 27.0276 46.6152Z" fill="#F4F0E9"></path><path d="M27.636 46.083C27.8296 46.2034 27.8646 46.6576 27.7881 46.8436L27.636 46.083Z" fill="#F4F0E9"></path><path d="M27.4078 46.3115L27.4838 47.1481C27.4362 46.8801 27.1412 46.5323 27.4078 46.3115Z" fill="#F4F0E9"></path><path d="M25.6584 45.2461C25.8567 45.4272 26.1966 45.7136 26.1908 46.0067C26.0551 45.7708 25.6621 45.531 25.6584 45.2461Z" fill="#F4F0E9"></path><path d="M34.1011 39.998C35.1471 40.158 35.3966 40.5597 35.3559 41.6333L34.9757 41.253L34.9377 42.1278L34.8236 40.8728L34.7476 41.7094L34.4814 40.7587C34.2908 40.9212 34.6862 41.634 34.3673 41.5573L34.1011 39.998Z" fill="#F4F0E9"></path><path d="M29.2332 38.249C29.6083 38.6334 30.0792 39.0864 30.2219 39.6181L29.2332 38.249Z" fill="#F4F0E9"></path><path d="M14.0215 23.7982C14.0863 23.7956 14.1966 23.7789 14.2118 23.8363C11.6528 24.8399 8.55683 25.7192 6.33969 27.4491C6.22687 27.5371 5.69024 27.8107 5.42491 28.1419C5.33583 28.2531 5.3179 28.3951 5.34118 28.5356C5.37672 28.7499 5.39771 28.9766 5.08473 28.4758C4.87404 28.1388 5.49873 27.5591 5.73119 27.3729C6.66901 26.6221 12.9636 23.8423 14.0215 23.7982Z" fill="#F4F0E9"></path><path fill-rule="evenodd" clip-rule="evenodd" d="M14.2853 16.8038C14.2842 16.8068 14.2834 16.8114 14.2824 16.8177C14.2762 16.8559 14.2608 16.9502 14.0976 17.0287C13.8649 17.1404 13.6074 17.2343 13.3466 17.3293C12.7766 17.5369 12.1911 17.7502 11.8158 18.1695C11.9656 18.1113 12.2747 17.9763 12.6564 17.8095C13.7393 17.3365 15.4079 16.6077 15.6948 16.6483C15.7141 16.651 15.8323 16.7435 15.7708 16.8004C15.6892 16.8759 15.4249 16.9562 15.1177 17.0492C14.6469 17.1919 14.0756 17.3653 13.9073 17.599L16.1511 16.9525V17.1047L11.9679 19.0062L16.2652 17.447L12.3482 19.3104L16.1892 17.9034L12.3482 19.7668L15.9609 18.3598L12.4243 20.147L16.4173 18.5879L12.3863 20.4894C12.4182 20.5952 13.5463 20.0797 14.4674 19.6588C15.0171 19.4077 15.4929 19.1903 15.6187 19.1583C15.6331 19.1547 15.6527 19.1485 15.6754 19.1413C15.8062 19.0999 16.0442 19.0245 16.0369 19.1964L12.4622 20.8697L16.5694 19.4245L12.3862 21.326L16.5694 19.8049L12.3862 21.7064L16.6454 20.1852L12.5003 22.1247C12.8892 21.9729 13.2879 21.7919 13.6923 21.6083C14.7028 21.1494 15.7479 20.675 16.7596 20.6035C15.4514 20.9763 14.1859 21.5577 12.9947 22.1627C13.0147 22.2184 13.1223 22.2073 13.1801 22.2013L13.1848 22.2008C13.4804 22.1703 14.0558 21.9049 14.6549 21.6284C15.2723 21.3437 15.9151 21.0473 16.3033 20.9839C16.5162 20.9492 16.6927 20.9879 16.8574 21.024C17.0058 21.0567 17.1446 21.087 17.2921 21.0599C17.7359 20.9778 18.1783 20.8839 18.6211 20.7898C19.4529 20.6132 20.2861 20.4363 21.1328 20.3374L18.3947 20.5655L21.0567 20.1092C21.2811 19.1584 19.6879 15.8015 17.8626 15.723C16.5694 15.605 15.0004 15.8178 13.8312 16.5344L14.2496 16.5724C13.9617 16.7328 13.5884 16.8845 13.2081 17.0393C12.6923 17.2489 12.1633 17.4642 11.8157 17.7133C11.7905 17.7314 11.5145 17.9449 11.7397 17.9415C12.5438 17.4388 13.4069 17.1202 14.2846 16.8017L14.2853 16.8038ZM19.9542 19.8429C20.2077 19.8222 20.6418 19.7963 20.8668 19.9189L18.3951 20.1852C18.8402 20.0605 19.5083 19.8794 19.9542 19.8429ZM20.4249 19.3862C20.3441 19.3852 20.2631 19.3843 20.1823 19.3864C19.6808 19.4002 19.0796 19.5454 18.5576 19.6715C18.4758 19.6913 18.3961 19.7105 18.3189 19.7288C18.3926 19.7243 18.4692 19.7199 18.5482 19.7154C19.2514 19.6757 20.1353 19.6258 20.6388 19.3864C20.5676 19.3878 20.4963 19.3869 20.4249 19.3862ZM19.8781 18.1697C20.0076 18.1864 20.0594 18.2349 19.9542 18.3218C19.8736 18.3883 18.3442 18.5553 18.0907 18.5119C18.2222 18.4904 18.4298 18.44 18.6599 18.3843C19.1167 18.2738 19.6623 18.1417 19.8781 18.1697ZM20.0841 19.0052C19.9896 19.002 19.8951 18.9989 19.8021 19.0062C19.3803 19.0394 18.6268 19.1564 18.2428 19.3485C18.3628 19.3367 18.4848 19.3262 18.6079 19.3155C19.1959 19.2648 19.8073 19.212 20.3344 19.0062C20.2516 19.0107 20.1678 19.0079 20.0841 19.0052ZM14.2878 16.8005C14.3956 16.7479 14.5019 16.6903 14.6086 16.6327C14.9603 16.442 15.3153 16.2498 15.7329 16.23C15.4777 16.4799 15.0823 16.582 14.7177 16.676C14.5648 16.7155 14.4173 16.7537 14.2878 16.8005ZM19.6287 17.918C19.6077 17.8919 19.5882 17.868 19.5738 17.8653C19.4439 17.8415 18.2243 18.0933 18.0147 18.2075C18.5754 18.176 19.1482 18.109 19.6879 17.9794C19.6687 17.9673 19.6479 17.9418 19.6287 17.918ZM19.1174 17.1809C19.1589 17.1805 19.2004 17.1807 19.2419 17.1809C19.2764 17.1809 19.3111 17.1812 19.3457 17.1809C19.5858 17.3148 17.8944 17.5229 17.7864 17.5232C17.9899 17.3467 18.8449 17.1828 19.1174 17.1809ZM19.3197 17.5605C19.2521 17.5592 19.1846 17.5577 19.1174 17.5612C18.8354 17.576 18.2152 17.7124 17.9386 17.8273C18.0218 17.822 18.1122 17.8184 18.2063 17.8145C18.6576 17.796 19.1991 17.7738 19.4978 17.5612C19.4386 17.5633 19.3792 17.5619 19.3197 17.5605ZM19.4217 18.626C19.4614 18.6258 19.5013 18.6259 19.5412 18.626C19.5774 18.626 19.6136 18.6262 19.6498 18.626C19.8752 18.7494 18.3018 19.0172 18.1667 18.8922C18.2506 18.8738 18.3646 18.845 18.4912 18.8132C18.8189 18.7307 19.2308 18.6269 19.4217 18.626ZM17.8626 17.0668C18.0009 17.2577 19.5944 16.8642 19.1174 16.8005C19.0292 16.7888 18.6664 16.8778 18.3451 16.9568C18.1403 17.0072 17.9521 17.0534 17.8626 17.0668ZM18.2808 16.1922C18.3482 16.19 18.4158 16.1909 18.4833 16.1918C18.5426 16.1925 18.6019 16.1933 18.6611 16.1922C18.7156 16.4094 17.4936 16.4552 17.4822 16.3823C17.5048 16.3758 17.5301 16.3684 17.5574 16.3604C17.7738 16.2974 18.1184 16.197 18.2808 16.1922ZM18.8234 16.4959C18.7692 16.4949 18.7151 16.4939 18.6612 16.4964C18.5292 16.5023 18.3362 16.5528 18.1497 16.6017C18.0174 16.6363 17.8883 16.67 17.7866 16.6865C18.1379 16.7623 18.7284 16.7367 18.9654 16.4964C18.9182 16.4978 18.8708 16.4969 18.8234 16.4959Z" fill="#F4F0E9"></path><path d="M13.2609 26.6124C13.3125 26.5992 13.4219 26.5969 13.4512 26.6506L12.8047 27.4492C12.5203 27.2232 13.1422 26.6431 13.2609 26.6124Z" fill="#F4F0E9"></path><path d="M13.261 29.4268C13.4677 29.5438 13.6342 29.6764 13.7924 29.8025C14.1387 30.0786 14.4452 30.323 15.0484 30.3014C14.3879 30.5205 13.5207 30.0399 13.261 29.4268Z" fill="#F4F0E9"></path><path d="M14.4021 28.1335C14.5961 28.2299 14.936 27.3967 14.6678 27.1445C14.6063 27.297 14.5748 27.4582 14.5427 27.6198C14.5083 27.7934 14.4737 27.9678 14.4021 28.1335Z" fill="#F4F0E9"></path><path d="M14.8585 29.7302C15.0412 29.7522 14.9926 29.9299 14.9345 30.0345C14.0586 30.224 14.6677 29.7072 14.8585 29.7302Z" fill="#F4F0E9"></path><path fill-rule="evenodd" clip-rule="evenodd" d="M14.0599 29.0459C14.0871 29.0441 14.1121 29.0441 14.1352 29.0441C14.2267 29.0441 14.2899 29.0442 14.364 28.9319C14.3834 28.8762 14.2969 28.7816 14.1974 28.6726C14.021 28.4796 13.8034 28.2414 14.0599 28.0952L13.9077 28.0191L13.4514 28.3994L13.9837 27.791L13.4514 27.867L13.7556 27.5627C13.3691 27.4626 13.4695 27.4237 13.5967 27.3746C13.6737 27.345 13.7605 27.3115 13.7556 27.2585H13.4514L14.0599 26.9542C13.5725 26.8147 13.3475 27.0032 13.1471 27.5627C13.0962 27.7047 13.041 28.6926 13.071 28.7796C13.1032 28.8726 14.0254 29.8017 14.0979 29.8064C14.5476 29.8355 14.1752 29.192 14.0599 29.0459Z" fill="#F4F0E9"></path><path d="M17.9007 36.3475C17.7754 36.256 17.1767 36.1806 16.4982 36.0952C15.6299 35.986 14.6308 35.8602 14.3262 35.6631C14.6155 36.0363 15.6272 36.15 16.5007 36.2478C16.5527 36.2537 18.1323 36.5167 17.9007 36.3475Z" fill="#F4F0E9"></path><path d="M16.7848 37.0252C16.3998 37.0252 15.9891 36.9417 15.6951 36.9557C16.2803 37.1809 17.2207 37.1907 17.9654 37.2369C18.0488 36.9557 17.3109 37.0252 16.7848 37.0252Z" fill="#F4F0E9"></path><path fill-rule="evenodd" clip-rule="evenodd" d="M30.3839 41.174L31.2109 42.2045C30.9821 40.7189 30.086 39.4852 29.0053 38.4777C28.7909 38.4477 29.2716 39.035 29.4448 39.2464C29.4718 39.2795 29.4914 39.3034 29.4995 39.3143C29.5049 39.3193 29.5093 39.3234 29.5144 39.3283C29.5264 39.3397 29.5379 39.3505 29.5486 39.3605C29.5988 39.4073 29.6354 39.4398 29.6655 39.4687C29.6663 39.4693 29.667 39.47 29.6678 39.4708C29.6719 39.4748 29.676 39.4788 29.6799 39.4827C29.682 39.4847 29.6841 39.4867 29.6861 39.4888C29.6896 39.4922 29.693 39.4958 29.6964 39.4993C29.6989 39.5018 29.7013 39.5044 29.7035 39.5069C29.7075 39.5112 29.7114 39.5154 29.7153 39.5198C29.7191 39.5242 29.723 39.5285 29.7269 39.5332C29.7294 39.536 29.732 39.5393 29.7345 39.5424C29.7371 39.5458 29.7399 39.5492 29.7426 39.5527C29.7453 39.5562 29.748 39.5597 29.7506 39.5633C29.7534 39.5669 29.7561 39.5707 29.7589 39.5745C29.7616 39.5783 29.7643 39.582 29.767 39.5859C29.7701 39.5904 29.7734 39.5952 29.7765 39.6C29.7809 39.6067 29.7855 39.6135 29.7903 39.6208C29.7936 39.6262 29.7971 39.6314 29.8008 39.6372C29.8043 39.6429 29.8081 39.6492 29.8119 39.6552C29.8148 39.6598 29.8175 39.6644 29.8205 39.6693C29.8246 39.676 29.8288 39.6832 29.8331 39.6903C29.836 39.695 29.8389 39.7 29.8419 39.705C29.8466 39.7132 29.8516 39.7215 29.8568 39.7304C29.8576 39.732 29.8586 39.7339 29.8596 39.7354C29.8663 39.7469 29.8728 39.7582 29.88 39.7707C29.8755 39.7664 29.872 39.763 29.8676 39.7589C29.8564 39.7482 29.8456 39.7379 29.8355 39.728C29.8294 39.722 29.8234 39.7162 29.8176 39.7105C29.8076 39.7007 29.7981 39.691 29.7891 39.6818C29.7834 39.6759 29.7778 39.6702 29.7724 39.6645C29.7641 39.656 29.7563 39.6475 29.7488 39.6394C29.7445 39.6348 29.7401 39.63 29.736 39.6255C29.7286 39.6172 29.7216 39.6092 29.7148 39.6013C29.7104 39.5963 29.7061 39.5912 29.702 39.5863C29.6963 39.5793 29.6906 39.5725 29.6851 39.5658C29.6814 39.5609 29.6774 39.556 29.6736 39.5512C29.6694 39.5458 29.6651 39.5403 29.661 39.5348C29.6529 39.5242 29.6448 39.5134 29.6368 39.5024C29.6356 39.5009 29.6346 39.4994 29.6335 39.4979C29.6214 39.4813 29.609 39.4643 29.5955 39.4455C29.569 39.4085 29.5388 39.3664 29.4995 39.3143C29.4111 39.2298 28.8244 38.7022 28.7773 38.706C27.1988 40.5674 25.6795 42.3227 23.5674 43.6118L25.0504 44.7147L24.3279 43.8399C24.8519 44.054 25.275 44.5173 25.6925 44.9744C25.9308 45.2352 26.1671 45.4939 26.4195 45.7034L26.1533 45.1329L24.6701 43.3457L26.7998 45.6274L25.0504 43.1935L27.3321 45.6274L25.2406 42.9273L27.6364 45.3992L25.6209 42.7752L27.7885 45.0189L26.1153 42.5089L28.1689 45.0949C28.5803 44.896 26.3934 42.2642 26.0773 42.0907C26.1733 41.8823 26.7451 42.5132 26.887 42.6698C26.8995 42.6835 26.9086 42.6935 26.9139 42.6992C27.2855 43.0943 27.599 43.5573 27.9094 44.0158C28.0701 44.2533 28.23 44.4897 28.397 44.7147C28.7131 44.6039 27.4945 43.096 26.8258 42.2685C26.608 41.9992 26.4486 41.8019 26.4195 41.7484L28.7773 44.7147C28.4775 43.5015 27.5731 42.4032 26.6856 41.5583C26.644 41.2439 27.1616 41.7923 27.3659 42.0087C27.4119 42.0573 27.442 42.0893 27.4463 42.0907L29.0815 44.4865L27.104 41.1399L29.3858 44.3344C29.218 43.2992 28.507 42.4372 27.8276 41.6132C27.6436 41.3902 27.462 41.1699 27.2941 40.9498C28.2125 41.6125 28.8138 42.585 29.3969 43.5284C29.4693 43.6457 29.5415 43.7623 29.614 43.878C30.025 43.7153 28.5366 41.9263 27.9045 41.1664C27.7559 40.9878 27.6545 40.8659 27.6364 40.8357C27.6325 40.8292 27.6271 40.8208 27.6208 40.811C27.5728 40.737 27.475 40.5864 27.6364 40.6075C28.7138 41.7049 29.6385 42.943 30.1464 44.4104C29.9504 42.7584 28.7563 41.4503 27.6764 40.2673L27.6745 40.2653C28.9123 41.0512 29.6709 42.4493 30.2985 43.7259C30.0839 42.3123 28.9903 41.1305 28.0404 40.1037L27.9786 40.037C29.3114 40.9068 30.1951 42.5022 30.7548 43.954L30.6406 43.1554C30.0231 41.8588 29.2306 40.6725 28.2068 39.6568C29.5075 40.5439 30.3626 42.0915 30.9829 43.4977C31.5339 43.3823 28.979 39.6689 28.587 39.5047L28.8913 39.5807C28.968 39.6774 29.0453 39.7742 29.1225 39.8712C29.9601 40.9213 30.8131 41.9908 31.2871 43.2695C31.6004 43.2083 31.0549 42.1877 30.3839 41.174Z" fill="#F4F0E9"></path><path d="M34.1772 38.4776C33.8712 38.4062 33.3028 38.7505 33.1505 38.5917C32.9468 38.2765 33.0952 38.1907 33.1123 37.8691L33.3405 38.1734L33.4166 37.8691L33.6447 38.2494L33.5306 37.679L33.873 38.0973C34.0141 37.761 33.6816 37.4861 33.4166 37.3366C33.2905 37.6964 33.2936 37.1966 33.0362 37.2606C32.9325 37.2865 33.2738 37.4626 33.0363 37.5649C31.8178 37.2399 30.3748 37.0811 29.4236 38.0592C30.6405 39.493 31.3092 41.206 31.6673 43.0411C31.9625 42.8424 31.3336 41.5569 31.7433 41.6721L32.1236 43.0411L32.0096 41.558C32.3597 41.933 32.2727 42.5076 32.3518 42.9651L32.3898 41.4059C32.6977 41.7908 32.6313 42.4296 32.5801 42.889L32.7702 42.6227C32.734 40.1409 33.1666 42.25 32.9223 43.1551C32.892 43.2676 32.2242 43.732 32.5041 43.9537L32.8843 43.3452V43.9537L33.1886 43.4214L33.0745 43.9158C33.4232 43.8958 33.396 43.3496 33.4547 43.2311C33.5528 43.0336 34.0986 42.896 33.5307 42.8509L33.797 42.2045L33.759 42.6987L34.0251 42.3565L34.1011 42.965C35.0922 42.245 34.3462 42.24 34.1392 41.5579C34.0136 41.1444 33.5942 39.5531 33.5307 39.2001C33.4321 38.6521 33.7077 39.5157 33.835 39.2001L33.6068 38.8199L34.2532 39.6185C34.3306 39.68 33.7428 38.388 34.0631 38.8199C34.2615 39.0874 34.3146 39.4826 34.4813 39.7706L34.2532 38.7057C34.5887 38.9887 34.5857 39.454 34.7096 39.8466V39.01L34.8998 39.5805C35.3691 39.3414 34.495 38.5517 34.1772 38.4776ZM31.7432 39.6945L31.2108 38.3255C31.469 38.3964 31.9488 39.6581 31.7432 39.6945ZM31.5151 39.7706L30.8306 38.1734C30.9097 38.1342 31.6766 39.5405 31.5151 39.7706ZM29.7278 38.1354L30.1081 38.2875L30.9827 39.7706L30.2221 37.9451C30.753 38.3841 30.9348 39.0706 31.249 39.6565C30.5977 40.5947 30.3821 38.4059 29.7278 38.1354ZM31.1348 40.303C31.3415 40.6234 31.4665 40.992 31.5151 41.3679C31.3148 41.1201 31.0728 40.635 31.1348 40.303ZM31.363 40.1509L31.7432 41.1396C31.5156 40.9427 31.3302 40.4381 31.363 40.1509ZM31.9715 40.9875L31.6672 40.0749C31.725 40.0546 32.1253 40.8327 31.9715 40.9875ZM32.2757 40.9115C32.1163 40.7015 32.0583 40.332 32.0475 40.0749C32.1921 40.2808 32.3577 40.6556 32.2757 40.9115Z" fill="#F4F0E9"></path><path d="M26.039 21.8966C23.1983 21.6586 21.8744 22.2182 21.4754 20.6797C20.0183 21.0661 18.4473 20.9508 16.988 21.2882C15.3778 21.6606 11.4735 22.9877 10.0667 23.7981C9.877 23.9073 9.67441 24.2656 9.42024 24.3686L10.9566 23.9198C9.65216 24.3847 8.4068 24.9841 7.3667 25.8137C12.5593 23.2139 19.137 21.8277 24.9741 22.1248C25.3705 22.1449 27.2176 22.5397 27.332 22.5051C28.041 22.2902 26.7 21.9519 26.039 21.8966ZM15.847 22.0487C15.923 22.0476 15.9991 22.0496 16.0751 22.0487C16.2756 22.1571 13.4318 22.7807 13.223 22.6952C13.912 22.6002 15.2265 22.0582 15.847 22.0487ZM14.0598 22.9234C14.0369 22.8298 15.7865 22.4437 15.9231 22.4291C16.0721 22.4131 16.2294 22.4401 16.3795 22.4291C15.6764 22.6859 14.828 22.8013 14.0598 22.9234ZM19.802 21.1361C19.9195 21.1267 20.28 21.0808 20.3344 21.2121L18.8513 21.4023C19.0368 21.2508 19.579 21.1539 19.802 21.1361ZM18.8513 22.0868C19.0806 21.9981 19.7473 21.8214 19.9541 21.8206C20.0301 21.8203 20.1063 21.8208 20.1823 21.8206C20.3914 21.9342 18.9816 22.2052 18.8513 22.0868ZM18.9274 21.7064C19.1841 21.6093 19.7811 21.4527 20.0303 21.4403C20.1564 21.4341 20.2841 21.4446 20.4105 21.4403C20.1599 21.6868 19.355 21.7507 18.9274 21.7064Z" fill="#F4F0E9"></path><path d="M3.9273 49.3829C3.61709 48.7753 3.11716 46.9857 2.93855 46.2646C2.45576 44.3151 2.24035 42.2938 2.06386 40.2939C1.95505 43.3466 2.80812 46.4433 3.6376 49.3927H3.93217L3.92904 49.3864L3.9273 49.3829Z" fill="#F4F0E9"></path><path d="M2.90049 39.2295L2.78642 40.9409C3.10317 43.807 3.66512 46.6371 4.53579 49.3832C4.28831 49.2244 4.08729 48.635 3.96017 48.2622C3.94861 48.2284 3.93761 48.1962 3.92731 48.1664C3.27982 46.2936 2.74239 43.4507 2.55828 41.4732C2.52062 41.0686 2.52306 40.6472 2.52549 40.23C2.52699 39.9692 2.52856 39.71 2.52023 39.4576C2.20781 42.8107 3.13658 46.2241 4.16072 49.393H4.95821C4.37346 48.2372 3.90781 46.7076 3.62306 45.4282C3.17227 43.4025 2.95639 41.3032 2.90049 39.2295Z" fill="#F4F0E9"></path><path d="M1.68355 40.9023C1.59377 43.7916 2.40925 46.6358 3.21099 49.3926H3.58315C2.44904 47.192 2.1407 44.6441 1.84133 42.1698C1.78984 41.7445 1.73867 41.3212 1.68355 40.9023Z" fill="#F4F0E9"></path><path d="M5.59291 48.4273L5.59331 48.4287C5.67601 48.7504 5.75871 49.0719 5.84032 49.393H6.23686C4.98057 45.8988 4.28277 42.2454 3.96524 38.5449C3.91854 41.9148 4.76052 45.1897 5.59291 48.4273Z" fill="#F4F0E9"></path><path d="M4.96847 47.6693C5.1199 48.2461 5.27076 48.8206 5.41314 49.3931H5.82421C4.44591 45.9906 3.76981 42.2937 3.66101 38.6211C3.39741 41.6857 4.19026 44.7052 4.96847 47.6693Z" fill="#F4F0E9"></path><path d="M3.09018 39.2794C3.09137 39.3228 3.09262 39.369 3.09066 39.4191C3.06008 40.2059 3.26967 41.7608 3.38673 42.6291L3.39491 42.6896C3.65858 44.6474 4.19216 46.5703 4.72061 48.4749L4.72101 48.4761C4.80583 48.7819 4.89066 49.0876 4.97407 49.3925H5.38767C4.0045 46.1258 3.35378 42.398 3.28076 38.8486C3.08217 38.9843 3.08563 39.1089 3.09018 39.2794Z" fill="#F4F0E9"></path><path d="M1.22114 48.2874C1.38255 48.7389 1.525 49.1371 1.58891 49.3925H1.83057L0.542683 45.3896C0.355497 45.8669 0.841032 47.2244 1.22114 48.2874Z" fill="#F4F0E9"></path><path d="M0.910596 44.9223C0.864449 44.6711 0.818458 44.4209 0.770895 44.1729C0.751478 45.6957 1.18316 47.1495 1.61154 48.5922C1.69079 48.8594 1.77004 49.126 1.84621 49.3926H2.19779C1.48041 48.0253 1.19157 46.4525 0.910596 44.9223Z" fill="#F4F0E9"></path><path d="M25.7975 46.9264C25.7349 47.3195 24.5367 49.3537 24.2873 49.3537C24.4372 49.0585 24.5137 49.004 24.5834 48.888C24.9792 48.2289 25.3543 47.5505 25.7944 46.9192C25.1323 45.4691 23.931 43.8009 22.9798 43.9452C22.3838 44.419 21.7077 44.8012 21.0315 45.1835C20.3043 45.5947 19.5768 46.0061 18.9488 46.5312C18.7877 46.6661 18.4874 47.0067 18.1885 47.346C17.8185 47.766 17.4505 48.1835 17.3515 48.2045C17.1122 48.2552 16.9379 48.1544 16.8332 48.0936C16.7927 48.0702 16.7627 48.0529 16.743 48.0524C16.599 48.0494 16.4613 48.0689 16.3197 48.0891C16.1655 48.111 16.0069 48.1335 15.8303 48.1284C15.8149 48.128 15.7934 48.1015 15.765 48.0667C15.7112 48.0005 15.6325 47.9041 15.526 47.9002C15.3557 47.8941 14.8035 48.0069 13.9288 48.3566C13.4545 48.4392 14.0359 48.0685 14.4523 47.8029C14.6424 47.6816 14.7982 47.5824 14.8035 47.558C14.8475 47.3582 14.0874 46.471 13.7337 46.058C13.6682 45.9815 13.6167 45.9212 13.5867 45.8847C13.1233 45.3194 13.029 45.0946 12.7904 44.5255C12.7553 44.4417 12.717 44.3505 12.6739 44.2495C11.2849 40.9911 8.37069 37.5882 4.42148 38.393C4.26543 41.459 5.02329 44.4896 5.76897 47.4716C5.92974 48.1144 6.08988 48.7551 6.24019 49.3932H24.5707L25.4517 48.0144L24.7922 49.3932H25.0268L25.8699 48.1284C26.0289 48.1262 25.9829 48.2255 25.9393 48.3195C25.9273 48.3457 25.9153 48.3715 25.9079 48.3946C25.8188 48.6767 25.6053 49.0359 25.3777 49.3932H25.536C25.6942 49.0714 25.8692 48.7616 26.098 48.5847C26.0749 48.86 25.9117 49.1226 25.7484 49.3852L25.7435 49.3932H25.9434C26.1239 49.0865 26.2815 48.7971 26.2883 48.6229C26.3025 48.2517 26.1109 47.614 25.7975 46.9264ZM12.6422 47.8992C12.4801 46.4972 12.1635 45.1204 12.0337 43.7161C12.382 45.0686 12.6622 46.492 12.6422 47.8992ZM11.7294 45.3131L11.4252 43.3356C11.54 43.9475 11.895 44.7016 11.7294 45.3131ZM9.67588 41.8906C9.85245 42.6979 10.001 43.5102 10.1323 44.3245C9.81858 43.6247 9.64279 42.6554 9.67588 41.8906ZM4.73209 38.468L5.72085 45.7695C5.27478 43.3615 4.62313 40.9432 4.73209 38.468ZM6.72346 49.2617C6.41276 48.3026 6.02384 46.6552 5.98706 46.4415C5.65623 44.5214 5.34829 41.8814 5.22644 39.9359C5.19923 39.5011 5.17511 38.8899 5.26449 38.468C5.62306 42.1794 6.01999 45.6462 6.88029 49.2617H6.72346ZM7.24846 49.2616L6.82368 48.1076C6.13596 45.0497 5.82234 41.9231 5.64476 38.7854C6.05984 40.8035 6.05843 42.9005 6.36732 44.9341C6.60128 46.4745 7.01417 47.7375 7.30623 49.2616H7.24846ZM7.67031 49.2619L7.50819 48.9047C6.89468 45.9395 6.32722 43.1335 6.13917 40.0945C6.11472 39.699 6.05002 39.0731 6.17722 38.706C6.48508 42.3366 6.84696 45.7401 7.74908 49.2619H7.67031ZM8.10403 49.2617L7.81244 48.5837C7.25852 45.4271 6.68949 42.243 6.63352 39.0234L8.17251 49.2617H8.10403ZM8.52927 49.2617C8.16598 47.8579 7.87714 46.6439 7.66032 45.2119C7.36763 43.2784 7.16087 41.3002 7.08988 39.3407L7.81244 45.2119L8.55599 49.2617H8.52927ZM9.00309 49.2617C8.14609 46.1446 7.83359 43.1175 7.54624 39.8961L9.0306 49.2617H9.00309ZM9.46072 49.2617C8.66299 46.294 8.32172 43.4295 8.00262 40.3721C8.50427 43.4119 8.85907 46.2455 9.47565 49.2617H9.46072ZM9.9159 49.2617L9.10544 45.4895L8.53501 40.7689C9.04311 43.6692 9.42289 46.3616 9.92604 49.2617H9.9159ZM10.4053 49.2617C9.67841 46.5564 9.39247 43.9456 9.06748 41.1656C9.58689 43.9302 9.85891 46.5089 10.4299 49.2617H10.4053ZM10.8353 49.2617C10.4419 47.7695 10.285 46.4239 10.1323 44.8945C10.4843 46.4082 10.6338 47.7295 10.887 49.2617H10.8353ZM11.3257 49.2617C10.8051 46.7776 10.4458 44.4784 10.1323 41.9589C10.636 44.4512 10.9932 46.7435 11.3565 49.2617H11.3257ZM11.774 49.2616C11.7738 49.2347 11.7725 49.208 11.7674 49.1824C11.4211 47.4502 10.9779 45.3176 10.7786 43.5854C10.7611 43.4326 10.6977 43.1039 10.8167 42.9902C11.1944 45.0854 11.644 46.9791 11.8435 49.1031C11.8485 49.157 11.8594 49.2097 11.8713 49.2616H11.774ZM11.8055 45.6936C12.1275 46.9194 12.3249 47.9919 12.3379 49.2621C12.1007 48.0057 11.954 46.9619 11.8055 45.6936ZM12.7182 49.2621C12.705 48.9342 12.5463 48.8377 12.642 48.5077C12.841 48.5574 12.7683 49.2621 12.7182 49.2621ZM12.9463 46.15L13.0984 47.519C12.8678 47.4087 12.8763 46.1502 12.9463 46.15ZM13.1745 49.3381C12.9908 49.2546 13.048 48.5854 13.0984 48.5837C13.1487 48.5821 13.2895 49.2179 13.1745 49.3381ZM13.6675 49.0362L13.7435 48.5039L13.8577 48.5419L13.6675 49.0362ZM14.0478 49.1884C14.0794 49.0317 14.0495 48.8385 14.1999 48.732C14.28 48.7527 14.1945 49.199 14.0478 49.1884ZM14.5042 49.3405C14.4708 49.2449 14.6723 48.7881 14.7323 48.8081C14.8559 48.849 14.6192 49.3865 14.5042 49.3405ZM15.1935 49.0834L15.103 49.0649C15.1093 48.9064 15.3053 48.5716 15.3685 48.536C15.3999 48.7117 15.3098 48.9349 15.1935 49.0834ZM15.5717 49.1604C15.6192 48.9025 15.8863 48.365 15.977 48.3077L15.6434 49.175L15.5717 49.1604ZM16.0683 49.2617L15.9643 49.2405C16.0229 48.9617 16.2464 48.5261 16.2812 48.536C16.3842 48.5651 16.1927 49.0007 16.0683 49.2617ZM16.4453 49.3385L16.3867 49.3265L16.6615 48.612C16.805 48.7637 16.6102 49.086 16.4453 49.3385ZM16.9015 49.3442L16.8045 49.3246C16.9404 48.9759 17.1505 48.5209 17.1939 48.536C17.3255 48.5816 17.1039 49.0204 16.9015 49.3442ZM17.2619 49.1981L17.5742 48.536C17.7107 48.7924 17.5087 48.8921 17.2972 49.2054L17.2619 49.1981ZM17.6524 49.2777L17.5743 49.2617C17.7189 48.9066 17.834 48.8619 18.0307 48.5359C17.9699 48.8432 17.8975 49.0164 17.6524 49.2777ZM18.3432 49.3501L18.3145 49.3442C18.7017 48.4171 18.5653 48.7875 19.031 47.8992L18.4225 49.3442L18.3432 49.3501ZM19.7155 47.8232C19.4709 48.8207 19.5463 48.467 18.9902 49.3265C19.3654 48.3422 19.2622 48.774 19.7155 47.8232ZM20.248 47.8232C20.3508 47.9304 20.1103 48.424 20.0578 48.5457C19.9198 48.7024 19.9433 48.6842 19.4864 49.3501L20.248 47.8232ZM19.9537 49.3246L20.9424 47.347C21.1123 47.428 20.1599 49.1924 19.9537 49.3246ZM20.4412 49.3501C21.0667 48.1674 21.0402 48.3079 21.693 47.1386L21.4747 47.6517C21.297 48.069 21.0743 48.4655 20.8103 48.8344L20.4412 49.3501ZM22.7579 46.1499L21.617 48.3555L20.975 49.3246C21.7067 47.7759 21.9265 47.6386 22.7579 46.1499ZM21.4649 49.3064C21.545 48.8941 21.8718 48.554 22.0734 48.2035C22.7643 47.0024 22.7228 46.8949 23.4804 45.8076C23.497 45.7839 23.6905 45.5036 23.7847 45.5034C22.956 46.8352 22.9722 46.9447 22.1494 48.2795C21.9367 48.6247 21.7812 49.0342 21.4649 49.3064ZM23.7847 46.0739C23.9103 45.796 23.9789 45.4696 24.203 45.2372L23.7847 46.0739C23.4262 46.867 23.0478 47.6241 22.6438 48.3936L22.0074 49.3064L23.7847 46.0739ZM24.6593 45.1611C23.8814 47.0802 23.7069 47.572 22.4637 49.2302C23.4877 47.4116 23.7135 47.0254 24.6593 45.1611ZM22.853 49.3246C22.671 49.2404 23.1433 48.8582 23.2523 48.6599C23.8334 47.6024 24.3177 46.4882 24.9635 45.4655C24.5969 46.5674 23.9039 47.6241 23.3283 48.6599C22.948 49.3442 22.853 49.3246 22.853 49.3246ZM25.1155 45.9217L24.6973 47.1006L24.0508 48.2795C24.2882 47.4502 24.8035 46.7216 25.1155 45.9217ZM23.9335 47.8764C24.1339 47.8706 24.0073 48.0417 23.9717 48.1426C23.8158 48.5826 23.4292 48.8776 23.1923 49.3246L23.9335 47.8764ZM24.2547 48.1426C24.4282 48.4259 23.8648 49.0095 23.7223 49.2835L24.2547 48.1426ZM25.496 46.3781C25.2169 47.3035 24.6768 48.1261 24.203 48.9641C24.4792 48.0639 25.0163 47.2026 25.496 46.3781Z" fill="#F4F0E9"></path><path d="M1.05927 43.1379C1.03907 43.0007 1.01894 42.8638 0.998738 42.7275C0.955341 44.7085 1.50793 46.6255 2.05306 48.5165C2.13742 48.8089 2.22153 49.101 2.3033 49.3924H2.63081C1.69662 47.4708 1.37138 45.2599 1.05927 43.1379Z" fill="#F4F0E9"></path><path d="M1.34106 43.2224C1.56874 45.1871 2.09578 47.0813 2.62354 48.9776L2.6244 48.9808C2.66269 49.118 2.70089 49.2556 2.73894 49.3929H3.13116C1.99775 47.052 1.60726 44.3269 1.37919 41.7393L1.34106 43.2224Z" fill="#F4F0E9"></path><path d="M18.791 3.67963C18.8371 3.71294 18.8811 3.75031 18.9226 3.79174C19.0383 3.90709 19.1223 4.04204 19.1746 4.18586C19.2271 4.04204 19.3111 3.90709 19.4268 3.79174C19.4664 3.75218 19.5083 3.71632 19.5521 3.68417C19.5043 3.43409 19.3654 3.21628 19.1711 3.06641C18.9781 3.21537 18.8396 3.43147 18.791 3.67963Z" fill="#6F4E37"></path><path d="M20.2721 3.59208C19.9981 3.56983 19.7168 3.66328 19.5074 3.87231C19.2979 4.08136 19.2043 4.3622 19.2266 4.6356C19.5005 4.65784 19.7819 4.5644 19.9913 4.35535C20.2008 4.14631 20.2944 3.86548 20.2721 3.59208Z" fill="#6F4E37"></path><path d="M18.0772 3.59208C18.3511 3.56983 18.6324 3.66328 18.8419 3.87231C19.0513 4.08136 19.1449 4.3622 19.1227 4.6356C18.8488 4.65784 18.5674 4.5644 18.3579 4.35535C18.1486 4.14631 18.0549 3.86548 18.0772 3.59208Z" fill="#6F4E37"></path><path d="M19.8024 13.9549L19.1746 13.3271L18.5469 13.9549H5.7312V14.0335H18.5469L19.1746 14.6613L19.8024 14.0335H32.618V13.9549H19.8024Z" fill="#6F4E37"></path><path d="M5.81286 16.94C5.78886 16.94 5.77686 16.9313 5.77686 16.9137C5.77686 16.8993 5.78726 16.8897 5.80806 16.8849L5.86327 16.8753C5.89687 16.8689 5.91847 16.86 5.92807 16.8489C5.93927 16.8377 5.94487 16.8153 5.94487 16.7817V15.3703C5.94487 15.3368 5.93927 15.3143 5.92807 15.3032C5.91847 15.2919 5.89687 15.2832 5.86327 15.2768L5.80806 15.2672C5.78726 15.2623 5.77686 15.2528 5.77686 15.2383C5.77686 15.2208 5.78886 15.2119 5.81286 15.2119H6.61934C6.65614 15.2119 6.67614 15.2303 6.67934 15.2672L6.69854 15.6655C6.70174 15.6928 6.69134 15.7064 6.66734 15.7064C6.64814 15.7064 6.63694 15.696 6.63374 15.6752L6.61934 15.5864C6.60174 15.4775 6.56573 15.3984 6.51133 15.3488C6.45692 15.2975 6.38172 15.2719 6.28571 15.2719C6.22171 15.2719 6.17689 15.2815 6.15129 15.3008C6.12729 15.3183 6.11529 15.3503 6.11529 15.3968V15.9752C6.11529 15.9977 6.12649 16.0088 6.14889 16.0088H6.26891C6.33932 16.0088 6.38252 15.9712 6.39852 15.896L6.42252 15.776C6.42892 15.752 6.44252 15.7415 6.46332 15.7448C6.48093 15.748 6.48973 15.7615 6.48973 15.7855V16.3257C6.48973 16.3497 6.48093 16.3633 6.46332 16.3664C6.44252 16.3697 6.42892 16.3593 6.42252 16.3353L6.39852 16.2177C6.38732 16.1617 6.37132 16.1248 6.35052 16.1072C6.33131 16.0897 6.30331 16.0808 6.26651 16.0808H6.14889C6.12649 16.0808 6.11529 16.092 6.11529 16.1144V16.7169C6.11529 16.7745 6.12969 16.816 6.15849 16.8417C6.18889 16.8673 6.24331 16.88 6.32171 16.88C6.40172 16.88 6.46973 16.86 6.52573 16.82C6.58333 16.7785 6.62334 16.7017 6.64574 16.5897L6.67454 16.448C6.67934 16.4273 6.69134 16.4168 6.71054 16.4168C6.73296 16.4168 6.74256 16.4304 6.73936 16.4577L6.71534 16.8849C6.71214 16.9217 6.69214 16.94 6.65534 16.94H5.81286Z" fill="#6F4E37"></path><path d="M7.16453 16.9622C7.13253 16.9622 7.09651 16.9591 7.05651 16.9526C7.01811 16.9462 6.9813 16.9382 6.9461 16.9286C6.9125 16.9191 6.8861 16.9086 6.8669 16.8975C6.85569 16.8911 6.84689 16.8846 6.84049 16.8782C6.83569 16.8702 6.83329 16.8575 6.83329 16.8399L6.82129 16.463C6.82129 16.431 6.83169 16.415 6.85249 16.415C6.8701 16.415 6.8821 16.4294 6.8885 16.4582L6.9101 16.5495C6.9645 16.7782 7.06611 16.8926 7.21493 16.8926C7.29494 16.8926 7.35814 16.8662 7.40455 16.8135C7.45255 16.7591 7.47655 16.683 7.47655 16.5855C7.47655 16.491 7.45175 16.403 7.40215 16.3214C7.35414 16.2399 7.27654 16.159 7.16933 16.079C7.05091 15.9942 6.9645 15.9126 6.9101 15.8341C6.85569 15.7541 6.82849 15.6694 6.82849 15.5797C6.82849 15.4614 6.8693 15.3669 6.9509 15.2965C7.03411 15.2245 7.13973 15.1885 7.26774 15.1885C7.31574 15.1885 7.36214 15.1941 7.40695 15.2054C7.45175 15.2165 7.48855 15.2325 7.51735 15.2534C7.52696 15.2597 7.53416 15.2669 7.53896 15.2749C7.54536 15.2829 7.54856 15.2934 7.54856 15.3061L7.55576 15.6686C7.55576 15.6957 7.54536 15.7094 7.52456 15.7094C7.51015 15.7094 7.49975 15.6981 7.49335 15.6757L7.47655 15.6157C7.44135 15.4925 7.40455 15.403 7.36614 15.3469C7.32934 15.2894 7.27574 15.2605 7.20533 15.2605C7.13653 15.2605 7.08131 15.2829 7.03971 15.3277C6.99971 15.3725 6.9797 15.4357 6.9797 15.5174C6.9797 15.5861 7.00211 15.6517 7.04691 15.7141C7.09171 15.7766 7.17013 15.8526 7.28214 15.9422C7.40215 16.0397 7.48935 16.1342 7.54376 16.2254C7.59976 16.315 7.62776 16.411 7.62776 16.5135C7.62776 16.603 7.60776 16.6815 7.56776 16.7486C7.52776 16.8159 7.47255 16.8686 7.40215 16.9071C7.33334 16.9439 7.25413 16.9622 7.16453 16.9622Z" fill="#6F4E37"></path><path d="M7.86876 16.9409C7.84475 16.9409 7.83275 16.9321 7.83275 16.9145C7.83275 16.8969 7.84315 16.8874 7.86396 16.8858L7.97196 16.8689C8.00397 16.8641 8.02557 16.8561 8.03677 16.8449C8.04797 16.8321 8.05357 16.8089 8.05357 16.7754V15.3351C8.05357 15.3128 8.04877 15.2968 8.03917 15.2871C8.02957 15.2776 8.00957 15.2728 7.97917 15.2728C7.91996 15.2728 7.86156 15.2984 7.80395 15.3496C7.74635 15.4008 7.70873 15.4833 7.69113 15.5968L7.67913 15.676C7.67593 15.6969 7.66473 15.7073 7.64553 15.7073C7.62153 15.7073 7.61113 15.6936 7.61433 15.6664L7.63593 15.232C7.63913 15.1951 7.65353 15.1768 7.67913 15.1768C7.69033 15.1768 7.70073 15.18 7.71033 15.1864C7.71995 15.1911 7.73595 15.1968 7.75835 15.2031C7.78235 15.2096 7.81995 15.2128 7.87116 15.2128H8.40641C8.45761 15.2128 8.49441 15.2096 8.51682 15.2031C8.54082 15.1968 8.55762 15.1911 8.56722 15.1864C8.57842 15.18 8.58882 15.1768 8.59842 15.1768C8.62402 15.1768 8.63843 15.1951 8.64163 15.232L8.66323 15.6664C8.66643 15.6936 8.65603 15.7073 8.63203 15.7073C8.61282 15.7073 8.60162 15.6969 8.59842 15.676L8.58642 15.5968C8.57042 15.4833 8.53362 15.4008 8.47601 15.3496C8.41841 15.2984 8.3592 15.2728 8.2984 15.2728C8.268 15.2728 8.248 15.2776 8.2384 15.2871C8.22878 15.2968 8.22398 15.3128 8.22398 15.3351V16.7754C8.22398 16.8089 8.22958 16.8321 8.2408 16.8449C8.2536 16.8561 8.2752 16.8641 8.3056 16.8689L8.41361 16.8858C8.43441 16.8874 8.44481 16.8969 8.44481 16.9145C8.44481 16.9321 8.43281 16.9409 8.40881 16.9409H7.86876Z" fill="#6F4E37"></path><path d="M8.76149 16.962C8.72629 16.962 8.69588 16.9508 8.67028 16.9283C8.64628 16.9043 8.63428 16.8732 8.63428 16.8348C8.63428 16.798 8.64628 16.7683 8.67028 16.746C8.69588 16.722 8.72629 16.71 8.76149 16.71C8.79349 16.71 8.82229 16.722 8.8479 16.746C8.8735 16.7683 8.8863 16.798 8.8863 16.8348C8.8863 16.8732 8.8735 16.9043 8.8479 16.9283C8.82229 16.9508 8.79349 16.962 8.76149 16.962Z" fill="#6F4E37"></path><path d="M30.2723 12.64L29.0553 9.84959L28.851 12.1358C28.8394 12.2517 28.8728 12.3458 28.951 12.4183C29.0293 12.4907 29.1249 12.5299 29.2379 12.5356V12.5791H28.3687V12.5356C28.4787 12.5299 28.5714 12.4893 28.6468 12.4139C28.7222 12.3386 28.7655 12.2444 28.7772 12.1314L28.9945 9.72789C28.9394 9.61489 28.8699 9.52651 28.7859 9.46276C28.7048 9.39612 28.5989 9.3628 28.4685 9.3628V9.31934H29.5117L30.5722 11.775L31.6328 9.31934H32.4455V9.3628C32.3528 9.3628 32.2745 9.39032 32.2108 9.44537C32.147 9.50044 32.118 9.57576 32.1239 9.67139L32.3455 12.2444C32.36 12.3429 32.4064 12.4168 32.4847 12.4661C32.5658 12.5154 32.6454 12.54 32.7237 12.54V12.5791H31.3763V12.54C31.4255 12.54 31.4763 12.5284 31.5284 12.5052C31.5805 12.482 31.6225 12.4487 31.6544 12.4052C31.6893 12.3618 31.7023 12.3111 31.6935 12.2531L31.4807 9.85394L30.2723 12.64Z" fill="#6F4E37"></path><path d="M27.0124 12.64C26.7574 12.64 26.5357 12.5907 26.3474 12.4922C26.159 12.3937 26.0127 12.2546 25.9084 12.0749C25.807 11.8924 25.7562 11.6794 25.7562 11.436V9.7105C25.7562 9.60619 25.7244 9.52216 25.6606 9.45841C25.5969 9.39467 25.5129 9.3628 25.4086 9.3628H25.3911V9.31934H26.7907V9.3628H26.7776C26.6734 9.3628 26.5894 9.39467 26.5256 9.45841C26.4619 9.52216 26.43 9.60619 26.43 9.7105V11.436C26.43 11.7431 26.5082 11.9865 26.6646 12.1662C26.824 12.3429 27.0385 12.4313 27.3079 12.4313C27.5802 12.4313 27.7947 12.3415 27.9512 12.1618C28.1076 11.9793 28.1859 11.7374 28.1859 11.436V9.7757C28.1859 9.6511 28.1482 9.55259 28.0729 9.48015C27.9975 9.40771 27.8976 9.36859 27.773 9.3628V9.31934H28.6726V9.3628C28.5481 9.36859 28.4481 9.40771 28.3727 9.48015C28.2975 9.55259 28.2597 9.6511 28.2597 9.7757V11.436C28.2597 11.6794 28.2091 11.8909 28.1076 12.0706C28.0091 12.2502 27.8657 12.3908 27.6774 12.4922C27.4919 12.5907 27.2702 12.64 27.0124 12.64Z" fill="#6F4E37"></path><path d="M24.2441 12.6393C24.1689 12.6393 24.1065 12.6365 24.0573 12.6306C24.0109 12.6248 23.9645 12.6176 23.9181 12.6088C23.8719 12.6002 23.8153 12.5929 23.7486 12.5871C23.682 12.5813 23.5908 12.5784 23.4749 12.5784L23.3228 11.4484H23.3749C23.4184 11.8048 23.5169 12.08 23.6704 12.2742C23.8269 12.4654 24.0269 12.5611 24.2703 12.5611C24.4499 12.5611 24.5963 12.5103 24.7093 12.4089C24.8223 12.3075 24.8788 12.1757 24.8788 12.0134C24.8788 11.9439 24.8656 11.8772 24.8396 11.8135C24.8164 11.7497 24.7759 11.6816 24.7179 11.6092C24.66 11.5368 24.5831 11.4585 24.4875 11.3745C24.3919 11.2876 24.2731 11.1905 24.1311 11.0833L23.953 10.9486C23.7356 10.7834 23.585 10.6356 23.5009 10.5052C23.4169 10.3748 23.3749 10.2328 23.3749 10.0793C23.3749 9.82429 23.4676 9.62436 23.653 9.47949C23.8414 9.3317 24.0891 9.25781 24.3963 9.25781C24.4716 9.25781 24.5325 9.26071 24.5789 9.26651C24.6281 9.2723 24.6745 9.27955 24.7179 9.28824C24.7643 9.29694 24.8179 9.30417 24.8788 9.30997C24.9396 9.31577 25.0178 9.31866 25.1134 9.31866L25.1569 10.1966H25.1134C25.0729 9.92716 24.9859 9.71419 24.8526 9.55771C24.7194 9.40125 24.5585 9.32301 24.3703 9.32301C24.2369 9.32301 24.1298 9.36212 24.0486 9.44036C23.9704 9.5186 23.9313 9.62291 23.9313 9.7533C23.9313 9.86631 23.9674 9.97496 24.0399 10.0793C24.1153 10.1807 24.2441 10.2995 24.4268 10.4357L24.6136 10.5748C24.8049 10.7138 24.9555 10.8428 25.0656 10.9616C25.1786 11.0775 25.2598 11.1905 25.309 11.3006C25.3583 11.4107 25.3829 11.5281 25.3829 11.6527C25.3829 11.8439 25.3351 12.0134 25.2395 12.1612C25.1439 12.309 25.0105 12.4249 24.8396 12.5089C24.6715 12.5901 24.473 12.6335 24.2441 12.6393Z" fill="#6F4E37"></path><path d="M20.5784 12.5791V12.5356C20.6827 12.5356 20.7667 12.5037 20.8305 12.44C20.8942 12.3763 20.9261 12.2922 20.9261 12.1879V9.7105C20.9261 9.60619 20.8942 9.52216 20.8305 9.45841C20.7667 9.39467 20.6827 9.3628 20.5784 9.3628V9.31934H22.0301C22.2532 9.32222 22.4474 9.36135 22.6125 9.43669C22.7806 9.50912 22.911 9.61054 23.0037 9.74092C23.0994 9.87132 23.1471 10.0249 23.1471 10.2016C23.1471 10.3784 23.0994 10.5334 23.0037 10.6667C22.911 10.7971 22.7777 10.9 22.6039 10.9753C22.4329 11.0477 22.23 11.0839 21.9954 11.0839H21.5955V12.1879C21.5955 12.2922 21.6274 12.3763 21.6911 12.44C21.7549 12.5037 21.8389 12.5356 21.9432 12.5356H21.9519V12.5791H20.5784ZM21.5955 11.0274H21.8519C21.9765 11.0274 22.0837 10.9927 22.1735 10.9231C22.2662 10.8507 22.3372 10.7522 22.3865 10.6276C22.4386 10.503 22.4647 10.361 22.4647 10.2016C22.4647 10.0423 22.4386 9.9003 22.3865 9.7757C22.3372 9.6511 22.2662 9.55404 22.1735 9.4845C22.0809 9.41205 21.9721 9.37584 21.8476 9.37584H21.5955V11.0274Z" fill="#6F4E37"></path><path d="M19.2498 12.5791V12.5356H19.2541C19.3585 12.5356 19.4425 12.5037 19.5063 12.44C19.57 12.3763 19.6019 12.2922 19.6019 12.1879V9.7105C19.6019 9.60619 19.57 9.52216 19.5063 9.45841C19.4425 9.39467 19.3585 9.3628 19.2541 9.3628H19.2498V9.31934H20.6276V9.3628H20.6233C20.5189 9.3628 20.4349 9.39467 20.3711 9.45841C20.3074 9.52216 20.2755 9.60619 20.2755 9.7105V12.1879C20.2755 12.2922 20.3074 12.3763 20.3711 12.44C20.4349 12.5037 20.5189 12.5356 20.6233 12.5356H20.6276V12.5791H19.2498Z" fill="#6F4E37"></path><path d="M17.3974 12.6393C17.0496 12.6393 16.744 12.5697 16.4803 12.4307C16.2195 12.2887 16.0153 12.0917 15.8674 11.8396C15.7225 11.5846 15.6501 11.2876 15.6501 10.9486C15.6501 10.6095 15.7225 10.314 15.8674 10.0619C16.0153 9.80691 16.2195 9.60988 16.4803 9.47079C16.744 9.32881 17.0496 9.25781 17.3974 9.25781C17.745 9.25781 18.0493 9.32881 18.3101 9.47079C18.5738 9.60988 18.778 9.80691 18.9229 10.0619C19.0708 10.314 19.1446 10.6095 19.1446 10.9486C19.1446 11.2876 19.0708 11.5846 18.9229 11.8396C18.778 12.0917 18.5738 12.2887 18.3101 12.4307C18.0493 12.5697 17.745 12.6393 17.3974 12.6393ZM17.3974 12.5697C17.548 12.5697 17.6856 12.5306 17.8103 12.4524C17.9349 12.3742 18.042 12.2641 18.1319 12.1221C18.2188 11.9801 18.2855 11.8091 18.3318 11.6092C18.3811 11.4093 18.4058 11.1876 18.4058 10.9442C18.4058 10.7008 18.3811 10.4792 18.3318 10.2792C18.2855 10.0764 18.2188 9.90398 18.1319 9.762C18.042 9.62001 17.9349 9.50991 17.8103 9.43168C17.6856 9.35344 17.548 9.31433 17.3974 9.31433C17.2466 9.31433 17.109 9.35344 16.9845 9.43168C16.8599 9.50991 16.7541 9.62001 16.6671 9.762C16.5774 9.90398 16.5078 10.0764 16.4585 10.2792C16.4121 10.4792 16.389 10.7008 16.389 10.9442C16.389 11.1876 16.4121 11.4093 16.4585 11.6092C16.5078 11.8091 16.5774 11.9801 16.6671 12.1221C16.7541 12.2641 16.8599 12.3742 16.9845 12.4524C17.109 12.5306 17.2466 12.5697 17.3974 12.5697Z" fill="#6F4E37"></path><path d="M13.9498 12.6393C13.5645 12.6393 13.2297 12.5697 12.9458 12.4307C12.6647 12.2916 12.4474 12.0945 12.2938 11.8396C12.1403 11.5846 12.0635 11.2847 12.0635 10.9399C12.0635 10.6037 12.1403 10.3096 12.2938 10.0576C12.4474 9.80546 12.6618 9.60988 12.9371 9.47079C13.2152 9.32881 13.5398 9.25781 13.9107 9.25781C14.0237 9.25781 14.1165 9.26216 14.1888 9.27086C14.2642 9.27665 14.3308 9.2839 14.3888 9.29259C14.4467 9.30129 14.5105 9.30998 14.58 9.31866C14.6525 9.32446 14.7423 9.32736 14.8495 9.32736L14.9798 10.1966H14.9365C14.8842 9.92136 14.767 9.70549 14.5843 9.54903C14.4047 9.39255 14.1802 9.31433 13.9107 9.31433C13.7455 9.31433 13.5948 9.35344 13.4587 9.43168C13.3225 9.50991 13.2066 9.61856 13.111 9.75765C13.0153 9.89962 12.94 10.0706 12.885 10.2705C12.8328 10.4704 12.8067 10.6921 12.8067 10.9355C12.8067 11.1818 12.8313 11.4064 12.8806 11.6092C12.9327 11.8091 13.0037 11.9801 13.0936 12.1221C13.1863 12.2641 13.2963 12.3742 13.4238 12.4524C13.5543 12.5306 13.6992 12.5697 13.8585 12.5697C13.9773 12.5697 14.0903 12.5494 14.1976 12.5089C14.3076 12.4683 14.3917 12.4176 14.4496 12.3568V11.2484C14.4496 11.1441 14.4177 11.0601 14.354 10.9964C14.2902 10.9326 14.2062 10.9007 14.102 10.9007H14.0888V10.8573H15.4885V10.9007H15.471C15.3667 10.9007 15.2827 10.9326 15.219 10.9964C15.1552 11.0601 15.1233 11.1441 15.1233 11.2484V12.3568C15.0653 12.4147 14.9726 12.4654 14.8451 12.5089C14.7206 12.5494 14.5786 12.5813 14.4192 12.6046C14.2627 12.6277 14.1062 12.6393 13.9498 12.6393Z" fill="#6F4E37"></path><path d="M9.99504 12.6393C9.64733 12.6393 9.34164 12.5697 9.07795 12.4307C8.81718 12.2887 8.61289 12.0917 8.46512 11.8396C8.32024 11.5846 8.2478 11.2876 8.2478 10.9486C8.2478 10.6095 8.32024 10.314 8.46512 10.0619C8.61289 9.80691 8.81718 9.60988 9.07795 9.47079C9.34164 9.32881 9.64733 9.25781 9.99504 9.25781C10.3428 9.25781 10.647 9.32881 10.9078 9.47079C11.1715 9.60988 11.3757 9.80691 11.5206 10.0619C11.6684 10.314 11.7423 10.6095 11.7423 10.9486C11.7423 11.2876 11.6684 11.5846 11.5206 11.8396C11.3757 12.0917 11.1715 12.2887 10.9078 12.4307C10.647 12.5697 10.3428 12.6393 9.99504 12.6393ZM9.99504 12.5697C10.1457 12.5697 10.2834 12.5306 10.4079 12.4524C10.5325 12.3742 10.6398 12.2641 10.7296 12.1221C10.8165 11.9801 10.8831 11.8091 10.9295 11.6092C10.9788 11.4093 11.0034 11.1876 11.0034 10.9442C11.0034 10.7008 10.9788 10.4792 10.9295 10.2792C10.8831 10.0764 10.8165 9.90398 10.7296 9.762C10.6398 9.62001 10.5325 9.50991 10.4079 9.43168C10.2834 9.35344 10.1457 9.31433 9.99504 9.31433C9.84437 9.31433 9.70673 9.35344 9.58214 9.43168C9.45754 9.50991 9.35178 9.62001 9.26485 9.762C9.17503 9.90398 9.10548 10.0764 9.05623 10.2792C9.00987 10.4792 8.98668 10.7008 8.98668 10.9442C8.98668 11.1876 9.00987 11.4093 9.05623 11.6092C9.10548 11.8091 9.17503 11.9801 9.26485 12.1221C9.35178 12.2641 9.45754 12.3742 9.58214 12.4524C9.70673 12.5306 9.84437 12.5697 9.99504 12.5697Z" fill="#6F4E37"></path><path d="M5.7312 12.5791V12.5356H5.73555C5.83986 12.5356 5.92389 12.5081 5.98764 12.4531C6.05139 12.398 6.08326 12.3183 6.08326 12.214V9.7105C6.08326 9.60619 6.05139 9.52216 5.98764 9.45841C5.92389 9.39467 5.83986 9.3628 5.73555 9.3628H5.7312V9.31934H7.11769V9.3628H7.1003C6.99599 9.3628 6.91196 9.39467 6.84821 9.45841C6.78448 9.52216 6.7526 9.60619 6.7526 9.7105V12.2314C6.7526 12.3241 6.77433 12.3966 6.81779 12.4487C6.86415 12.498 6.94384 12.5226 7.05684 12.5226H7.14811C7.406 12.5226 7.62331 12.4429 7.80008 12.2835C7.97683 12.1242 8.08838 11.8996 8.13474 11.6099H8.1782L8.04781 12.5791H5.7312Z" fill="#6F4E37"></path><path d="M22.3719 7.86195C22.3479 7.86195 22.3359 7.85315 22.3359 7.83555C22.3359 7.82115 22.3464 7.81155 22.3672 7.80675L22.4224 7.79714C22.4561 7.79074 22.4776 7.78194 22.4872 7.77074C22.4984 7.75954 22.5041 7.73714 22.5041 7.70354V6.2922C22.5041 6.2586 22.4984 6.2362 22.4872 6.22499C22.4776 6.21379 22.4561 6.20499 22.4224 6.19859L22.3672 6.18899C22.3464 6.18419 22.3359 6.17459 22.3359 6.16019C22.3359 6.14259 22.3479 6.13379 22.3719 6.13379H23.1784C23.2153 6.13379 23.2353 6.15219 23.2384 6.18899L23.2577 6.58743C23.2609 6.61463 23.2504 6.62824 23.2264 6.62824C23.2073 6.62824 23.1961 6.61783 23.1929 6.59703L23.1784 6.50823C23.1609 6.39941 23.1248 6.3202 23.0704 6.2706C23.0161 6.21939 22.9408 6.19379 22.8448 6.19379C22.7808 6.19379 22.7361 6.20339 22.7104 6.22259C22.6864 6.2402 22.6744 6.2722 22.6744 6.3186V6.89706C22.6744 6.91946 22.6857 6.93066 22.7081 6.93066H22.8281C22.8984 6.93066 22.9417 6.89306 22.9577 6.81785L22.9817 6.69784C22.9881 6.67384 23.0017 6.66344 23.0224 6.66664C23.0401 6.66984 23.0488 6.68344 23.0488 6.70744V7.24749C23.0488 7.27149 23.0401 7.2851 23.0224 7.2883C23.0017 7.2915 22.9881 7.2811 22.9817 7.25709L22.9577 7.13948C22.9464 7.08348 22.9304 7.04668 22.9097 7.02908C22.8904 7.01146 22.8624 7.00266 22.8257 7.00266H22.7081C22.6857 7.00266 22.6744 7.01386 22.6744 7.03628V7.63873C22.6744 7.69634 22.6888 7.73794 22.7177 7.76354C22.7481 7.78914 22.8024 7.80195 22.8808 7.80195C22.9608 7.80195 23.0288 7.78194 23.0848 7.74194C23.1424 7.70034 23.1824 7.62353 23.2049 7.51151L23.2337 7.3699C23.2384 7.3491 23.2504 7.3387 23.2697 7.3387C23.2921 7.3387 23.3017 7.3523 23.2984 7.3795L23.2744 7.80675C23.2713 7.84355 23.2513 7.86195 23.2144 7.86195H22.3719Z" fill="#6F4E37"></path><path d="M18.5895 7.86195C18.5655 7.86195 18.5535 7.85315 18.5535 7.83555C18.5535 7.82115 18.564 7.81155 18.5847 7.80675L18.64 7.79714C18.6735 7.79074 18.6951 7.78194 18.7047 7.77074C18.716 7.75954 18.7215 7.73714 18.7215 7.70354V6.2922C18.7215 6.2586 18.716 6.2362 18.7047 6.22499C18.6951 6.21379 18.6735 6.20499 18.64 6.19859L18.5847 6.18899C18.564 6.18419 18.5535 6.17459 18.5535 6.16019C18.5535 6.14259 18.5655 6.13379 18.5895 6.13379H19.0287C19.0527 6.13379 19.0647 6.14339 19.0647 6.16259C19.0647 6.17699 19.056 6.18579 19.0383 6.18899L18.9736 6.19859C18.94 6.20339 18.9176 6.21219 18.9063 6.22499C18.8967 6.2378 18.892 6.261 18.892 6.2946V6.89706C18.892 6.91946 18.9031 6.93066 18.9256 6.93066H19.4008C19.4232 6.93066 19.4343 6.91946 19.4343 6.89706V6.2946C19.4343 6.261 19.4288 6.2378 19.4176 6.22499C19.408 6.21219 19.3863 6.20339 19.3528 6.19859L19.288 6.18899C19.2703 6.18579 19.2616 6.17699 19.2616 6.16259C19.2616 6.14339 19.2736 6.13379 19.2976 6.13379H19.7368C19.7608 6.13379 19.7728 6.14259 19.7728 6.16019C19.7728 6.17459 19.7625 6.18419 19.7416 6.18899L19.6865 6.19859C19.6528 6.20499 19.6305 6.21379 19.6192 6.22499C19.6096 6.2362 19.6048 6.2586 19.6048 6.2922V7.70354C19.6048 7.73714 19.6096 7.75954 19.6192 7.77074C19.6305 7.78194 19.6528 7.79074 19.6865 7.79714L19.7416 7.80675C19.7625 7.81155 19.7728 7.82115 19.7728 7.83555C19.7728 7.85315 19.7608 7.86195 19.7368 7.86195H19.2976C19.2736 7.86195 19.2616 7.85235 19.2616 7.83315C19.2616 7.81875 19.2703 7.80995 19.288 7.80675L19.3528 7.79714C19.3863 7.79234 19.408 7.78354 19.4176 7.77074C19.4288 7.75794 19.4343 7.73474 19.4343 7.70114V7.03628C19.4343 7.01386 19.4232 7.00266 19.4008 7.00266H18.9256C18.9031 7.00266 18.892 7.01386 18.892 7.03628V7.70114C18.892 7.73474 18.8967 7.75794 18.9063 7.77074C18.9176 7.78354 18.94 7.79234 18.9736 7.79714L19.0383 7.80675C19.056 7.80995 19.0647 7.81875 19.0647 7.83315C19.0647 7.85235 19.0527 7.86195 19.0287 7.86195H18.5895Z" fill="#6F4E37"></path><path d="M15.2126 7.86182C15.1886 7.86182 15.1766 7.85302 15.1766 7.83542C15.1766 7.81782 15.1869 7.80822 15.2077 7.80662L15.3157 7.78982C15.3477 7.78502 15.3693 7.77702 15.3806 7.76582C15.3917 7.75302 15.3973 7.72981 15.3973 7.69621V6.25607C15.3973 6.23367 15.3926 6.21767 15.3829 6.20807C15.3733 6.19847 15.3533 6.19367 15.3229 6.19367C15.2637 6.19367 15.2053 6.21927 15.1477 6.27047C15.0901 6.32168 15.0524 6.40408 15.0349 6.51769L15.0229 6.59691C15.0197 6.61771 15.0084 6.62811 14.9893 6.62811C14.9653 6.62811 14.9549 6.61451 14.9581 6.58731L14.9797 6.15286C14.9829 6.11606 14.9973 6.09766 15.0229 6.09766C15.0341 6.09766 15.0444 6.10086 15.0541 6.10726C15.0637 6.11206 15.0797 6.11766 15.1021 6.12406C15.1261 6.13046 15.1637 6.13366 15.2149 6.13366H15.7502C15.8013 6.13366 15.8382 6.13046 15.8606 6.12406C15.8846 6.11766 15.9013 6.11206 15.9109 6.10726C15.9222 6.10086 15.9326 6.09766 15.9422 6.09766C15.9678 6.09766 15.9822 6.11606 15.9854 6.15286L16.0069 6.58731C16.0102 6.61451 15.9998 6.62811 15.9758 6.62811C15.9566 6.62811 15.9454 6.61771 15.9422 6.59691L15.9302 6.51769C15.9142 6.40408 15.8773 6.32168 15.8198 6.27047C15.7622 6.21927 15.7029 6.19367 15.6422 6.19367C15.6117 6.19367 15.5917 6.19847 15.5822 6.20807C15.5726 6.21767 15.5677 6.23367 15.5677 6.25607V7.69621C15.5677 7.72981 15.5733 7.75302 15.5846 7.76582C15.5973 7.77702 15.6189 7.78502 15.6493 7.78982L15.7573 7.80662C15.7782 7.80822 15.7886 7.81782 15.7886 7.83542C15.7886 7.85302 15.7766 7.86182 15.7526 7.86182H15.2126Z" fill="#6F4E37"></path><path d="M31.9471 16.9218C31.9311 16.9249 31.9191 16.9234 31.9111 16.9169C31.9046 16.9105 31.9015 16.9025 31.9015 16.8929C31.9015 16.8785 31.9102 16.8674 31.9278 16.8594C32.0511 16.8129 32.1527 16.7354 32.2327 16.6265C32.3127 16.5161 32.3678 16.3665 32.3983 16.1776C32.4015 16.1649 32.3998 16.1569 32.3935 16.1536C32.3871 16.1505 32.3791 16.1529 32.3695 16.1609C32.3198 16.1993 32.2591 16.2185 32.1871 16.2185C32.1118 16.2185 32.0447 16.1953 31.9855 16.1489C31.9262 16.1025 31.8791 16.04 31.8438 15.9616C31.8102 15.8816 31.7935 15.7936 31.7935 15.6976C31.7935 15.6 31.8118 15.5104 31.8486 15.4288C31.8855 15.3456 31.9342 15.2784 31.9951 15.2271C32.0575 15.176 32.1262 15.1504 32.2015 15.1504C32.2831 15.1504 32.3543 15.1776 32.4151 15.232C32.4758 15.2864 32.5231 15.3624 32.5567 15.46C32.592 15.556 32.6095 15.6689 32.6095 15.7984C32.6095 15.9969 32.5791 16.1753 32.5183 16.3336C32.4591 16.4905 32.3791 16.6193 32.2783 16.7201C32.1791 16.8209 32.0687 16.8881 31.9471 16.9218ZM31.9662 15.6856C31.9662 16.0009 32.0407 16.1585 32.1895 16.1585C32.2711 16.1585 32.3327 16.116 32.3743 16.0313C32.4158 15.9465 32.4367 15.8264 32.4367 15.6713C32.4367 15.5224 32.4167 15.4096 32.3767 15.3328C32.3383 15.2544 32.2791 15.2151 32.1991 15.2151C32.0438 15.2151 31.9662 15.372 31.9662 15.6856Z" fill="#6F4E37"></path><path d="M31.2772 16.9028C31.2532 16.9028 31.2412 16.894 31.2412 16.8764C31.2412 16.8588 31.2516 16.8492 31.2725 16.8477L31.366 16.838C31.3996 16.8348 31.422 16.8268 31.4332 16.814C31.446 16.8012 31.4525 16.778 31.4525 16.7444V15.3187C31.4525 15.2914 31.4445 15.2739 31.4285 15.2659C31.414 15.2563 31.3948 15.253 31.3708 15.2563L31.2845 15.2659C31.2556 15.2674 31.2412 15.257 31.2412 15.2347C31.2412 15.217 31.254 15.2059 31.2796 15.201C31.3645 15.1867 31.4268 15.173 31.4668 15.1603C31.5068 15.1459 31.5365 15.1387 31.5556 15.1387C31.5892 15.1387 31.6061 15.1563 31.6061 15.1914V16.7444C31.6061 16.778 31.6116 16.8012 31.6228 16.814C31.6356 16.8268 31.6588 16.8348 31.6925 16.838L31.7716 16.8477C31.7925 16.8492 31.8028 16.8588 31.8028 16.8764C31.8028 16.894 31.7908 16.9028 31.7668 16.9028H31.2772Z" fill="#6F4E37"></path><path d="M30.7732 16.9241C30.6805 16.9241 30.5989 16.8849 30.5285 16.8065C30.458 16.7281 30.4036 16.6218 30.3652 16.4873C30.3269 16.3529 30.3076 16.2025 30.3076 16.036C30.3076 15.8696 30.3269 15.72 30.3652 15.5873C30.4036 15.4528 30.458 15.3464 30.5285 15.268C30.5989 15.1896 30.6805 15.1504 30.7732 15.1504C30.8661 15.1504 30.9469 15.1896 31.0157 15.268C31.0861 15.3464 31.1405 15.4528 31.1789 15.5873C31.2189 15.72 31.2389 15.8696 31.2389 16.036C31.2389 16.2025 31.2189 16.3529 31.1789 16.4873C31.1405 16.6218 31.0861 16.7281 31.0157 16.8065C30.9469 16.8849 30.8661 16.9241 30.7732 16.9241ZM30.7732 16.8594C30.8741 16.8594 30.9477 16.7914 30.9941 16.6553C31.0421 16.5193 31.0661 16.3129 31.0661 16.036C31.0661 15.7593 31.0421 15.5536 30.9941 15.4193C30.9477 15.2831 30.8741 15.2151 30.7732 15.2151C30.6725 15.2151 30.5981 15.2831 30.55 15.4193C30.5036 15.5536 30.4805 15.7593 30.4805 16.036C30.4805 16.3129 30.5036 16.5193 30.55 16.6553C30.5981 16.7914 30.6725 16.8594 30.7732 16.8594Z" fill="#6F4E37"></path><path d="M29.4379 16.9025C29.4092 16.9025 29.3948 16.8921 29.3948 16.8714C29.3948 16.8601 29.4003 16.8458 29.4115 16.8281L29.6995 16.3889C29.8195 16.2065 29.906 16.0496 29.9588 15.9185C30.0132 15.7856 30.0404 15.664 30.0404 15.5536C30.0404 15.4544 30.0197 15.3784 29.978 15.3256C29.938 15.2728 29.8795 15.2464 29.8028 15.2464C29.726 15.2464 29.6564 15.2736 29.5939 15.328C29.5315 15.3808 29.4915 15.4656 29.4739 15.5824C29.4692 15.608 29.4572 15.6208 29.4379 15.6208C29.4139 15.6208 29.4035 15.6048 29.4068 15.5728C29.4179 15.4673 29.4451 15.384 29.4884 15.3231C29.5331 15.2608 29.5868 15.2168 29.6492 15.1911C29.7115 15.164 29.7748 15.1504 29.8388 15.1504C29.9492 15.1504 30.0388 15.184 30.1077 15.2511C30.178 15.3168 30.2133 15.4088 30.2133 15.5273C30.2133 15.6104 30.1932 15.696 30.1532 15.784C30.1148 15.8704 30.0612 15.9656 29.9924 16.0696C29.9252 16.1721 29.8475 16.2896 29.7595 16.4225L29.5724 16.7058C29.5628 16.7201 29.5619 16.7329 29.5699 16.7441C29.5795 16.7538 29.5924 16.7585 29.6084 16.7585H29.8652C29.926 16.7585 29.9764 16.7521 30.0164 16.7394C30.0564 16.7249 30.0884 16.6994 30.1124 16.6625C30.1364 16.6241 30.1548 16.5698 30.1676 16.4993L30.1892 16.3865C30.194 16.3656 30.206 16.3553 30.2253 16.3553C30.2477 16.3553 30.2573 16.3689 30.254 16.3961L30.2253 16.8474C30.222 16.8841 30.202 16.9025 30.1652 16.9025H29.4379Z" fill="#6F4E37"></path></g><defs><clipPath id="clip0_49_1056"><rect width="40" height="50" fill="white"></rect></clipPath></defs></svg>