<svg xmlns="http://www.w3.org/2000/svg" width="39" height="50" viewBox="0 0 39 50" fill="none"><g clip-path="url(#clip0_45_451)"><path d="M8.01419 22.4415L9.01372 19.1914L1.51611 26.641C2.47675 28.9069 3.87442 30.9907 5.65718 32.762C5.65718 32.762 6.31606 29.2722 9.76224 26.3765C10.3815 25.8562 10.0135 24.5307 8.93205 24.2984C8.18133 24.0167 7.77966 23.2042 8.01419 22.4415Z" fill="#6F4E37"></path><path d="M29.3226 27.3098C30.2733 28.2529 31.0725 29.3069 31.7112 30.4559C31.7021 30.4103 31.6913 30.3655 31.6775 30.3225C30.993 28.1974 31.0338 26.3557 31.4433 25.3325C31.5885 24.97 31.4162 24.5594 31.0533 24.4105L29.2363 23.6649C29.0045 23.5698 28.9244 23.2837 29.0735 23.0833L29.2037 22.9082C29.6359 22.3272 29.8383 21.6087 29.7725 20.8893L29.6171 19.1914L25.3811 23.4003L29.3226 27.3098Z" fill="#6F4E37"></path><path d="M19.3156 0C16.9147 0 14.5587 0.444811 12.3601 1.28816H26.2711C24.0725 0.444811 21.7164 0 19.3156 0Z" fill="#6F4E37"></path><path d="M31.1272 10.2266H36.3925C36.6152 10.6455 36.822 11.0723 37.0128 11.506H30.8338C30.9786 11.0983 31.0782 10.67 31.1272 10.2266ZM19.6078 10.2266H2.2382C2.01551 10.6455 1.80867 11.0723 1.61792 11.506H19.9012C19.7565 11.0983 19.6568 10.67 19.6078 10.2266Z" fill="#6F4E37"></path><path d="M37.5219 12.7861H30.1891C29.1492 14.3329 27.3762 15.3536 25.3676 15.3536C23.359 15.3536 21.5861 14.3329 20.5461 12.7861H1.10907C0.382313 14.8248 0 16.9893 0 19.192C0 21.2984 0.349995 23.3695 1.01591 25.3294L8.10336 18.2873L9.01389 17.3826L14.1612 22.4969L18.4056 18.2866L19.3154 17.3841L20.2253 18.2866L24.4697 22.4969L29.617 17.3826L37.6149 25.3293C38.2809 23.3695 38.6309 21.2984 38.6309 19.1919C38.6309 16.9893 38.2486 14.8248 37.5219 12.7861Z" fill="#6F4E37"></path><path d="M28.9634 2.56738H9.66726C9.0017 2.94862 8.35783 3.36961 7.7395 3.82941H30.891C30.2727 3.36961 29.6289 2.94862 28.9634 2.56738Z" fill="#6F4E37"></path><path d="M30.8277 7.66797H34.7596C35.0735 8.08334 35.3705 8.50984 35.6484 8.94738H31.1252C31.075 8.50387 30.9738 8.07543 30.8277 7.66797ZM19.9074 7.66797H3.87121C3.55732 8.08334 3.26028 8.50984 2.98242 8.94738H19.61C19.6602 8.50387 19.7613 8.07543 19.9074 7.66797Z" fill="#6F4E37"></path><path d="M28.9944 5.10938H32.4358C32.6177 5.27673 32.7975 5.44664 32.9735 5.62144C33.2246 5.87103 33.4673 6.12734 33.7031 6.38889H30.1776C29.85 5.90534 29.4503 5.47387 28.9944 5.10938ZM21.7408 5.10938H6.19503C6.01309 5.27673 5.83329 5.44664 5.65736 5.62144C5.40625 5.87103 5.16347 6.12734 4.92773 6.38889H20.5577C20.8853 5.90534 21.2849 5.47387 21.7408 5.10938Z" fill="#6F4E37"></path><path d="M25.3676 14.0742C27.8567 14.0742 29.8745 12.0693 29.8745 9.59618C29.8745 7.12304 27.8567 5.11816 25.3676 5.11816C22.8784 5.11816 20.8606 7.12304 20.8606 9.59618C20.8606 12.0693 22.8784 14.0742 25.3676 14.0742Z" fill="#6F4E37"></path><path d="M24.8866 48.7451H13.7439C17.2559 50.4184 21.3747 50.4184 24.8866 48.7451Z" fill="#6F4E37"></path><path d="M6.51394 35.9678C6.47182 36.3873 6.45023 36.8086 6.44995 37.2299H12.3359C12.3466 36.8013 12.3968 36.3793 12.4843 35.9678H6.51394Z" fill="#6F4E37"></path><path d="M22.3633 43.627C21.4254 44.0785 20.3891 44.3171 19.3153 44.3171C18.2415 44.3171 17.2052 44.0783 16.2672 43.627H8.17505C8.43143 44.0662 8.71652 44.4936 9.03013 44.9063H29.6004C29.9141 44.4935 30.1992 44.0662 30.4555 43.627H22.3633Z" fill="#6F4E37"></path><path d="M10.1426 46.1865C10.168 46.212 10.1926 46.238 10.2182 46.2634C10.6617 46.7034 11.13 47.1037 11.6178 47.4659H27.013C27.5009 47.1037 27.9691 46.7034 28.4127 46.2634C28.4384 46.238 28.4629 46.212 28.4883 46.1865H10.1426Z" fill="#6F4E37"></path><path d="M12.8914 34.6883C13.2362 33.8884 13.7354 33.153 14.3745 32.5192L19.3153 27.6183L24.2561 32.5192C24.8952 33.153 25.3944 33.8885 25.7392 34.6883H31.9217C31.4362 32.3163 30.2671 30.0548 28.4126 28.2153L19.3153 19.1914L10.2181 28.2153C8.3636 30.0548 7.19445 32.3164 6.70898 34.6883H12.8914Z" fill="#6F4E37"></path><path d="M26.1465 35.9678C26.2338 36.3793 26.2841 36.8013 26.2947 37.2299H32.1807C32.1804 36.8086 32.1588 36.3873 32.1166 35.9678H26.1465Z" fill="#6F4E37"></path><path d="M12.759 39.7891C12.6062 39.3763 12.4934 38.9483 12.4227 38.5098H6.51392C6.55688 38.9385 6.62216 39.3656 6.70873 39.7891H12.759Z" fill="#6F4E37"></path><path d="M25.2383 41.0684C24.9615 41.5051 24.6333 41.9145 24.2562 42.2884C24.236 42.3084 24.2153 42.328 24.1948 42.3477H31.1086C31.2931 41.9284 31.4531 41.5011 31.59 41.0684H25.2383Z" fill="#6F4E37"></path><path d="M26.2082 38.5098C26.1374 38.9483 26.0247 39.3764 25.8718 39.7891H31.9221C32.0088 39.3656 32.074 38.9385 32.117 38.5098H26.2082Z" fill="#6F4E37"></path><path d="M14.4359 42.3479C14.4154 42.3281 14.3948 42.3085 14.3745 42.2884C13.9976 41.9145 13.6694 41.5052 13.3926 41.0684H7.04077C7.17762 41.5014 7.33772 41.9285 7.52216 42.3479H14.4359Z" fill="#6F4E37"></path></g><defs><clipPath id="clip0_45_451"><rect width="39" height="50" fill="white"></rect></clipPath></defs></svg>