<svg xmlns="http://www.w3.org/2000/svg" width="52" height="30" viewBox="0 0 52 30" fill="none"><path d="M15.8781 26.1981C15.8781 26.5717 15.9163 26.9409 15.9885 27.3042C16.2976 27.1618 16.5905 26.9839 16.8673 26.7748C20.2707 24.2053 19.7555 17.7243 15.7176 12.2976C12.2126 7.58702 7.20461 5.21913 3.71875 6.35785C3.82916 6.59657 3.91012 6.85011 4.00286 7.09921L4.1324 7.59592C4.17804 7.76346 4.19717 7.93101 4.23103 8.09856C4.33849 8.77171 4.36793 9.4419 4.42387 10.0795C4.47687 10.7185 4.58138 11.3205 4.77864 11.8899C4.8596 12.179 5.00534 12.4444 5.12163 12.7187L5.3498 13.1101C5.42488 13.2406 5.49848 13.3741 5.59417 13.4942C5.77376 13.7403 5.9401 13.9953 6.14767 14.2207L6.44355 14.5691C6.54954 14.6774 6.65848 14.7767 6.76741 14.8805C6.97497 15.0999 7.21933 15.2601 7.44603 15.4484C7.69481 15.6026 7.93329 15.7701 8.20268 15.8887C8.72968 16.1556 9.30526 16.3499 9.92795 16.5382C10.5492 16.7369 11.2145 16.9578 11.8505 17.2884C12.1729 17.4441 12.4673 17.6561 12.7661 17.8563C13.0414 18.0891 13.3358 18.3011 13.5698 18.5665C13.692 18.697 13.8201 18.8201 13.9349 18.952L14.2617 19.3642C14.4884 19.6311 14.6636 19.9351 14.852 20.2286C14.9521 20.371 15.0301 20.5311 15.1096 20.6868C15.1877 20.8469 15.2716 21.0026 15.3437 21.1628C15.4644 21.4979 15.6072 21.824 15.6823 22.1754C15.8633 22.8634 15.9193 23.5751 15.906 24.2468C15.9001 24.9185 15.8545 25.5649 15.8751 26.1966L15.8781 26.1981Z" fill="#6F4E37"></path><path d="M41.6293 27.8217C39.851 27.7016 38.0727 27.6111 36.2945 27.537C35.4569 27.5029 34.6193 27.4747 33.7817 27.4495C35.3965 26.6829 36.8877 25.651 38.1949 24.3758C39.1209 23.4714 39.9217 22.478 40.5915 21.4148C41.7029 22.002 42.9409 22.3119 44.2083 22.3119C48.5038 22.3119 52 18.7904 52 14.4639C52 10.1373 48.5053 6.61587 44.2083 6.61587C43.7358 6.61587 43.2662 6.65887 42.8054 6.74339C42.7701 6.70335 42.7304 6.66629 42.6877 6.63367C42.0017 2.91947 34.9814 0 26.4198 0C19.0845 0 12.8797 2.14401 10.8232 5.09461C10.7408 5.15836 10.6701 5.23991 10.6201 5.33777C10.4287 5.70252 10.5671 6.15475 10.9307 6.3475C13.6849 7.81094 16.2728 10.7022 18.0334 14.2815C18.1041 14.4253 18.1777 14.5766 18.2498 14.7337C20.2754 19.0825 20.8539 23.8094 19.8029 27.3932C18.3558 27.4228 16.9073 27.4658 15.4603 27.5207C15.4868 27.5118 15.5118 27.5029 15.5383 27.494C15.5103 27.4198 15.4838 27.3413 15.4558 27.2671L15.3263 26.7704C15.2807 26.6029 15.2615 26.4353 15.2277 26.2678C15.1202 25.5946 15.0908 24.9244 15.0334 24.2883C14.9804 23.6493 14.8758 23.0473 14.6786 22.478C14.5976 22.1888 14.4519 21.9234 14.3341 21.6476L14.1104 21.2562C14.0353 21.1257 13.9617 20.9923 13.866 20.8722C13.6849 20.6275 13.5201 20.3695 13.3125 20.1456L13.0152 19.7987C12.9121 19.6905 12.8002 19.5911 12.6942 19.4858C12.4881 19.2679 12.2438 19.1048 12.0156 18.918C11.7683 18.7652 11.5298 18.5977 11.259 18.4776C10.7334 18.2092 10.1564 18.0165 9.53518 17.8267C8.91396 17.628 8.24859 17.4071 7.61265 17.0764C7.29174 16.9207 6.99585 16.7087 6.69555 16.51C6.42322 16.2787 6.12733 16.0637 5.89327 15.7983C5.77109 15.6678 5.64449 15.5433 5.5282 15.4128L5.2014 15.0006C4.9747 14.7337 4.801 14.4283 4.6111 14.1362C4.51394 13.9939 4.43445 13.8352 4.35496 13.6766C4.27547 13.5179 4.19156 13.3622 4.11796 13.2021C3.99725 12.867 3.85445 12.5408 3.78085 12.1924C3.59979 11.5044 3.5409 10.7927 3.5571 10.121C3.56151 9.44637 3.60715 8.80436 3.58654 8.16976C3.58654 7.60633 3.49821 7.04734 3.3407 6.50467C2.95355 6.6648 2.58847 6.87387 2.2499 7.12889C-1.15206 9.69695 -0.638305 16.1794 3.39959 21.6061C5.88738 24.9511 9.13477 27.1144 12.0568 27.6793C11.2472 27.7223 10.4376 27.7712 9.62792 27.8261C8.73879 27.8884 7.84965 27.9536 6.96052 28.0307C6.07139 28.1078 5.18226 28.1923 4.29313 28.2991C5.18226 28.4073 6.07139 28.4918 6.96052 28.5675C7.84965 28.6461 8.73879 28.7113 9.62792 28.7721C11.4062 28.8922 13.1844 28.9826 14.9627 29.0568C18.5192 29.1976 22.0757 29.2643 25.6323 29.2629C29.1888 29.2629 32.7453 29.1961 36.3018 29.0538C38.0801 28.9797 39.8584 28.8892 41.6366 28.7691C42.5258 28.7068 43.4149 28.6431 44.304 28.5645C45.1931 28.4874 46.0823 28.4044 46.9714 28.2976C46.0823 28.1909 45.1931 28.1063 44.304 28.0307C43.4149 27.9536 42.5258 27.8884 41.6366 27.8261L41.6293 27.8217ZM42.9865 13.0864V8.22907C43.3869 8.15048 43.7947 8.10897 44.2083 8.10897C47.6868 8.10897 50.5162 10.9587 50.5162 14.4624C50.5162 17.9661 47.6868 20.8158 44.2083 20.8158C43.2 20.8158 42.2137 20.5741 41.326 20.113C42.4124 17.9527 42.988 15.5626 42.988 13.085L42.9865 13.0864ZM25.6264 27.3294C24.6578 27.3294 23.6906 27.3338 22.722 27.3442C22.2833 27.2716 21.849 27.1811 21.4192 27.0699C22.2951 23.2549 21.6341 18.4761 19.5924 14.0947C19.5408 13.9835 19.4878 13.8738 19.4378 13.7685C21.5546 14.2133 23.9217 14.4624 26.4198 14.4624C33.2208 14.4624 39.0487 12.6194 41.5027 9.99943V13.085C41.5027 20.2524 36.1222 26.2174 29.0887 27.3502C27.9346 27.3353 26.7805 27.3279 25.6264 27.3279V27.3294Z" fill="#6F4E37"></path><path d="M39.6998 14.6878C39.8234 14.2949 39.6071 13.8753 39.217 13.7507C38.8269 13.6262 38.4103 13.8442 38.2851 14.2371C38.2675 14.2949 36.3876 20.0894 31.5769 22.4943C31.2104 22.6782 31.0602 23.1259 31.2427 23.4951C31.3723 23.7576 31.6343 23.9103 31.9081 23.9103C32.0185 23.9103 32.1319 23.8851 32.2379 23.8317C34.4739 22.7138 36.473 20.7773 38.0202 18.2345C39.1802 16.3262 39.6807 14.7545 39.7013 14.6878H39.6998Z" fill="#6F4E37"></path></svg>