<svg xmlns="http://www.w3.org/2000/svg" width="185" height="153" viewBox="0 0 185 153" fill="none"><g opacity="0.05"><path d="M76.5342 129.728C47.1767 129.728 23.2827 105.854 23.2827 76.5001C23.2827 47.1464 47.1673 23.2725 76.5342 23.2725C105.901 23.2725 129.786 47.1464 129.786 76.5001C129.786 105.854 105.901 129.728 76.5342 129.728ZM76.5342 26.0922C48.7283 26.0922 26.1037 48.7067 26.1037 76.5001C26.1037 104.293 48.7283 126.908 76.5342 126.908C104.34 126.908 126.965 104.293 126.965 76.5001C126.965 48.7067 104.34 26.0922 76.5342 26.0922Z" fill="white"></path><path d="M76.5344 153C34.3318 153 0 118.684 0 76.5C0 34.3165 34.3318 0 76.5344 0C95.6892 0 114.017 7.1058 128.141 20.0109C142.171 32.8314 150.897 50.2669 152.702 69.1122L149.891 69.3848C146.252 31.4403 114.712 2.81976 76.525 2.81976C35.8834 2.81976 2.81162 35.8767 2.81162 76.5C2.81162 117.123 35.8834 150.18 76.525 150.18C114.712 150.18 146.252 121.56 149.891 83.6152L152.702 83.8878C150.897 102.733 142.171 120.169 128.141 132.989C114.017 145.894 95.6892 153 76.5344 153Z" fill="white"></path><path d="M178.797 85.1566H151.301V82.3368H178.797C180.64 82.3368 182.135 80.8424 182.135 79.0001V73.9997C182.135 72.1575 180.64 70.663 178.797 70.663H151.301V67.8433H178.797C182.191 67.8433 184.956 70.6066 184.956 73.9997V79.0001C184.956 82.3932 182.191 85.1566 178.797 85.1566Z" fill="white"></path><path d="M78.763 117.217L44.2805 88.3054C43.0581 87.1493 42.4 85.6642 42.353 84.0664C42.306 82.4685 42.889 80.9552 43.9892 79.7991C46.2648 77.4117 50.0544 77.3084 52.4428 79.5736L78.603 106.117L102.366 80.9835C104.745 78.6337 108.544 78.6618 110.857 81.0116C113.17 83.3614 113.142 87.1493 110.791 89.4615L78.763 117.217ZM48.3523 80.7579C47.5154 80.7579 46.6691 81.0868 46.0485 81.7448C45.4655 82.3557 45.1646 83.1547 45.1834 84.0006C45.2022 84.8465 45.5594 85.6266 46.1706 86.2094L78.7442 113.514L108.892 87.3937C110.067 86.2376 110.086 84.2262 108.863 82.9855C107.641 81.7448 105.638 81.726 104.397 82.9479L78.6595 110.168L50.4869 81.5756C49.9038 81.0211 49.1328 80.7391 48.3617 80.7391L48.3523 80.7579Z" fill="white"></path><path d="M78.763 95.5432L50.1201 69.2443C48.9447 68.1352 48.2865 66.6501 48.2395 65.0522C48.1924 63.4544 48.7754 61.9411 49.8756 60.785C52.1513 58.3976 55.9408 58.2942 58.3293 60.5594L58.4326 60.6628L78.6218 84.2172L98.181 60.7568C100.522 58.4446 104.321 58.4728 106.635 60.8226C108.948 63.1724 108.92 66.9603 106.569 69.2725L78.7724 95.5432H78.763ZM54.2105 61.7343C53.3736 61.7343 52.5367 62.0633 51.9161 62.7212C51.3331 63.3322 51.0323 64.1311 51.0511 64.977C51.0699 65.8229 51.427 66.6031 52.0382 67.1858L78.7347 91.6895L104.604 67.2422C105.826 66.0391 105.835 64.0371 104.622 62.7964C103.409 61.5745 101.444 61.5369 100.203 62.7212L78.65 88.5878L56.3451 62.5614C55.7433 62.0163 54.9816 61.7437 54.2199 61.7437L54.2105 61.7343Z" fill="white"></path><path d="M77.6625 71.9508L76.3743 69.037C75.7349 67.5895 70.1023 54.769 70.1023 51.1785C70.1023 47.0147 73.4967 43.6216 77.6625 43.6216C81.8282 43.6216 85.2229 47.0147 85.2229 51.1785C85.2229 54.769 79.5903 67.5801 78.9508 69.037L77.6625 71.9508ZM77.6625 46.4507C75.0483 46.4507 72.9233 48.575 72.9233 51.1879C72.9233 53.0584 75.4621 59.6942 77.6625 64.9107C79.8629 59.6942 82.4018 53.0584 82.4018 51.1879C82.4018 48.575 80.2766 46.4507 77.6625 46.4507Z" fill="white"></path></g></svg>