<svg xmlns="http://www.w3.org/2000/svg" width="214" height="47" viewBox="0 0 214 47" fill="none"><path d="M5.03122 9.1781C4.39592 7.5635 4.67172 5.707 5.25692 4.1456C5.87262 2.5026 6.94472 0.8641 8.5471 0C8.6266 1.7314 8.0977 3.442 7.5198 4.9845C7.0001 6.3719 6.36242 7.85 5.30942 8.9974C5.14762 9.8668 5.02362 10.7338 4.93642 11.5968C5.28542 10.6851 5.85132 9.8541 6.55742 9.1859C7.4665 8.3255 8.8188 7.6616 10.0882 8.0542C9.7164 9.4574 8.8689 10.8025 7.8652 11.7461C7.0752 12.4888 6.03232 13.4405 4.80392 13.4779C4.75332 14.7479 4.78192 16.0063 4.88642 17.2476C5.05972 16.3392 5.43102 15.4838 5.96752 14.8468C6.70452 13.9715 7.7973 12.9021 9.1929 13.081C9.1167 14.5012 8.5502 15.9563 7.7613 17.0497C7.1344 17.9186 6.30682 19.026 5.13212 19.3121C5.32022 20.5318 5.58222 21.7313 5.91462 22.905C5.91782 22.0063 6.11632 21.1242 6.51012 20.4167C7.0651 19.419 7.9295 18.1748 9.3267 18.0775C9.5315 19.4708 9.254 20.9939 8.6942 22.2053C8.2468 23.1736 7.6503 24.4084 6.56302 24.9193C7.0196 26.1821 7.5599 27.4096 8.1794 28.5944C7.9619 27.5732 7.9706 26.4971 8.228 25.5289C8.5827 24.1941 9.4632 22.792 10.8768 22.3851C11.3765 23.8587 11.3076 25.5033 11.0173 27.0011C10.7784 28.2343 10.309 29.6827 9.2568 30.4838C9.9447 31.5939 10.7057 32.6593 11.5356 33.673C11.0897 32.6788 10.8681 31.5915 10.987 30.596C11.1602 29.1458 11.5677 27.5944 13.049 26.8212C13.8894 28.2712 14.0841 29.8979 14.1555 31.5046C14.2132 32.8035 14.0261 34.4056 13.124 35.4623C14.1163 36.494 15.187 37.4596 16.3306 38.35C15.5923 37.4029 15.0753 36.2915 14.9658 35.1924C14.8112 33.6395 14.8868 31.93 16.2649 30.7904C17.4435 32.0214 18.1468 33.8343 18.4915 35.4089C18.7963 36.8011 19.1145 38.4489 18.3888 39.819C19.8442 40.769 21.3979 41.606 23.0406 42.3148C21.8847 41.4911 20.9385 40.361 20.4877 39.1942C19.897 37.6647 19.5316 35.8422 20.6823 34.3104C22.224 35.2979 23.3571 36.9827 24.2498 38.5193C25.0158 39.8378 25.8087 41.6576 25.4153 43.2279C26.3248 43.5365 27.2578 43.8075 28.2131 44.0387L28.1563 44.2732C27.1974 44.0411 26.2608 43.7692 25.3476 43.4597C24.7078 45.3504 22.6119 45.975 20.9169 46.2508C18.5018 46.6437 15.6261 45.8824 13.5643 44.3488C14.6525 42.8109 16.8728 42.6549 18.547 42.5372L18.5688 42.5357C20.4029 42.4068 22.3866 42.579 24.231 43.0582C22.1003 42.2471 20.1066 41.2273 18.2682 40.0284L18.2411 40.0712C17.2337 41.7047 15.2111 41.7684 13.6235 41.6651C11.4692 41.5249 8.982 40.215 7.5425 38.4043C8.8965 37.2163 10.8964 37.5488 12.446 37.8064L12.4535 37.8076C14.183 38.0951 16.0729 38.7223 17.6593 39.688C17.5082 39.569 17.3603 39.4431 17.2166 39.3111C15.6742 38.2114 14.2514 36.9813 12.9603 35.6401C12.9453 35.6551 12.9301 35.67 12.9148 35.6848C11.6594 36.9477 9.831 36.617 8.4041 36.206C6.49462 35.656 4.51432 33.9967 3.56532 32.0918C5.03592 31.2678 6.79412 31.9468 8.1617 32.4839C9.6627 33.0734 11.2508 34.0164 12.4719 35.2185C12.346 35.0597 12.2259 34.8938 12.1124 34.7221C10.9774 33.4411 9.9564 32.0694 9.0588 30.6223L9.0138 30.6505C7.5936 31.567 5.98452 30.9033 4.70922 30.2506C2.98012 29.3657 1.59062 27.4209 0.990221 25.5083C2.52412 25.017 4.03962 25.9813 5.21772 26.745C6.50622 27.5802 7.8114 28.7714 8.7073 30.1375C8.6415 30.0029 8.5802 29.8653 8.5237 29.7251C7.6629 28.2233 6.93162 26.6467 6.33962 25.0112L6.30912 25.0216L6.30662 25.0225C5.01532 25.5134 3.57732 24.7502 2.63982 23.9132C1.33682 22.75 0.418421 20.9617 0.203121 19.2146C1.54942 19.0402 2.81782 20.0818 3.68502 20.9702C4.68322 21.9927 5.57912 23.2012 6.12992 24.5435C6.08972 24.3977 6.05522 24.2496 6.02622 24.1C5.52502 22.5631 5.14532 20.9781 4.89502 19.3577L4.87552 19.3601L4.86892 19.3612C3.50372 19.5891 2.24152 18.5512 1.48742 17.5439C0.429421 16.1304 -0.115979 14.1741 0.0207209 12.401C1.38062 12.4961 2.41612 13.7898 3.08762 14.8363C3.86482 16.0478 4.50932 17.4189 4.79162 18.8533C4.78302 18.7392 4.77792 18.6244 4.77612 18.5093C4.56882 16.8601 4.49492 15.1771 4.56252 13.4733L4.55862 13.4731C3.17062 13.4231 2.14482 12.1344 1.61522 10.9913C0.857421 9.3555 0.735421 7.2878 1.24122 5.5452C2.56412 5.9165 3.30162 7.434 3.73692 8.6021C4.23882 9.9489 4.58912 11.4178 4.59192 12.8782C4.66412 11.653 4.80952 10.4181 5.03122 9.1781Z" fill="#6F4E37"></path><path d="M32.3685 6.1554V12.0052C32.3685 14.5781 30.0383 15.816 26.5066 15.816C23.2055 15.816 20.8389 14.5903 20.8389 11.7018V6.1554H24.1279V11.7018C24.1279 12.7334 25.0138 13.3766 26.6401 13.3766C28.1936 13.3766 29.116 12.7091 29.116 11.7139V6.1554H32.3685Z" fill="#6F4E37"></path><path d="M43.3226 13.146V15.6825H34.2324V6.1554H37.5214V13.146H43.3226Z" fill="#6F4E37"></path><path d="M53.0965 8.5463V6.1554H41.7246V8.5463H45.7418V15.6825H49.0672V8.5463H53.0965Z" fill="#6F4E37"></path><path fill-rule="evenodd" clip-rule="evenodd" d="M64.7624 7.1264C65.1994 7.5754 65.4064 8.1944 65.4064 9.05599C65.4064 9.7964 65.2244 10.4275 64.9204 10.8522C64.5804 11.3134 64.0584 11.7018 63.4154 11.7989L66.2924 15.6825H62.6754L60.3084 12.3207H57.3596V15.6825H54.1191V6.1554H61.7044C63.2094 6.1554 64.1924 6.5195 64.7624 7.1264ZM62.1414 9.85709C62.2264 9.71139 62.2504 9.5172 62.2504 9.3595C62.2504 9.1774 62.2264 8.9832 62.1414 8.8619C61.9714 8.5463 61.6314 8.4614 61.1214 8.4614H57.3717V10.1969H61.1824C61.7044 10.1969 62.0204 10.0998 62.1414 9.85709Z" fill="#6F4E37"></path><path fill-rule="evenodd" clip-rule="evenodd" d="M70.6716 13.9228H75.8176L76.6546 15.6825H80.1626L75.3566 6.1554H71.4366L66.3516 15.6825H69.7856L70.6716 13.9228ZM74.7856 11.7867H71.7396L72.9416 9.493L73.3056 8.61909L73.6456 9.48079L74.7856 11.7867Z" fill="#6F4E37"></path><path fill-rule="evenodd" clip-rule="evenodd" d="M64.4156 17.4768C62.3796 17.4768 61.3086 18.4418 61.3086 19.8598C61.3086 21.4603 62.4326 22.2722 64.4156 22.2722C66.5986 22.2722 67.5166 21.3308 67.5166 19.8598C67.5166 18.3653 66.4806 17.4768 64.4156 17.4768ZM64.4156 21.0896C63.2566 21.0896 62.9206 20.613 62.9206 19.8775C62.9206 19.1538 63.2856 18.6772 64.4096 18.6772C65.6396 18.6772 65.9156 19.2126 65.9156 19.8775C65.9156 20.5836 65.5806 21.0896 64.4156 21.0896Z" fill="#6F4E37"></path><path d="M58.2919 22.2016V19.4656H55.2205V20.46H56.8621C56.8504 20.5365 56.7915 20.6836 56.715 20.7718C56.5444 20.9719 56.0913 21.1484 55.5029 21.1484C54.891 21.1484 54.4968 20.9895 54.285 20.7424C54.1438 20.56 54.0614 20.3011 54.0614 19.9128C54.0614 19.5068 54.1438 19.2303 54.3026 19.0479C54.5321 18.789 54.9204 18.6772 55.4912 18.6772C56.0031 18.6772 56.3561 18.7948 56.5209 18.9419C56.6268 19.0302 56.7091 19.1538 56.7268 19.2361H58.2507C58.2449 19.089 58.1978 18.8537 58.1154 18.6831C57.7506 17.9417 56.9033 17.5004 55.4618 17.5004C54.2085 17.5004 53.3671 17.8828 52.9023 18.4595C52.5963 18.8537 52.4551 19.3479 52.4551 19.901C52.4551 20.513 52.6198 21.0366 52.8905 21.3838C53.3494 21.9781 54.1673 22.2722 55.1499 22.2722C56.0149 22.2722 56.6091 22.0663 56.9857 21.7545L57.0269 22.2016H58.2919Z" fill="#6F4E37"></path><path d="M42.263 19.4068C43.4574 19.5362 43.9693 19.9599 43.9693 20.766C43.9693 21.7427 43.0161 22.2722 41.1391 22.2722C39.3916 22.2722 38.6385 21.778 38.3501 21.1308C38.2854 20.9778 38.256 20.7895 38.2383 20.6718H39.9329C39.9447 20.7424 39.9859 20.8483 40.0447 20.9189C40.1859 21.0896 40.5801 21.1896 41.2509 21.1896C42.1159 21.1896 42.3218 21.066 42.3218 20.8366C42.3218 20.5894 42.11 20.5365 41.3274 20.4541C41.0156 20.4247 40.5213 20.3776 40.3154 20.36C38.8209 20.2246 38.2678 19.7598 38.2678 18.9655C38.2678 18.1417 39.2445 17.5122 41.0273 17.5122C42.6101 17.5122 43.3456 17.9829 43.6516 18.5713C43.7457 18.7478 43.8045 18.9478 43.8222 19.089H42.1276C42.1217 19.0243 42.0982 18.9596 42.0335 18.8772C41.904 18.7066 41.5745 18.5948 40.9861 18.5948C40.1565 18.5948 39.9388 18.6948 39.9388 18.9066C39.9388 19.142 40.2154 19.195 41.1391 19.295C41.498 19.3244 42.0688 19.3832 42.263 19.4068Z" fill="#6F4E37"></path><path fill-rule="evenodd" clip-rule="evenodd" d="M25.3705 17.977C25.6823 18.2241 25.8588 18.6419 25.8588 19.2479C25.8588 19.7422 25.7353 20.1128 25.4999 20.3717C25.1822 20.7365 24.6585 20.9013 23.976 20.9072C23.7641 20.9131 21.9519 20.9072 21.9519 20.9072V22.2016H20.3691V17.5828H23.9524C24.5879 17.5828 25.0704 17.7122 25.3705 17.977ZM24.1996 19.6068C24.2466 19.5245 24.2702 19.4185 24.2702 19.2714C24.2702 19.1185 24.2407 18.989 24.1878 18.9184C24.0878 18.7713 23.8995 18.7007 23.5935 18.7007H21.9401V19.8304H23.5817C23.9112 19.8304 24.1054 19.7539 24.1996 19.6068Z" fill="#6F4E37"></path><path fill-rule="evenodd" clip-rule="evenodd" d="M31.6485 18.0535C31.8604 18.2712 31.9604 18.5713 31.9604 18.989C31.9604 19.3479 31.8721 19.6539 31.725 19.8598C31.5603 20.0834 31.3073 20.2717 30.9954 20.3188L32.3899 22.2016H30.6365L29.4891 20.5718H28.0593V22.2016H26.4883V17.5828H30.1658C30.8954 17.5828 31.372 17.7593 31.6485 18.0535ZM30.3776 19.3774C30.4188 19.3068 30.4305 19.2126 30.4305 19.1361C30.4305 19.0479 30.4188 18.9537 30.3776 18.8949C30.2952 18.7419 30.1305 18.7007 29.8834 18.7007H28.0652V19.5421H29.9128C30.1658 19.5421 30.3188 19.495 30.3776 19.3774Z" fill="#6F4E37"></path><path d="M37.7615 22.2016V21.0543H34.4489V20.4541H37.6262V19.3303H34.4489V18.736H37.7203V17.5828H32.8955V22.2016H37.7615Z" fill="#6F4E37"></path><path d="M49.6948 18.7419V17.5828H44.1816V18.7419H46.1291V22.2016H47.7413V18.7419H49.6948Z" fill="#6F4E37"></path><path d="M51.8154 17.5828V22.2016H50.1973V17.5828H51.8154Z" fill="#6F4E37"></path><path d="M60.6702 17.5828V22.2016H59.0518V17.5828H60.6702Z" fill="#6F4E37"></path><path d="M73.7599 17.5828V20.4188C73.7599 21.6662 72.6299 22.2664 70.9179 22.2664C69.3179 22.2664 68.1699 21.6721 68.1699 20.2717V17.5828H69.7649V20.2717C69.7649 20.7718 70.1939 21.0837 70.9829 21.0837C71.7359 21.0837 72.1829 20.7601 72.1829 20.2776V17.5828H73.7599Z" fill="#6F4E37"></path><path d="M80.1119 20.766C80.1119 19.9599 79.5999 19.5362 78.4059 19.4068C78.2109 19.3832 77.6409 19.3244 77.2819 19.295C76.3579 19.195 76.0809 19.142 76.0809 18.9066C76.0809 18.6948 76.2989 18.5948 77.1289 18.5948C77.7169 18.5948 78.0469 18.7066 78.1759 18.8772C78.2409 18.9596 78.2639 19.0243 78.2699 19.089H79.9649C79.9469 18.9478 79.8879 18.7478 79.7939 18.5713C79.4879 17.9829 78.7529 17.5122 77.1699 17.5122C75.3869 17.5122 74.4099 18.1417 74.4099 18.9655C74.4099 19.7598 74.9639 20.2246 76.4579 20.36L76.5539 20.3685L76.7139 20.3831L77.4699 20.4541C78.2529 20.5365 78.4639 20.5894 78.4639 20.8366C78.4639 21.066 78.2589 21.1896 77.3939 21.1896C76.7229 21.1896 76.3289 21.0896 76.1869 20.9189C76.1289 20.8483 76.0869 20.7424 76.0759 20.6718H74.3809C74.3989 20.7895 74.4279 20.9778 74.4929 21.1308C74.7809 21.778 75.5339 22.2722 77.2819 22.2722C79.1589 22.2722 80.1119 21.7427 80.1119 20.766Z" fill="#6F4E37"></path><path fill-rule="evenodd" clip-rule="evenodd" d="M38.9664 23.9702C37.6433 23.9702 36.9473 24.5974 36.9473 25.519C36.9473 26.5591 37.6777 27.0868 38.9664 27.0868C40.3852 27.0868 40.9817 26.475 40.9817 25.519C40.9817 24.5477 40.3087 23.9702 38.9664 23.9702ZM38.9664 26.3182C38.2131 26.3182 37.9951 26.0084 37.9951 25.5304C37.9951 25.0601 38.2322 24.7503 38.9626 24.7503C39.7618 24.7503 39.9416 25.0983 39.9416 25.5304C39.9416 25.9893 39.7236 26.3182 38.9664 26.3182Z" fill="#6F4E37"></path><path d="M31.6085 26.1079C31.6085 25.584 31.2758 25.3086 30.4995 25.2245C30.3733 25.2092 30.0024 25.171 29.7691 25.1519C29.1687 25.0868 28.989 25.0524 28.989 24.8995C28.989 24.7618 29.1305 24.6968 29.6697 24.6968C30.0521 24.6968 30.2662 24.7694 30.3504 24.8803C30.3924 24.9339 30.4077 24.9759 30.4116 25.018H31.5129C31.5014 24.9262 31.4632 24.7962 31.402 24.6815C31.2031 24.2991 30.7251 23.9932 29.6964 23.9932C28.5378 23.9932 27.903 24.4023 27.903 24.9377C27.903 25.454 28.2624 25.7561 29.2337 25.844C29.3676 25.8555 29.6888 25.8861 29.8915 25.9052C30.4001 25.9587 30.5377 25.9932 30.5377 26.1538C30.5377 26.3029 30.4039 26.3832 29.8418 26.3832C29.4058 26.3832 29.1496 26.3182 29.0578 26.2073C29.0196 26.1614 28.9928 26.0926 28.9852 26.0467H27.8838C27.8953 26.1232 27.9144 26.2455 27.9565 26.345C28.1439 26.7656 28.6334 27.0868 29.7691 27.0868C30.989 27.0868 31.6085 26.7427 31.6085 26.1079Z" fill="#6F4E37"></path><path fill-rule="evenodd" clip-rule="evenodd" d="M23.9737 26.1918C23.9737 26.3983 23.9163 26.601 23.8016 26.7348C23.6257 26.949 23.2968 27.0407 22.8724 27.0407H20.207V24.0388H22.7997C23.2127 24.0388 23.4766 24.1383 23.6219 24.2874C23.7519 24.4174 23.8093 24.5895 23.8093 24.7845C23.8093 24.9796 23.7634 25.1402 23.664 25.2587C23.5836 25.3582 23.446 25.4346 23.3007 25.4538C23.5148 25.4805 23.7175 25.5876 23.8322 25.7367C23.9278 25.8476 23.9737 26.0159 23.9737 26.1918ZM22.685 25.1402C22.7232 25.0981 22.7462 25.0369 22.7462 24.9643C22.7462 24.8916 22.7232 24.8304 22.6735 24.7884C22.62 24.7386 22.5205 24.7195 22.3752 24.7195H21.2089V25.209H22.402C22.532 25.209 22.6315 25.1899 22.685 25.1402ZM22.5129 26.3601C22.6926 26.3601 22.7997 26.3371 22.8609 26.2798C22.8991 26.2415 22.9144 26.1842 22.9144 26.1115C22.9144 26.035 22.8953 25.9777 22.8494 25.9318C22.7921 25.8821 22.6926 25.8591 22.5244 25.8591H21.2089V26.3601H22.5129Z" fill="#6F4E37"></path><path d="M27.5736 26.2951V27.0407H24.4111V24.0388H27.5468V24.7884H25.4206V25.1746H27.4856V25.905H25.4206V26.2951H27.5736Z" fill="#6F4E37"></path><path d="M35.3292 24.0388V24.7922H34.0596V27.0407H33.0119V24.7922H31.7461V24.0388H35.3292Z" fill="#6F4E37"></path><path d="M44.481 24.0388V24.7998H42.4428V25.2243H44.3854V25.9777H42.4428V27.0407H41.4141V24.0388H44.481Z" fill="#6F4E37"></path><path d="M49.6622 24.7922V24.0388H46.0791V24.7922H47.3449V27.0407H48.3927V24.7922H49.6622Z" fill="#6F4E37"></path><path d="M53.5714 24.0388V27.0407H52.5465V25.9509H51.0092V27.0407H49.9844V24.0388H51.0092V25.1325H52.5465V24.0388H53.5714Z" fill="#6F4E37"></path><path d="M57.3412 27.0407V26.2951H55.1882V25.905H57.2532V25.1746H55.1882V24.7884H57.3144V24.0388H54.1787V27.0407H57.3412Z" fill="#6F4E37"></path><path d="M63.6805 24.0388H64.6705L63.5735 27.0407H62.4495C62.4495 27.0407 61.8485 25.2473 61.8445 25.1975C61.8415 25.2473 61.2365 27.0407 61.2365 27.0407H60.1165L58.9922 24.0388H60.1045C60.1045 24.0388 60.7555 25.9279 60.7555 25.9738C60.7555 25.9279 61.3555 24.0388 61.3555 24.0388H62.4305C62.4305 24.0388 63.0345 25.9279 63.0345 25.9738C63.0345 25.9279 63.6805 24.0388 63.6805 24.0388Z" fill="#6F4E37"></path><path fill-rule="evenodd" clip-rule="evenodd" d="M66.6352 23.9702C65.3122 23.9702 64.6162 24.5974 64.6162 25.519C64.6162 26.5591 65.3462 27.0868 66.6352 27.0868C68.0542 27.0868 68.6502 26.475 68.6502 25.519C68.6502 24.5477 67.9772 23.9702 66.6352 23.9702ZM66.6352 26.3182C65.8822 26.3182 65.6642 26.0084 65.6642 25.5304C65.6642 25.0601 65.9012 24.7503 66.6312 24.7503C67.4312 24.7503 67.6102 25.0983 67.6102 25.5304C67.6102 25.9893 67.3922 26.3182 66.6352 26.3182Z" fill="#6F4E37"></path><path fill-rule="evenodd" clip-rule="evenodd" d="M72.437 24.3448C72.574 24.4863 72.639 24.6813 72.639 24.9528C72.639 25.1861 72.582 25.3849 72.486 25.5188C72.379 25.6641 72.215 25.7865 72.012 25.817L72.918 27.0407H71.779L71.033 25.9815H70.104V27.0407H69.083V24.0388H71.473C71.947 24.0388 72.257 24.1536 72.437 24.3448ZM71.611 25.2052C71.637 25.1593 71.645 25.0981 71.645 25.0484C71.645 24.991 71.637 24.9299 71.611 24.8916C71.557 24.7922 71.45 24.7654 71.289 24.7654H70.108V25.3123H71.308C71.473 25.3123 71.572 25.2817 71.611 25.2052Z" fill="#6F4E37"></path><path d="M76.1111 27.0407V26.2415H74.2831V24.0388H73.2471V27.0407H76.1111Z" fill="#6F4E37"></path><path fill-rule="evenodd" clip-rule="evenodd" d="M80.1656 25.4843C80.1656 25.9509 80.1196 26.2033 79.9826 26.4404C79.7756 26.8189 79.3666 27.0407 78.6436 27.0407H76.5176V24.0388H78.6206C79.3396 24.0388 79.7646 24.2415 79.9746 24.5895C80.1236 24.8228 80.1656 25.0713 80.1656 25.4843ZM78.4486 26.3027C78.7736 26.3027 78.9576 26.2262 79.0686 26.058C79.1376 25.9547 79.1566 25.7138 79.1566 25.5035C79.1526 25.3123 79.1296 25.1096 79.0686 25.0178C78.9496 24.8381 78.7706 24.7731 78.4566 24.7731H77.5426V26.3027H78.4486Z" fill="#6F4E37"></path><path d="M39.1444 41.6404H37.5598C37.5598 41.6404 36.5258 44.6629 36.5258 44.7363C36.5258 44.6629 35.5591 41.6404 35.5591 41.6404H33.8398C33.8398 41.6404 32.8792 44.6629 32.8792 44.7363C32.8792 44.6629 31.8391 41.6404 31.8391 41.6404H30.0586L31.8574 46.4433H33.6501C33.6501 46.4433 34.6168 43.5738 34.6229 43.4943C34.6291 43.5738 35.5896 46.4433 35.5896 46.4433H37.3884L39.1444 41.6404Z" fill="#6F4E37"></path><path d="M41.3135 46.4433V41.6404H39.6309V46.4433H41.3135Z" fill="#6F4E37"></path><path d="M47.8581 41.6404V46.4433H46.2183L43.8383 43.7696V46.4433H42.2598V41.6404H43.9851L46.2917 44.253V41.6404H47.8581Z" fill="#6F4E37"></path><path d="M54.4128 46.4433V41.6404H52.8465V44.253L50.5399 41.6404H48.8145V46.4433H50.393V43.7696L52.7731 46.4433H54.4128Z" fill="#6F4E37"></path><path d="M60.4295 45.2502V46.4433H55.3691V41.6404H60.3865V42.8396H56.9844V43.4576H60.2885V44.6262H56.9844V45.2502H60.4295Z" fill="#6F4E37"></path><path fill-rule="evenodd" clip-rule="evenodd" d="M66.8961 43.1027C66.8961 42.6683 66.7921 42.3563 66.5721 42.1299C66.2841 41.824 65.7891 41.6404 65.0301 41.6404H61.2061V46.4433H62.84V44.7485H64.3271L65.5201 46.4433H67.3431L65.8931 44.4855C66.2171 44.4365 66.4801 44.2407 66.6521 44.0082C66.8041 43.7941 66.8961 43.4759 66.8961 43.1027ZM65.3051 43.2557C65.3051 43.3352 65.2931 43.4331 65.2501 43.5065C65.1891 43.6289 65.0301 43.6778 64.7671 43.6778H62.8461V42.8029H64.7361C64.9931 42.8029 65.1651 42.8457 65.2501 43.0048C65.2931 43.066 65.3051 43.1639 65.3051 43.2557Z" fill="#6F4E37"></path><path d="M34.2596 33.167L33.5961 31.1248L32.9325 33.167H30.7852L32.5224 34.4291L31.8589 36.4713L33.5961 35.2092L35.3332 36.4713L34.6697 34.4291L36.4069 33.167H34.2596Z" fill="#6F4E37"></path><path d="M41.2569 31.1233L41.934 33.1655H44.1251L42.3525 34.4277L43.0296 36.4698L41.2569 35.2077L39.4843 36.4698L40.1614 34.4277L38.3887 33.1655H40.5798L41.2569 31.1233Z" fill="#6F4E37"></path><path d="M49.5336 33.1655L48.8566 31.1233L48.1795 33.1655H45.9883L47.761 34.4277L47.0839 36.4698L48.8566 35.2077L50.6292 36.4698L49.9521 34.4277L51.7248 33.1655H49.5336Z" fill="#6F4E37"></path><path d="M56.4561 31.1233L57.1332 33.1655H59.3243L57.5517 34.4277L58.2288 36.4698L56.4561 35.2077L54.6835 36.4698L55.3606 34.4277L53.5879 33.1655H55.7791L56.4561 31.1233Z" fill="#6F4E37"></path><path d="M64.7797 33.1655L64.1157 31.1233L63.4517 33.1655H61.3047L63.0417 34.4277L62.3787 36.4698L64.1157 35.2077L65.8527 36.4698L65.1897 34.4277L66.9267 33.1655H64.7797Z" fill="#6F4E37"></path><path d="M92.6381 9.22237C93.2731 7.60787 92.9971 5.75117 92.4121 4.18977C91.7961 2.54687 90.7241 0.908167 89.1221 0.0440674C89.0421 1.77557 89.5711 3.48607 90.1491 5.02857C90.6691 6.41587 91.3061 7.89387 92.3591 9.04117C92.5211 9.91037 92.6451 10.7772 92.7321 11.64C92.3831 10.7287 91.8181 9.89807 91.1121 9.23007C90.2031 8.36957 88.8501 7.70577 87.5811 8.09837C87.9531 9.50147 88.8001 10.8467 89.8041 11.7903C90.5941 12.533 91.6371 13.4846 92.8651 13.5221C92.9161 14.7922 92.8871 16.0507 92.7821 17.2921C92.6091 16.3837 92.238 15.5283 91.701 14.8913C90.964 14.0159 89.8711 12.9466 88.4761 13.1255C88.5521 14.5457 89.1191 16.0008 89.9081 17.0942C90.5341 17.9631 91.3621 19.0706 92.5371 19.3567C92.3491 20.5762 92.0871 21.7755 91.7541 22.9491C91.7511 22.0505 91.553 21.1684 91.159 20.4609C90.604 19.4633 89.7391 18.219 88.3421 18.1217C88.1371 19.515 88.4151 21.0381 88.9751 22.2495C89.4221 23.2178 90.0191 24.4526 91.1061 24.9635C90.6491 26.2265 90.1091 27.4543 89.4891 28.6392C89.7071 27.6178 89.6981 26.5415 89.4411 25.573C89.0861 24.2382 88.2061 22.836 86.7921 22.4292C86.2921 23.903 86.3611 25.5474 86.6521 27.0452C86.8911 28.2785 87.3601 29.7269 88.4121 30.528C87.7241 31.6387 86.9631 32.7046 86.1321 33.7188C86.5791 32.7242 86.8001 31.6363 86.6811 30.6404C86.5081 29.19 86.1011 27.6387 84.6201 26.8657C83.7791 28.3157 83.5841 29.9424 83.5131 31.5491C83.4551 32.8481 83.6421 34.4503 84.5451 35.5071C83.5521 36.5385 82.4821 37.5038 81.3391 38.394C82.0771 37.4469 82.5941 36.3356 82.7031 35.2366C82.8581 33.6837 82.7831 31.9743 81.4041 30.8346C80.2261 32.0656 79.5221 33.8785 79.1781 35.4531C78.8731 36.8452 78.5551 38.4931 79.2801 39.8632C77.8251 40.8134 76.2711 41.6505 74.6281 42.3595C75.7841 41.5357 76.7301 40.4054 77.1811 39.2384C77.7721 37.709 78.1371 35.8864 76.9871 34.3546C75.4451 35.3421 74.3121 37.0268 73.4191 38.5635C72.6531 39.8821 71.8601 41.702 72.2541 43.2723C71.3441 43.5809 70.4111 43.8519 69.4561 44.0831L69.5131 44.3176C70.4711 44.0855 71.4081 43.8136 72.3211 43.5041C72.9611 45.3947 75.0571 46.0195 76.7521 46.2952C79.1671 46.6881 82.0431 45.9269 84.1051 44.3932C83.0161 42.8553 80.7961 42.6993 79.1221 42.5816L79.1001 42.5801C77.2661 42.4512 75.2821 42.6234 73.4381 43.1027C75.5681 42.2916 77.5621 41.2716 79.4011 40.0726L79.4261 40.1126C80.4331 41.7488 82.4571 41.8128 84.0451 41.7094C86.2001 41.5692 88.6871 40.2593 90.1261 38.4486C88.7721 37.2608 86.7731 37.5931 85.2231 37.8506L85.215 37.852C83.486 38.1394 81.5971 38.7663 80.0111 39.7317C80.1621 39.6128 80.3091 39.4871 80.4531 39.3552C81.9951 38.2557 83.4171 37.0258 84.7081 35.6848C84.7261 35.7027 84.7441 35.7203 84.7621 35.7378C86.0181 36.9909 87.8411 36.6603 89.2651 36.2502C91.1751 35.7002 93.155 34.0409 94.104 32.136C92.633 31.312 90.8751 31.9909 89.5081 32.5281C88.0051 33.1181 86.4161 34.0622 85.1941 35.2659C85.3201 35.1069 85.4411 34.9407 85.5551 34.7687C86.6901 33.487 87.7121 32.1145 88.6101 30.6665L88.6491 30.6906L88.659 30.6969C90.0781 31.6101 91.6861 30.947 92.9601 30.2948C94.6891 29.4099 96.0791 27.4651 96.6791 25.5525C95.1451 25.0612 93.6301 26.0255 92.4521 26.7892C91.1621 27.6249 89.8561 28.8169 88.9601 30.184C89.0261 30.0491 89.0881 29.9111 89.1451 29.7706C90.0061 28.2683 90.7371 26.6913 91.3291 25.0554L91.3601 25.0658L91.3651 25.0678C92.6561 25.5565 94.0931 24.7938 95.0301 23.9574C96.3321 22.7942 97.2511 21.0059 97.4661 19.2588C96.1201 19.0844 94.8511 20.126 93.9841 21.0143C92.9861 22.0375 92.0891 23.2468 91.5381 24.5902C91.5791 24.4436 91.6141 24.2947 91.6431 24.1442C92.1441 22.6074 92.5241 21.0225 92.7741 19.4023L92.812 19.4073C94.172 19.6275 95.4301 18.5926 96.1821 17.5881C97.2401 16.1746 97.7851 14.2183 97.6481 12.4451C96.2891 12.5403 95.2531 13.8339 94.5821 14.8805C93.8041 16.0926 93.1591 17.4645 92.8771 18.8998C92.8861 18.785 92.8911 18.6696 92.8931 18.5538C93.1001 16.9045 93.1741 15.2214 93.1061 13.5176C94.4951 13.4689 95.5241 12.1793 96.0541 11.0357C96.8111 9.39997 96.9331 7.33217 96.4281 5.58967C95.1051 5.96097 94.3671 7.47827 93.9321 8.64637C93.4301 9.99317 93.0801 11.4623 93.0771 12.9227C93.0051 11.6975 92.8591 10.4625 92.6381 9.22237Z" fill="#6F4E37"></path><path d="M204.286 3.46944C205.181 4.80666 206.039 6.45628 205.617 8.22411C204.16 7.38989 202.987 6.02785 202.058 4.68323C201.122 3.32957 200.149 1.89013 199.816 0.22168C201.655 0.691912 203.301 1.99724 204.286 3.46944Z" fill="#6F4E37"></path><path d="M125.267 8.22124C124.846 6.45308 125.707 4.80411 126.603 3.46765C127.59 1.99633 129.236 0.692193 131.075 0.223267C130.741 1.89139 129.767 3.33028 128.83 4.68307C127.899 6.02704 126.725 7.38821 125.267 8.22124Z" fill="#6F4E37"></path><path d="M123.984 11.6131C124.313 10.2128 124.306 8.67989 123.993 7.3665C123.718 6.21226 123.317 4.58059 121.999 4.03003C121.04 5.56721 120.655 7.66051 121.214 9.22904C121.617 10.3636 122.344 11.8636 123.85 12.0958C125.232 12.4144 126.629 11.6772 127.733 11.0685C128.96 10.3918 130.163 9.31513 130.893 8.03517C129.553 7.35888 128.027 7.9077 126.879 8.43367C125.642 9.00067 124.505 10.2172 123.984 11.6131Z" fill="#6F4E37"></path><path d="M150.806 12.9583V5.9281H148.406V8.48945H144.805V5.9281H142.405V12.9583H144.805V10.406H148.406V12.9583H150.806Z" fill="#6F4E37"></path><path d="M158.764 5.9281H161.415L157.654 10.6388V12.9583H155.245V10.6477L151.528 5.9281H154.26L156.481 8.74013L158.764 5.9281Z" fill="#6F4E37"></path><path fill-rule="evenodd" clip-rule="evenodd" d="M169.774 6.52808C170.249 6.90426 170.518 7.54017 170.518 8.46256C170.518 9.21483 170.33 9.779 169.971 10.1731C169.488 10.7284 168.691 10.9791 167.652 10.9881C167.33 10.997 164.571 10.9881 164.571 10.9881V12.9583H162.162V5.9281H167.616C168.583 5.9281 169.318 6.12512 169.774 6.52808ZM167.992 9.00888C168.064 8.88349 168.1 8.72228 168.1 8.49837C168.1 8.26554 168.055 8.06853 167.974 7.96109C167.822 7.73719 167.535 7.62964 167.07 7.62964H164.553V9.34915H167.052C167.553 9.34915 167.849 9.23279 167.992 9.00888Z" fill="#6F4E37"></path><path d="M178.883 11.2119V12.9583H171.477V5.9281H178.821V7.68341H173.841V8.58796H178.677V10.2984H173.841V11.2119H178.883Z" fill="#6F4E37"></path><path fill-rule="evenodd" clip-rule="evenodd" d="M187.875 6.64455C188.198 6.97589 188.35 7.43263 188.35 8.06853C188.35 8.61485 188.216 9.0805 187.991 9.39399C187.741 9.73426 187.356 10.0209 186.881 10.0925L189.004 12.9583H186.335L184.589 10.4776H182.413V12.9583H180.021V5.9281H185.619C186.729 5.9281 187.455 6.19674 187.875 6.64455ZM185.941 8.65958C186.004 8.55215 186.021 8.40879 186.021 8.29243C186.021 8.15811 186.004 8.01475 185.941 7.92517C185.816 7.69234 185.565 7.62964 185.189 7.62964H182.422V8.91037H185.233C185.619 8.91037 185.851 8.83875 185.941 8.65958Z" fill="#6F4E37"></path><path d="M177.6 21.7759C177.6 20.1689 176.579 19.3244 174.198 19.0663C173.811 19.0194 172.673 18.902 171.958 18.8434C170.116 18.6439 169.565 18.5385 169.565 18.0692C169.565 17.647 169.999 17.4476 171.653 17.4476C172.826 17.4476 173.483 17.6704 173.741 18.0105C173.87 18.1748 173.917 18.3038 173.928 18.4329H177.307C177.271 18.1513 177.154 17.7525 176.966 17.4007C176.357 16.2276 174.89 15.2892 171.735 15.2892C168.181 15.2892 166.233 16.5443 166.233 18.1866C166.233 19.7701 167.336 20.6967 170.315 20.9666C170.652 20.9954 171.376 21.0638 171.968 21.1197L172.005 21.1232L172.011 21.1239L172.014 21.1241L172.333 21.1542C173.893 21.3185 174.315 21.424 174.315 21.9167C174.315 22.3741 173.905 22.6205 172.181 22.6205C170.843 22.6205 170.057 22.421 169.776 22.0809C169.659 21.9401 169.576 21.729 169.553 21.5882H166.175C166.21 21.8228 166.269 22.1982 166.398 22.5032C166.972 23.7935 168.474 24.7788 171.958 24.7788C175.7 24.7788 177.6 23.7231 177.6 21.7759Z" fill="#6F4E37"></path><path fill-rule="evenodd" clip-rule="evenodd" d="M153.651 23.6996C154.003 23.289 154.179 22.6672 154.179 22.0339C154.179 21.4943 154.038 20.9781 153.745 20.638C153.393 20.1805 152.771 19.8521 152.115 19.77C152.56 19.7113 152.983 19.4767 153.229 19.1717C153.534 18.8081 153.675 18.3154 153.675 17.7172C153.675 17.1189 153.499 16.5911 153.1 16.1923C152.654 15.7348 151.845 15.4298 150.578 15.4298H142.625V24.638H150.801C152.103 24.638 153.112 24.3564 153.651 23.6996ZM150.414 18.2685C150.414 18.4914 150.343 18.6791 150.226 18.8081C150.062 18.9606 149.757 19.0192 149.358 19.0192H145.698V17.5178H149.276C149.722 17.5178 150.027 17.5764 150.191 17.7289C150.343 17.8579 150.414 18.0456 150.414 18.2685ZM150.766 22.3037C150.578 22.4796 150.25 22.55 149.698 22.55H145.698V21.0134H149.733C150.25 21.0134 150.555 21.0837 150.73 21.2362C150.871 21.3769 150.93 21.553 150.93 21.7875C150.93 22.0104 150.883 22.1864 150.766 22.3037Z" fill="#6F4E37"></path><path d="M165.224 22.3506V24.638H155.523V15.4298H165.142V17.7289H158.62V18.9137H164.954V21.1541H158.62V22.3506H165.224Z" fill="#6F4E37"></path><path d="M189.015 17.7407V15.4298H178.024V17.7407H181.907V24.638H185.12V17.7407H189.015Z" fill="#6F4E37"></path><path d="M188.736 32.7861H188.219L188.182 32.2882C188.024 32.5402 187.69 32.8427 186.984 32.8427C185.792 32.8427 185.238 32.1243 185.238 30.29C185.238 28.8719 185.591 27.7312 187.046 27.7312C188.308 27.7312 188.692 28.5569 188.711 29.4456H188.08C188.062 28.8657 187.803 28.33 187.059 28.33C186.165 28.33 185.906 28.8657 185.906 30.3091C185.906 31.8155 186.228 32.2882 187.072 32.2882C187.665 32.2882 188.011 31.9605 188.125 31.5697V30.6305H186.851V30.0569H188.729V31.5067C188.729 31.9398 188.733 32.4021 188.735 32.6345L188.736 32.7451V32.7861Z" fill="#6F4E37"></path><path fill-rule="evenodd" clip-rule="evenodd" d="M142.744 31.5319H144.509L144.874 32.7862H145.543L144.08 27.7944H143.267L141.704 32.7862H142.366L142.744 31.5319ZM144.351 30.971H142.914C142.914 30.971 143.538 28.9541 143.551 28.91C143.557 28.8785 143.658 28.431 143.658 28.431L143.728 28.762L143.759 28.91C143.765 28.9415 144.351 30.971 144.351 30.971Z" fill="#6F4E37"></path><path d="M150.327 27.7944H150.932L149.753 32.7862H149.003C149.003 32.7862 148.165 28.9037 148.165 28.7398C148.159 28.9037 147.302 32.7862 147.302 32.7862H146.552L145.373 27.7944H146.054C146.054 27.7944 146.968 31.7462 146.968 31.9039C146.968 31.7462 147.806 27.7944 147.806 27.7944H148.556C148.556 27.7944 149.394 31.7526 149.394 31.9039C149.394 31.7526 150.327 27.7944 150.327 27.7944Z" fill="#6F4E37"></path><path fill-rule="evenodd" clip-rule="evenodd" d="M153.52 31.5319H151.755L151.377 32.7862H150.715L152.278 27.7944H153.091L154.553 32.7862H153.885L153.52 31.5319ZM151.925 30.971H153.362C153.362 30.971 152.776 28.9415 152.77 28.91L152.722 28.6829L152.669 28.431C152.669 28.431 152.568 28.8785 152.562 28.91C152.549 28.9541 151.925 30.971 151.925 30.971Z" fill="#6F4E37"></path><path fill-rule="evenodd" clip-rule="evenodd" d="M156.983 27.7944C157.752 27.7944 158.168 28.1536 158.168 29.1999C158.168 30.0887 157.834 30.3848 157.487 30.4856L158.445 32.7862H157.752L156.863 30.6118H155.653V32.7862H155.022V27.7944H156.983ZM156.888 30.0445C157.386 30.0445 157.506 29.7861 157.506 29.2188C157.506 28.576 157.317 28.3806 156.857 28.3806H155.659V30.0445H156.888Z" fill="#6F4E37"></path><path fill-rule="evenodd" clip-rule="evenodd" d="M162.364 30.2084C162.364 31.387 162.276 31.866 162.024 32.2253C161.772 32.572 161.375 32.7862 160.732 32.7862H159.018V27.7944H160.688C161.318 27.7944 161.81 27.9835 162.037 28.3239C162.289 28.6894 162.364 29.1432 162.364 30.2084ZM160.6 32.1937C160.984 32.1937 161.306 32.0929 161.469 31.8723C161.646 31.6328 161.696 31.1475 161.696 30.2084C161.696 29.4205 161.652 28.9982 161.469 28.7272C161.299 28.494 160.971 28.3931 160.587 28.3931H159.654V32.1937H160.6Z" fill="#6F4E37"></path><path d="M169.014 27.7944H169.619L168.44 32.7862H167.69C167.69 32.7862 166.852 28.9037 166.852 28.7398C166.845 28.9037 165.988 32.7862 165.988 32.7862H165.238L164.06 27.7944H164.74C164.74 27.7944 165.654 31.7462 165.654 31.9039C165.654 31.7462 166.492 27.7944 166.492 27.7944H167.242C167.242 27.7944 168.081 31.7526 168.081 31.9039C168.081 31.7526 169.014 27.7944 169.014 27.7944Z" fill="#6F4E37"></path><path d="M170.733 27.7944V32.7862H170.077V27.7944H170.733Z" fill="#6F4E37"></path><path d="M174.836 27.7944V32.7862H174.111L172.252 28.9162V32.7862H171.641V27.7944H172.403L174.219 31.6076V27.7944H174.836Z" fill="#6F4E37"></path><path d="M178.923 27.7944V32.7862H178.198L176.339 28.9162V32.7862H175.728V27.7944H176.49L178.306 31.6076V27.7944H178.923Z" fill="#6F4E37"></path><path d="M180.47 27.7944V32.7862H179.814V27.7944H180.47Z" fill="#6F4E37"></path><path d="M184.574 27.7944V32.7862H183.849L181.99 28.9162V32.7862H181.378V27.7944H182.141L183.957 31.6076V27.7944H184.574Z" fill="#6F4E37"></path><path d="M149.84 42.6247L149.118 40.4017L148.396 42.6247H146.059L147.949 43.9986L147.227 46.2215L149.118 44.8476L151.009 46.2215L150.287 43.9986L152.178 42.6247H149.84Z" fill="#6F4E37"></path><path d="M158.192 42.6249L157.455 40.402L156.718 42.6249H154.333L156.263 43.9987L155.526 46.2216L157.455 44.8479L159.385 46.2216L158.648 43.9987L160.577 42.6249H158.192Z" fill="#6F4E37"></path><path d="M166.466 42.6249L165.728 40.402L164.991 42.6249H162.606L164.536 43.9987L163.799 46.2216L165.728 44.8479L167.658 46.2216L166.921 43.9987L168.851 42.6249H166.466Z" fill="#6F4E37"></path><path d="M174.737 42.6249L174 40.402L173.263 42.6249H170.878L172.807 43.9987L172.07 46.2216L174 44.8479L175.929 46.2216L175.192 43.9987L177.122 42.6249H174.737Z" fill="#6F4E37"></path><path d="M183.061 42.6249L182.339 40.402L181.616 42.6249H179.279L181.17 43.9987L180.448 46.2216L182.339 44.8479L184.23 46.2216L183.507 43.9987L185.399 42.6249H183.061Z" fill="#6F4E37"></path><path d="M119.728 15.3916C120.408 16.4285 121.46 17.7273 122.993 17.6903C124.388 17.76 125.592 16.8083 126.541 16.014C127.563 15.1585 128.485 13.9075 128.874 12.5551C127.448 12.1401 126.083 12.9088 125.064 13.6339C124.001 14.3912 123.183 15.777 123.008 17.2C122.994 15.7744 122.609 14.302 121.986 13.1159C121.418 12.0315 120.625 10.5657 119.211 10.2727C118.654 11.96 118.832 14.0244 119.728 15.3916Z" fill="#6F4E37"></path><path d="M123.447 23.2748C122.023 23.5133 120.635 22.6413 119.734 21.6156C118.573 20.295 117.882 18.5235 118.023 16.75C119.485 16.7871 120.592 18.051 121.411 19.0067C122.292 20.036 123.015 21.3902 123.361 22.7871C123.209 21.395 123.676 19.8916 124.544 18.9627C125.381 18.066 126.554 17.0887 128.014 17.2456C127.983 18.6573 127.275 20.0022 126.545 21.0095C125.865 21.9482 124.817 23.1093 123.447 23.2748Z" fill="#6F4E37"></path><path d="M120.818 27.9657C122.129 28.819 123.719 29.6637 125.389 29.0244C126.76 28.5395 127.631 27.1598 128.167 25.8935C128.735 24.5517 129.114 23.0045 128.852 21.5359C127.346 21.6696 126.097 22.7472 125.433 24.0626C124.74 25.4378 124.607 27.0747 125.14 28.5166C124.353 27.0333 123.201 25.8331 121.982 24.7241C120.874 23.716 119.277 22.6541 117.669 22.8538C117.975 24.842 119.188 26.9046 120.818 27.9657Z" fill="#6F4E37"></path><path d="M128.765 34.3994C130.055 33.6283 130.574 32.0058 130.786 30.6154C131.015 29.116 131.005 27.4624 130.383 26.0399C128.886 26.4579 127.859 27.8048 127.52 29.2801C127.161 30.8387 127.464 32.4998 128.335 33.8269C127.177 32.4975 125.636 31.3999 124.159 30.6302C122.733 29.8868 120.983 28.9901 119.271 29.5316C120.096 31.5474 121.863 33.4242 123.822 34.2005C125.338 34.8016 127.183 35.396 128.765 34.3994Z" fill="#6F4E37"></path><path d="M134.881 34.9211C135.07 36.3684 135.065 38.204 133.941 39.318C132.537 40.7552 130.364 40.4779 128.688 40.1617C126.437 39.7368 123.904 38.2022 122.547 36.1587C124.205 35.2458 126.233 35.8298 127.874 36.3025L127.968 36.3294C129.8 36.8566 131.753 37.7056 133.386 38.8657C132.082 37.6882 131.133 35.9598 131.086 34.2178C131.045 32.6597 131.721 30.9928 133.176 30.2501C134.192 31.5836 134.668 33.2957 134.881 34.9211Z" fill="#6F4E37"></path><path d="M141.402 43.4161C142.229 41.8409 141.409 39.9922 140.756 38.6258C139.983 37.0105 138.928 35.3642 137.418 34.1819C135.968 35.4317 136.106 37.22 136.537 38.7742C137.049 40.6221 138.827 42.1974 140.667 43.0951C138.536 42.3001 136.208 41.823 133.993 41.6822L133.769 41.6677C131.989 41.5518 129.673 41.4009 128.255 42.7031C130.399 44.5256 133.444 45.5771 136.128 45.5224C137.926 45.4858 140.394 45.2731 141.402 43.4161Z" fill="#6F4E37"></path><path d="M206.898 11.618C206.378 10.2212 205.242 9.00314 204.005 8.43505C202.857 7.90822 201.332 7.35842 199.992 8.0335C200.721 9.31402 201.922 10.3915 203.149 11.0692C204.251 11.6786 205.648 12.4168 207.03 12.0995C208.537 11.8687 209.265 10.369 209.67 9.23444C210.231 7.66668 209.847 5.57295 208.891 4.03479C207.571 4.58459 207.169 6.21582 206.893 7.36995C206.579 8.68367 206.57 10.2171 206.898 11.618Z" fill="#6F4E37"></path><path d="M205.815 13.6369C206.877 14.3945 207.692 15.7796 207.867 17.2017C207.883 15.7768 208.27 14.3058 208.893 13.1209C209.462 12.0368 210.257 10.5717 211.671 10.2797C212.226 11.9675 212.046 14.0318 211.148 15.3982C210.469 16.4333 209.417 17.7294 207.887 17.6946C206.49 17.7659 205.284 16.812 204.335 16.0161C203.314 15.1597 202.393 13.9081 202.006 12.5554C203.432 12.1413 204.797 12.9111 205.815 13.6369Z" fill="#6F4E37"></path><path d="M207.508 22.7965C207.664 21.4031 207.198 19.8966 206.329 18.9659C205.493 18.0685 204.321 17.0904 202.861 17.2462C202.891 18.6578 203.597 20.0034 204.326 21.0113C205.006 21.9501 206.052 23.1112 207.421 23.2785C208.845 23.5196 210.235 22.6481 211.138 21.6225C212.3 20.3029 212.992 18.5319 212.854 16.7582C211.391 16.7943 210.283 18.0572 209.463 19.0122C208.579 20.0422 207.855 21.3979 207.508 22.7965Z" fill="#6F4E37"></path><path d="M205.435 24.0652C206.128 25.4412 206.259 27.0784 205.725 28.5198C206.513 27.0367 207.666 25.8373 208.886 24.7291C209.995 23.7218 211.593 22.6613 213.201 22.8621C212.894 24.8502 211.678 26.9119 210.047 27.9716C208.737 28.8229 207.149 29.6658 205.48 29.0291C204.108 28.5451 203.236 27.1626 202.7 25.894C202.133 24.5518 201.755 23.0044 202.02 21.5359C203.525 21.6708 204.774 22.7493 205.435 24.0652Z" fill="#6F4E37"></path><path d="M202.526 33.8243C203.397 32.4985 203.701 30.839 203.345 29.2811C203.008 27.8056 201.981 26.4579 200.484 26.0388C199.861 27.4606 199.85 29.1142 200.076 30.6139C200.287 32.0015 200.803 33.6208 202.086 34.3947C203.669 35.3992 205.519 34.8051 207.037 34.2042C208.996 33.4293 210.765 31.5538 211.593 29.5385C209.88 28.9958 208.13 29.8912 206.703 30.6336C205.227 31.4017 203.686 32.4971 202.526 33.8243Z" fill="#6F4E37"></path><path d="M195.978 34.9168C195.788 36.3638 195.791 38.1993 196.914 39.3143C198.316 40.7526 200.49 40.4768 202.166 40.1617C204.417 39.7386 206.951 38.2055 208.311 36.1633C206.654 35.2493 204.625 35.8315 202.984 36.3029L202.889 36.3299C201.057 36.8555 199.104 37.7027 197.47 38.8611C198.774 37.6846 199.725 35.9577 199.773 34.2163C199.816 32.6583 199.141 30.9908 197.687 30.2469C196.669 31.5797 196.192 33.2916 195.978 34.9168Z" fill="#6F4E37"></path><path d="M194.72 45.517C192.922 45.479 190.454 45.2644 189.449 43.4066L189.434 43.3811C188.631 41.8107 189.448 39.9753 190.098 38.617C190.872 37.0022 191.929 35.3567 193.44 34.1757C194.89 35.4265 194.75 37.2146 194.318 38.7684C193.803 40.616 192.024 42.1902 190.182 43.0863C192.315 42.293 194.643 41.8177 196.858 41.6784L197.083 41.664C198.863 41.5495 201.179 41.4006 202.596 42.7035C200.45 44.5241 197.404 45.5736 194.72 45.517Z" fill="#6F4E37"></path></svg>