<svg xmlns="http://www.w3.org/2000/svg" width="130" height="130" viewBox="0 0 130 130" fill="none"><path d="M71.7762 118.934L72.3691 128.716L69.4903 128.891C68.3444 128.96 67.3914 128.817 66.6311 128.461C65.8621 128.115 65.2783 127.585 64.8796 126.87C64.4723 126.165 64.2375 125.301 64.1754 124.276C64.1144 123.27 64.2436 122.392 64.5629 121.644C64.8729 120.896 65.3886 120.303 66.1102 119.867C66.8225 119.431 67.7516 119.178 68.8975 119.109L71.7762 118.934ZM70.6616 119.984L68.9847 120.085C68.0345 120.143 67.2892 120.342 66.7488 120.684C66.209 121.034 65.8355 121.506 65.6283 122.098C65.4217 122.7 65.3426 123.401 65.3912 124.202C65.4409 125.022 65.6046 125.718 65.8824 126.29C66.1602 126.863 66.5882 127.29 67.1664 127.573C67.7445 127.856 68.5087 127.969 69.459 127.911L71.1359 127.809L70.6616 119.984ZM62.446 119.385L61.9648 129.173L60.7902 129.115L61.2715 119.327L62.446 119.385ZM59.4616 119.121L57.8979 128.796L56.737 128.608L52.835 120.022L51.5819 127.775L50.4209 127.587L51.9846 117.913L53.1455 118.1L57.0475 126.687L58.3006 118.934L59.4616 119.121ZM50.2338 117.463L47.1673 126.77L41.4097 124.874L41.712 123.956L46.3526 125.485L47.4215 122.24L43.1798 120.843L43.4777 119.939L47.7194 121.336L48.8146 118.012L44.1739 116.483L44.4762 115.566L50.2338 117.463ZM40.4191 113.614L39.3125 124.024L38.174 123.452L39.2469 114.419L32.6188 120.663L31.5053 120.104L39.1929 112.998L40.4191 113.614ZM31.9769 108.125C32.732 108.689 33.2716 109.355 33.5958 110.122C33.9069 110.89 33.9969 111.697 33.8657 112.543C33.7215 113.391 33.3476 114.218 32.7441 115.026C32.1462 115.826 31.464 116.411 30.6974 116.782C29.9177 117.155 29.1153 117.301 28.2901 117.22C27.4574 117.133 26.6636 116.808 25.9085 116.244C25.1385 115.668 24.5979 114.996 24.2868 114.228C23.9757 113.459 23.8923 112.651 24.0365 111.803C24.1676 110.957 24.5322 110.134 25.1301 109.335C25.7336 108.527 26.4251 107.937 27.2048 107.564C27.9714 107.194 28.7673 107.049 29.5925 107.129C30.4121 107.218 31.2069 107.549 31.9769 108.125ZM31.3567 108.955C30.7885 108.53 30.1964 108.286 29.5803 108.221C28.9511 108.159 28.3418 108.28 27.7525 108.586C27.15 108.893 26.5974 109.383 26.0945 110.055C25.5915 110.728 25.2809 111.393 25.1625 112.051C25.031 112.71 25.0871 113.328 25.3307 113.907C25.5668 114.479 25.969 114.978 26.5371 115.403C27.0978 115.822 27.69 116.066 28.3135 116.136C28.9296 116.201 29.5389 116.079 30.1414 115.772C30.7307 115.467 31.2769 114.978 31.7798 114.305C32.2827 113.632 32.5999 112.966 32.7313 112.307C32.8497 111.65 32.7936 111.031 32.5631 110.451C32.3195 109.873 31.9174 109.374 31.3567 108.955ZM22.0818 98.5725C22.6835 99.3102 23.0429 100.083 23.16 100.891C23.2639 101.697 23.1409 102.484 22.7911 103.251C22.434 104.025 21.865 104.73 21.0839 105.367C20.3028 106.004 19.5014 106.417 18.6796 106.605C17.8505 106.8 17.055 106.762 16.293 106.493C15.5178 106.222 14.8294 105.717 14.2276 104.98C13.5196 104.112 13.1505 103.238 13.1203 102.36C13.09 101.481 13.3891 100.659 14.0173 99.8935L14.8403 100.902C14.4646 101.402 14.2803 101.943 14.2873 102.528C14.2871 103.118 14.5348 103.717 15.0304 104.325C15.4728 104.867 15.9829 105.234 16.5605 105.425C17.1309 105.622 17.7396 105.638 18.3867 105.471C19.0265 105.311 19.6719 104.965 20.3228 104.434C20.9737 103.903 21.4457 103.337 21.7388 102.737C22.0247 102.142 22.1319 101.543 22.0606 100.939C21.982 100.34 21.7215 99.7698 21.279 99.2274C20.7834 98.6199 20.2537 98.251 19.6898 98.1208C19.1186 97.9965 18.5544 98.0653 17.9972 98.3272L17.1742 97.3183C18.0285 96.8743 18.883 96.7554 19.7378 96.9615C20.5925 97.1676 21.3738 97.7046 22.0818 98.5725ZM16.7052 90.4018C17.1557 91.2298 17.3683 92.0598 17.3429 92.8918C17.3049 93.7201 17.0498 94.4912 16.5775 95.205C16.0927 95.9152 15.4075 96.5112 14.5222 96.993C13.645 97.4703 12.7807 97.7175 11.9292 97.7346C11.0652 97.7479 10.275 97.5456 9.55888 97.1278C8.83825 96.7017 8.25264 96.0747 7.80206 95.2467C7.34255 94.4023 7.13182 93.566 7.16988 92.7377C7.20793 91.9094 7.4694 91.1402 7.95427 90.4301C8.42648 89.7162 9.10118 89.1206 9.97837 88.6432C10.8638 88.1614 11.7385 87.9139 12.6026 87.9006C13.454 87.8835 14.2378 88.0839 14.9539 88.5018C15.6619 88.924 16.2457 89.5574 16.7052 90.4018ZM15.7952 90.897C15.4561 90.2739 15.0201 89.8046 14.4871 89.489C13.9414 89.1697 13.337 89.0257 12.6741 89.0571C11.9984 89.0847 11.2917 89.2993 10.5539 89.7008C9.81605 90.1023 9.25617 90.577 8.87426 91.1248C8.47968 91.669 8.2724 92.2546 8.25242 92.8818C8.22798 93.5008 8.38528 94.1218 8.72434 94.7448C9.05893 95.3597 9.49497 95.829 10.0325 96.1528C10.5655 96.4684 11.1698 96.6124 11.8455 96.5848C12.5084 96.5534 13.2088 96.3369 13.9467 95.9354C14.6845 95.5339 15.2507 95.0611 15.6453 94.517C16.0272 93.9691 16.2345 93.3835 16.2671 92.76C16.2871 92.1329 16.1298 91.5119 15.7952 90.897ZM13.7618 84.9858L4.50441 88.2015L2.54741 82.5677L3.45992 82.2507L5.03104 86.7736L8.28434 85.6435L6.94752 81.7951L7.84681 81.4827L9.18363 85.3311L13.3759 83.8749L13.7618 84.9858ZM11.5285 78.142L1.93245 80.1307L0.722148 74.2908L1.66805 74.0948L2.6397 78.7832L6.01204 78.0842L5.18528 74.095L6.11747 73.9018L6.94423 77.8911L11.2899 76.9904L11.5285 78.142ZM10.205 71.0671L0.429601 71.7608L0.000446666 65.7141L0.964023 65.6457L1.30992 70.5194L4.71735 70.2776L4.40119 65.8228L5.3508 65.7554L5.66696 70.2102L9.15818 69.9624L8.81228 65.0887L9.77586 65.0203L10.205 71.0671ZM9.81142 63.4561L0.0346268 62.782L0.451605 56.7344L1.41532 56.8008L1.07923 61.6753L4.48714 61.9102L4.79434 57.4548L5.74408 57.5203L5.43689 61.9757L8.9286 62.2165L9.26468 57.342L10.2284 57.4085L9.81142 63.4561ZM8.50916 48.0226L7.56879 47.7005L9.36514 42.4556L10.3055 42.7777L8.50916 48.0226ZM17.6174 36.2279L9.47651 30.7721L12.8513 25.7364L13.6537 26.2742L10.9337 30.333L13.7714 32.2347L16.2576 28.5248L17.0485 29.0548L14.5622 32.7647L17.4697 34.7132L20.1897 30.6544L20.9922 31.1921L17.6174 36.2279ZM24.1863 27.7643C23.7072 28.3001 23.193 28.6791 22.6436 28.9015C22.0942 29.1239 21.5491 29.1874 21.0084 29.0921C20.4676 28.9967 19.9677 28.7437 19.5084 28.3331L20.3296 27.4147C20.6149 27.6698 20.9384 27.8401 21.3001 27.9256C21.6549 28.0049 22.0173 27.9847 22.3874 27.8649C22.7567 27.7318 23.1093 27.4775 23.4453 27.1018C23.7377 26.7748 23.9343 26.4498 24.0352 26.1269C24.1354 25.7908 24.1445 25.4796 24.0624 25.1933C23.9865 24.9001 23.8303 24.6478 23.5937 24.4363C23.3085 24.1812 23.0229 24.0385 22.7369 24.0082C22.4503 23.9648 22.158 23.9976 21.86 24.1068C21.5621 24.216 21.2469 24.3724 20.9146 24.5761C20.5815 24.7666 20.2325 24.9679 19.8676 25.1799C19.1564 25.5832 18.5334 25.7899 17.9986 25.8C17.4638 25.81 16.9632 25.6067 16.4971 25.1899C16.1005 24.8353 15.8335 24.4338 15.6961 23.9854C15.5648 23.53 15.5682 23.0572 15.706 22.567C15.8431 22.0635 16.1232 21.5753 16.5462 21.1022C16.963 20.636 17.4108 20.3102 17.8896 20.1248C18.3746 19.9325 18.8573 19.8757 19.3376 19.9546C19.811 20.0273 20.2459 20.241 20.6425 20.5956L19.8213 21.514C19.6196 21.3336 19.3746 21.2085 19.0865 21.1386C18.7984 21.0688 18.4952 21.0858 18.1772 21.1895C17.8583 21.28 17.5558 21.4853 17.2697 21.8053C17.0263 22.0635 16.86 22.3405 16.7708 22.6363C16.6808 22.919 16.6699 23.1972 16.7381 23.471C16.8125 23.7379 16.975 23.9833 17.2254 24.2072C17.462 24.4187 17.6969 24.5411 17.9301 24.5744C18.1695 24.6006 18.4254 24.5665 18.6977 24.472C18.9693 24.3642 19.262 24.219 19.5756 24.0362C19.8893 23.8534 20.2383 23.6521 20.6226 23.4324C21.0582 23.1833 21.4842 23.0008 21.9008 22.885C22.3166 22.756 22.7252 22.7332 23.1264 22.8165C23.5339 22.8929 23.9429 23.1146 24.3534 23.4816C24.7013 23.7927 24.9478 24.1821 25.0929 24.6499C25.2373 25.1045 25.2452 25.5999 25.1165 26.1358C24.9878 26.6718 24.6777 27.2147 24.1863 27.7643ZM28.8738 22.9016L23.0819 16.2312L20.8726 18.1496L20.2392 17.4202L25.5459 12.8124L26.1793 13.5418L23.9699 15.4602L29.7618 22.1305L28.8738 22.9016ZM32.3825 20.1003C32.1943 20.2382 31.9921 20.2938 31.7758 20.2672C31.5616 20.2275 31.3883 20.1173 31.2558 19.9366C31.1234 19.7559 31.0733 19.5612 31.1055 19.3525C31.1397 19.1308 31.2509 18.9509 31.4391 18.813C31.6273 18.675 31.8285 18.6259 32.0427 18.6656C32.2515 18.6978 32.422 18.8042 32.5544 18.9849C32.6869 19.1656 32.7397 19.3641 32.7131 19.5803C32.6809 19.789 32.5707 19.9624 32.3825 20.1003ZM37.9559 16.4713L33.8101 9.06929L32.5496 10.2567L32.1391 9.52381L33.509 7.72956L34.2053 7.33961L38.9942 15.8898L37.9559 16.4713ZM43.6369 14.0344C43.0687 14.2723 42.5372 14.3683 42.0425 14.3225C41.5441 14.268 41.0969 14.1061 40.7009 13.8368C40.3099 13.5553 39.9948 13.2015 39.7558 12.7754L40.7631 12.3538C41.051 12.7999 41.4144 13.0879 41.8533 13.2178C42.2885 13.3392 42.7558 13.2953 43.2552 13.0863C43.7115 12.8953 44.0585 12.5882 44.2961 12.1649C44.5338 11.7416 44.6431 11.2051 44.6241 10.5554C44.6101 9.8935 44.434 9.12235 44.0958 8.24198C44.085 8.21616 44.0742 8.19033 44.0634 8.1645C44.0526 8.13867 44.0418 8.11284 44.031 8.08701C44.0135 8.40797 43.9286 8.73693 43.7763 9.0739C43.6239 9.41087 43.4044 9.7203 43.1177 10.0022C42.8395 10.2805 42.4896 10.508 42.0677 10.6846C41.5597 10.8972 41.0272 10.9785 40.4699 10.9284C39.9213 10.8748 39.4149 10.6922 38.9506 10.3806C38.4913 10.0569 38.1391 9.60226 37.894 9.01681C37.6814 8.50885 37.6026 7.97016 37.6577 7.40074C37.7127 6.83131 37.9115 6.30293 38.2538 5.8156C38.5962 5.32827 39.0859 4.95126 39.723 4.68456C40.3688 4.41427 40.9677 4.31026 41.5199 4.37253C42.0685 4.42619 42.5628 4.60379 43.0026 4.90532C43.4475 5.19464 43.8384 5.57235 44.1751 6.03847C44.5119 6.50458 44.792 7.00453 45.0154 7.53831C45.4299 8.5284 45.6579 9.45993 45.6996 10.3329C45.7498 11.2022 45.6025 11.9621 45.2575 12.6124C44.9175 13.2505 44.3773 13.7245 43.6369 14.0344ZM41.8926 9.64992C42.2886 9.48414 42.6081 9.24418 42.851 8.93003C43.0938 8.61589 43.2408 8.26601 43.2919 7.88038C43.3515 7.49116 43.3039 7.11144 43.1489 6.74123C42.9831 6.3452 42.7425 6.03616 42.4269 5.81411C42.12 5.58846 41.7712 5.45622 41.3806 5.41737C40.9899 5.37853 40.5966 5.442 40.2006 5.60778C39.8045 5.77356 39.4851 6.01352 39.2422 6.32767C39.0044 6.6296 38.8581 6.96907 38.8034 7.34608C38.7488 7.7231 38.8043 8.10962 38.9701 8.50566C39.1395 8.9103 39.3777 9.22545 39.6846 9.4511C39.9915 9.67674 40.336 9.81079 40.718 9.85324C41.105 9.88348 41.4966 9.8157 41.8926 9.64992ZM51.659 11.3789C51.0611 11.5269 50.5212 11.5403 50.0393 11.4192C49.5552 11.289 49.1381 11.0605 48.788 10.7337C48.4447 10.3956 48.1876 9.9977 48.0166 9.54003L49.0767 9.2777C49.2928 9.76264 49.6078 10.1029 50.0216 10.2986C50.4331 10.4852 50.9016 10.5135 51.4271 10.3834C51.9073 10.2646 52.2972 10.0143 52.597 9.63241C52.8967 9.25056 53.0869 8.73716 53.1677 8.09221C53.2552 7.43595 53.1994 6.64693 53.0001 5.72514C52.9934 5.69796 52.9867 5.67078 52.9799 5.6436C52.9732 5.61642 52.9665 5.58924 52.9598 5.56206C52.8934 5.87655 52.7591 6.18862 52.5569 6.49826C52.3547 6.8079 52.0903 7.08005 51.7638 7.3147C51.4463 7.5471 51.0656 7.71823 50.6217 7.8281C50.0871 7.96038 49.5484 7.9591 49.0054 7.82426C48.4715 7.68717 47.999 7.42912 47.5879 7.05011C47.1837 6.6598 46.9053 6.1566 46.7528 5.54052C46.6205 5.00598 46.6252 4.46157 46.7669 3.90731C46.9086 3.35305 47.1859 2.86136 47.5989 2.43224C48.0119 2.00313 48.5536 1.70561 49.2241 1.53969C49.9036 1.37153 50.5114 1.36052 51.0475 1.50667C51.5814 1.64376 52.0426 1.89499 52.4311 2.26037C52.8264 2.61444 53.1548 3.04758 53.4161 3.55979C53.6775 4.07201 53.8777 4.60897 54.0167 5.17069C54.2745 6.21259 54.3572 7.16806 54.2645 8.03709C54.181 8.90388 53.9189 9.63216 53.4784 10.2219C53.0447 10.8004 52.4382 11.186 51.659 11.3789ZM50.6072 6.77885C51.0239 6.67571 51.3764 6.48753 51.6645 6.21431C51.9527 5.94109 52.1515 5.61786 52.261 5.24462C52.3796 4.86913 52.3907 4.48659 52.2943 4.09701C52.1912 3.68025 52.0007 3.33799 51.7229 3.07021C51.4542 2.8002 51.1298 2.61607 50.7497 2.51783C50.3697 2.41959 49.9713 2.42203 49.5545 2.52517C49.1377 2.62831 48.7853 2.81649 48.4972 3.08971C48.2158 3.35163 48.0193 3.66468 47.9075 4.02886C47.7957 4.39305 47.7914 4.78352 47.8945 5.20028C47.9999 5.62611 48.187 5.97402 48.4557 6.24404C48.7244 6.51405 49.0443 6.6993 49.4153 6.79979C49.7931 6.88897 50.1904 6.88199 50.6072 6.77885ZM57.3171 10.0811L60.2083 0.940673L54.8612 1.49724L54.7569 0.494653L61.3015 -0.186558L61.3928 0.690703L58.5564 9.95212L57.3171 10.0811ZM70.9595 6.23161L71.1082 5.2488L76.5898 6.07809L76.4412 7.0609L70.9595 6.23161ZM84.1902 13.0888L88.1612 4.12934L91.3098 5.52486C91.9412 5.80472 92.4163 6.13781 92.7351 6.52413C93.0663 6.9057 93.2567 7.31678 93.3064 7.75739C93.3599 8.18947 93.2921 8.61883 93.103 9.04547C92.8988 9.50624 92.6262 9.84483 92.2853 10.0612C91.9529 10.2814 91.5886 10.4007 91.1925 10.4192C90.805 10.4414 90.4244 10.3901 90.0509 10.2654L90.2868 10.2168C90.667 10.3955 90.9758 10.6549 91.213 10.9948C91.4503 11.3348 91.589 11.7128 91.6293 12.1288C91.678 12.5485 91.6116 12.9632 91.4301 13.3728C91.2297 13.825 90.9353 14.1897 90.5471 14.4668C90.1626 14.7354 89.7036 14.8841 89.1701 14.9131C88.6489 14.9373 88.0726 14.8095 87.4412 14.5297L84.1902 13.0888ZM85.6624 12.6693L87.7231 13.5827C88.3289 13.8512 88.8606 13.9184 89.3182 13.7843C89.7881 13.6455 90.1365 13.3201 90.3634 12.8081C90.5865 12.3047 90.5894 11.8261 90.3719 11.3724C90.1667 10.9139 89.7612 10.5505 89.1554 10.2819L87.1203 9.37996L85.6624 12.6693ZM87.5004 8.52241L89.4971 9.40737C90.0773 9.66454 90.5773 9.72279 90.9969 9.5821C91.4251 9.4452 91.7432 9.1421 91.9512 8.6728C92.1517 8.22056 92.1588 7.78984 91.9727 7.38064C91.795 6.97523 91.4033 6.63826 90.7975 6.36975L88.8392 5.50181L87.5004 8.52241ZM91.5675 16.5243L96.7903 8.23207L101.92 11.4628L101.405 12.2802L97.2706 9.67619L95.45 12.5666L99.2289 14.9468L98.7216 15.7523L94.9427 13.3722L93.0774 16.3337L97.2116 18.9377L96.6968 19.755L91.5675 16.5243ZM100.217 22.847C99.6676 22.384 99.2735 21.8812 99.035 21.3386C98.7964 20.796 98.7168 20.253 98.7962 19.7097C98.8755 19.1664 99.1136 18.6592 99.5105 18.188L100.453 18.9817C100.206 19.2744 100.046 19.6028 99.9707 19.9669C99.9019 20.3238 99.9329 20.6855 100.064 21.0518C100.207 21.4171 100.472 21.762 100.858 22.0867C101.193 22.3693 101.524 22.5563 101.85 22.6476C102.188 22.7379 102.5 22.7377 102.783 22.6472C103.074 22.5627 103.322 22.3991 103.526 22.1564C103.773 21.8637 103.907 21.574 103.929 21.2873C103.964 20.9995 103.922 20.7083 103.804 20.4137C103.686 20.1191 103.521 19.8087 103.307 19.4825C103.107 19.1552 102.896 18.8123 102.673 18.4539C102.249 17.7549 102.024 17.1383 101.998 16.604C101.972 16.0697 102.161 15.5634 102.563 15.0851C102.906 14.6782 103.3 14.3994 103.744 14.2488C104.195 14.1042 104.668 14.0936 105.162 14.2169C105.669 14.339 106.165 14.6046 106.651 15.0134C107.129 15.4163 107.468 15.8542 107.667 16.3273C107.874 16.8064 107.945 17.2872 107.88 17.7697C107.822 18.245 107.621 18.6861 107.278 19.093L106.336 18.2993C106.51 18.0923 106.628 17.8437 106.689 17.5537C106.751 17.2636 106.725 16.9611 106.612 16.6462C106.512 16.3302 106.298 16.0339 105.969 15.7573C105.704 15.5217 105.422 15.3637 105.124 15.2832C104.839 15.2016 104.56 15.199 104.289 15.2752C104.024 15.3575 103.784 15.5271 103.567 15.7841C103.363 16.0268 103.247 16.2652 103.221 16.4993C103.202 16.7394 103.243 16.9941 103.346 17.2636C103.462 17.5319 103.616 17.8201 103.808 18.1282C103.999 18.4363 104.211 18.7792 104.442 19.1569C104.704 19.5849 104.899 20.0054 105.027 20.4183C105.168 20.8302 105.203 21.2379 105.132 21.6414C105.067 22.051 104.858 22.4663 104.503 22.8875C104.202 23.2444 103.82 23.5023 103.357 23.6612C102.907 23.819 102.412 23.8415 101.873 23.7287C101.333 23.6159 100.781 23.322 100.217 22.847ZM105.189 27.4127L111.75 21.4965L109.79 19.3236L110.508 18.6766L115.214 23.8958L114.497 24.5427L112.537 22.3698L105.977 28.286L105.189 27.4127ZM112.516 38.0109C112.048 37.1819 111.825 36.3594 111.847 35.5433C111.881 34.7308 112.136 33.9762 112.611 33.2794C113.094 32.5781 113.774 31.9797 114.652 31.4842C115.53 30.9887 116.389 30.7177 117.231 30.6712C118.081 30.6201 118.859 30.7921 119.564 31.1871C120.282 31.5857 120.875 32.1995 121.343 33.0285C121.894 34.0038 122.109 34.9271 121.99 35.7982C121.871 36.6693 121.437 37.4287 120.688 38.0766L120.048 36.9427C120.503 36.5145 120.776 36.0117 120.869 35.4345C120.969 34.8528 120.826 34.2205 120.441 33.5378C120.097 32.9282 119.656 32.4801 119.12 32.1937C118.591 31.9026 117.994 31.7843 117.328 31.8387C116.67 31.8885 115.975 32.1198 115.244 32.5327C114.512 32.9456 113.951 33.4231 113.56 33.9652C113.178 34.5026 112.97 35.0752 112.938 35.6828C112.914 36.2858 113.074 36.8921 113.418 37.5017C113.804 38.1844 114.263 38.6378 114.797 38.8617C115.339 39.081 115.906 39.1089 116.5 38.9453L117.14 40.0792C116.223 40.3719 115.361 40.3442 114.553 39.9961C113.746 39.648 113.067 38.9863 112.516 38.0109ZM116.434 46.9723C116.129 46.0801 116.06 45.2262 116.225 44.4103C116.402 43.6004 116.784 42.8834 117.369 42.2593C117.967 41.6411 118.743 41.1692 119.697 40.8436C120.642 40.521 121.536 40.4231 122.378 40.5499C123.232 40.6825 123.976 41.0151 124.612 41.5478C125.25 42.0892 125.722 42.806 126.026 43.6981C126.337 44.6079 126.403 45.4678 126.226 46.2778C126.049 47.0878 125.662 47.8019 125.064 48.4201C124.478 49.0441 123.713 49.5174 122.768 49.84C121.814 50.1656 120.91 50.2621 120.056 50.1295C119.214 50.0027 118.475 49.673 117.839 49.1404C117.213 48.6048 116.744 47.8821 116.434 46.9723ZM117.414 46.6376C117.643 47.3089 117.994 47.8451 118.466 48.246C118.95 48.6528 119.521 48.8967 120.18 48.9775C120.851 49.0642 121.584 48.9719 122.379 48.7006C123.174 48.4292 123.806 48.0558 124.274 47.5802C124.755 47.1104 125.058 46.5681 125.184 45.9532C125.312 45.3473 125.262 44.7086 125.033 44.0373C124.806 43.3748 124.456 42.8387 123.981 42.4289C123.508 42.0279 122.937 41.7841 122.266 41.6974C121.608 41.6165 120.881 41.7117 120.086 41.9831C119.291 42.2544 118.653 42.625 118.172 43.0948C117.704 43.5704 117.4 44.1127 117.263 44.7217C117.138 45.3365 117.188 45.9751 117.414 46.6376ZM118.424 52.8036L128.086 51.1604L129.085 57.04L128.133 57.202L127.33 52.4818L123.935 53.0592L124.618 57.0755L123.68 57.2352L122.997 53.2188L118.621 53.9629L118.424 52.8036ZM119.492 59.9225L129.286 59.5946L129.486 65.5553L128.52 65.5876L128.36 60.8023L124.918 60.9175L125.054 64.9892L124.103 65.0211L123.967 60.9494L119.531 61.0978L119.492 59.9225ZM119.596 67.1209L129.349 68.072L128.761 74.1054L127.8 74.0117L128.274 69.1487L124.874 68.8172L124.441 73.2621L123.493 73.1697L123.927 68.7248L120.443 68.3851L119.969 73.2481L119.007 73.1543L119.596 67.1209ZM118.712 74.6892L128.241 76.9769L126.826 82.8714L125.887 82.6459L127.028 77.8949L123.706 77.0975L122.663 81.4401L121.738 81.2179L122.78 76.8753L119.377 76.0582L118.236 80.8092L117.297 80.5837L118.712 74.6892ZM114.094 88.0276C114.401 87.3777 114.786 86.868 115.249 86.4985C115.713 86.129 116.217 85.9131 116.763 85.8507C117.308 85.7883 117.86 85.8886 118.417 86.1516L117.891 87.2657C117.545 87.1023 117.186 87.0311 116.815 87.0519C116.452 87.0768 116.111 87.1993 115.79 87.4195C115.474 87.652 115.208 87.9962 114.993 88.452C114.805 88.8486 114.709 89.2161 114.704 89.5544C114.704 89.9051 114.784 90.206 114.944 90.4571C115.1 90.7166 115.322 90.9141 115.609 91.0496C115.955 91.213 116.269 91.2685 116.552 91.2162C116.839 91.1763 117.11 91.0617 117.364 90.8723C117.619 90.6828 117.877 90.4432 118.137 90.1534C118.402 89.8761 118.68 89.5839 118.969 89.2767C119.536 88.6878 120.075 88.3124 120.585 88.1507C121.095 87.9889 121.632 88.0415 122.198 88.3085C122.679 88.5356 123.049 88.8446 123.308 89.2354C123.564 89.6346 123.695 90.0888 123.702 90.598C123.714 91.1196 123.584 91.6674 123.313 92.2413C123.046 92.8067 122.71 93.2464 122.303 93.5604C121.893 93.8827 121.447 94.0744 120.964 94.1354C120.489 94.2004 120.011 94.1193 119.53 93.8921L120.056 92.7781C120.301 92.8936 120.572 92.9439 120.868 92.9289C121.164 92.9139 121.449 92.8114 121.725 92.6215C122.005 92.444 122.236 92.1612 122.42 91.7729C122.58 91.4562 122.66 91.1433 122.662 90.8344C122.668 90.5378 122.599 90.268 122.456 90.0249C122.308 89.7902 122.083 89.6011 121.779 89.4577C121.492 89.3222 121.232 89.2717 120.999 89.3062C120.762 89.3491 120.526 89.4546 120.292 89.6227C120.062 89.8032 119.823 90.0257 119.574 90.2902C119.326 90.5546 119.048 90.8469 118.743 91.1669C118.396 91.5296 118.039 91.8257 117.673 92.0552C117.311 92.2972 116.926 92.4353 116.517 92.4695C116.105 92.5122 115.65 92.416 115.152 92.1809C114.73 91.9816 114.383 91.6784 114.111 91.2712C113.843 90.8764 113.694 90.4038 113.665 89.8534C113.636 89.3029 113.779 88.6943 114.094 88.0276ZM108.578 97.456L116.685 102.961L116.025 103.934L107.917 98.4289L108.578 97.456ZM112.093 92.2786L120.201 97.7836L119.54 98.7565L111.432 93.2515L112.093 92.2786ZM115.288 95.5985L116.087 96.1411L112.941 100.774L112.142 100.231L115.288 95.5985ZM103.578 102.801C104.238 102.128 104.97 101.682 105.773 101.464C106.577 101.258 107.389 101.277 108.209 101.521C109.03 101.777 109.8 102.258 110.519 102.965C111.232 103.664 111.721 104.419 111.986 105.228C112.251 106.051 112.288 106.865 112.097 107.672C111.9 108.486 111.471 109.229 110.811 109.902C110.137 110.588 109.399 111.033 108.596 111.239C107.792 111.444 106.98 111.419 106.16 111.162C105.339 110.919 104.572 110.448 103.86 109.748C103.14 109.042 102.648 108.277 102.383 107.455C102.118 106.645 102.081 105.837 102.272 105.03C102.469 104.23 102.905 103.487 103.578 102.801ZM104.317 103.527C103.82 104.033 103.499 104.587 103.352 105.189C103.206 105.804 103.245 106.424 103.469 107.049C103.692 107.687 104.104 108.3 104.703 108.889C105.303 109.477 105.92 109.874 106.555 110.079C107.191 110.298 107.812 110.325 108.417 110.161C109.017 110.004 109.565 109.672 110.062 109.166C110.552 108.667 110.874 108.113 111.026 107.504C111.173 106.902 111.134 106.282 110.91 105.644C110.687 105.019 110.275 104.412 109.676 103.824C109.076 103.235 108.459 102.832 107.823 102.613C107.188 102.408 106.567 102.381 105.961 102.531C105.356 102.695 104.808 103.027 104.317 103.527ZM99.2564 107.194L105.014 115.124L102.43 117C101.804 117.455 101.213 117.722 100.659 117.801C100.103 117.893 99.6049 117.834 99.1639 117.624C98.7153 117.419 98.3292 117.093 98.0058 116.648C97.6932 116.217 97.5063 115.753 97.445 115.256C97.3816 114.771 97.4733 114.278 97.72 113.776C97.9668 113.274 98.4074 112.792 99.0419 112.332L100.673 111.147L98.3047 107.885L99.2564 107.194ZM101.257 111.952L99.6372 113.128C99.0027 113.589 98.651 114.057 98.5819 114.534C98.5129 115.011 98.6456 115.48 98.9801 115.94C99.3365 116.431 99.7466 116.71 100.21 116.777C100.68 116.852 101.232 116.659 101.866 116.198L103.486 115.022L101.257 111.952ZM88.066 118.197L88.419 119.126L83.2363 121.095L82.8834 120.166L88.066 118.197Z" fill="#6F4E37"></path></svg>